<?xml version="1.0" encoding="utf-8" standalone="no"?>
<!DOCTYPE svg PUBLIC "-//W3C//DTD SVG 1.1//EN"
  "http://www.w3.org/Graphics/SVG/1.1/DTD/svg11.dtd">
<svg xmlns:xlink="http://www.w3.org/1999/xlink" width="496.433125pt" height="315.034375pt" viewBox="0 0 496.433125 315.034375" xmlns="http://www.w3.org/2000/svg" version="1.1">
 <metadata>
  <rdf:RDF xmlns:dc="http://purl.org/dc/elements/1.1/" xmlns:cc="http://creativecommons.org/ns#" xmlns:rdf="http://www.w3.org/1999/02/22-rdf-syntax-ns#">
   <cc:Work>
    <dc:type rdf:resource="http://purl.org/dc/dcmitype/StillImage"/>
    <dc:date>2025-11-05T01:10:39.629805</dc:date>
    <dc:format>image/svg+xml</dc:format>
    <dc:creator>
     <cc:Agent>
      <dc:title>Matplotlib v3.10.6, https://matplotlib.org/</dc:title>
     </cc:Agent>
    </dc:creator>
   </cc:Work>
  </rdf:RDF>
 </metadata>
 <defs>
  <style type="text/css">*{stroke-linejoin: round; stroke-linecap: butt}</style>
 </defs>
 <g id="figure_1">
  <g id="patch_1">
   <path d="M -0 315.034375 
L 496.433125 315.034375 
L 496.433125 0 
L -0 0 
z
" style="fill: #ffffff"/>
  </g>
  <g id="axes_1">
   <g id="patch_2">
    <path d="M 40.603125 277.478125 
L 489.233125 277.478125 
L 489.233125 22.318125 
L 40.603125 22.318125 
z
" style="fill: #ffffff"/>
   </g>
   <g id="patch_3">
    <path d="M 60.995398 277.478125 
L 62.594792 277.478125 
L 62.594792 257.227331 
L 60.995398 257.227331 
z
" clip-path="url(#p48fd6e6e35)" style="fill: #1f77b4; stroke: #000000; stroke-linejoin: miter"/>
   </g>
   <g id="patch_4">
    <path d="M 62.594792 277.478125 
L 64.194186 277.478125 
L 64.194186 277.478125 
L 62.594792 277.478125 
z
" clip-path="url(#p48fd6e6e35)" style="fill: #1f77b4; stroke: #000000; stroke-linejoin: miter"/>
   </g>
   <g id="patch_5">
    <path d="M 64.194186 277.478125 
L 65.79358 277.478125 
L 65.79358 277.478125 
L 64.194186 277.478125 
z
" clip-path="url(#p48fd6e6e35)" style="fill: #1f77b4; stroke: #000000; stroke-linejoin: miter"/>
   </g>
   <g id="patch_6">
    <path d="M 65.79358 277.478125 
L 67.392973 277.478125 
L 67.392973 277.478125 
L 65.79358 277.478125 
z
" clip-path="url(#p48fd6e6e35)" style="fill: #1f77b4; stroke: #000000; stroke-linejoin: miter"/>
   </g>
   <g id="patch_7">
    <path d="M 67.392973 277.478125 
L 68.992367 277.478125 
L 68.992367 277.478125 
L 67.392973 277.478125 
z
" clip-path="url(#p48fd6e6e35)" style="fill: #1f77b4; stroke: #000000; stroke-linejoin: miter"/>
   </g>
   <g id="patch_8">
    <path d="M 68.992367 277.478125 
L 70.591761 277.478125 
L 70.591761 257.227331 
L 68.992367 257.227331 
z
" clip-path="url(#p48fd6e6e35)" style="fill: #1f77b4; stroke: #000000; stroke-linejoin: miter"/>
   </g>
   <g id="patch_9">
    <path d="M 70.591761 277.478125 
L 72.191155 277.478125 
L 72.191155 277.478125 
L 70.591761 277.478125 
z
" clip-path="url(#p48fd6e6e35)" style="fill: #1f77b4; stroke: #000000; stroke-linejoin: miter"/>
   </g>
   <g id="patch_10">
    <path d="M 72.191155 277.478125 
L 73.790549 277.478125 
L 73.790549 277.478125 
L 72.191155 277.478125 
z
" clip-path="url(#p48fd6e6e35)" style="fill: #1f77b4; stroke: #000000; stroke-linejoin: miter"/>
   </g>
   <g id="patch_11">
    <path d="M 73.790549 277.478125 
L 75.389943 277.478125 
L 75.389943 277.478125 
L 73.790549 277.478125 
z
" clip-path="url(#p48fd6e6e35)" style="fill: #1f77b4; stroke: #000000; stroke-linejoin: miter"/>
   </g>
   <g id="patch_12">
    <path d="M 75.389943 277.478125 
L 76.989337 277.478125 
L 76.989337 277.478125 
L 75.389943 277.478125 
z
" clip-path="url(#p48fd6e6e35)" style="fill: #1f77b4; stroke: #000000; stroke-linejoin: miter"/>
   </g>
   <g id="patch_13">
    <path d="M 76.989337 277.478125 
L 78.588731 277.478125 
L 78.588731 277.478125 
L 76.989337 277.478125 
z
" clip-path="url(#p48fd6e6e35)" style="fill: #1f77b4; stroke: #000000; stroke-linejoin: miter"/>
   </g>
   <g id="patch_14">
    <path d="M 78.588731 277.478125 
L 80.188125 277.478125 
L 80.188125 257.227331 
L 78.588731 257.227331 
z
" clip-path="url(#p48fd6e6e35)" style="fill: #1f77b4; stroke: #000000; stroke-linejoin: miter"/>
   </g>
   <g id="patch_15">
    <path d="M 80.188125 277.478125 
L 81.787519 277.478125 
L 81.787519 257.227331 
L 80.188125 257.227331 
z
" clip-path="url(#p48fd6e6e35)" style="fill: #1f77b4; stroke: #000000; stroke-linejoin: miter"/>
   </g>
   <g id="patch_16">
    <path d="M 81.787519 277.478125 
L 83.386913 277.478125 
L 83.386913 277.478125 
L 81.787519 277.478125 
z
" clip-path="url(#p48fd6e6e35)" style="fill: #1f77b4; stroke: #000000; stroke-linejoin: miter"/>
   </g>
   <g id="patch_17">
    <path d="M 83.386913 277.478125 
L 84.986307 277.478125 
L 84.986307 277.478125 
L 83.386913 277.478125 
z
" clip-path="url(#p48fd6e6e35)" style="fill: #1f77b4; stroke: #000000; stroke-linejoin: miter"/>
   </g>
   <g id="patch_18">
    <path d="M 84.986307 277.478125 
L 86.585701 277.478125 
L 86.585701 257.227331 
L 84.986307 257.227331 
z
" clip-path="url(#p48fd6e6e35)" style="fill: #1f77b4; stroke: #000000; stroke-linejoin: miter"/>
   </g>
   <g id="patch_19">
    <path d="M 86.585701 277.478125 
L 88.185095 277.478125 
L 88.185095 277.478125 
L 86.585701 277.478125 
z
" clip-path="url(#p48fd6e6e35)" style="fill: #1f77b4; stroke: #000000; stroke-linejoin: miter"/>
   </g>
   <g id="patch_20">
    <path d="M 88.185095 277.478125 
L 89.784489 277.478125 
L 89.784489 257.227331 
L 88.185095 257.227331 
z
" clip-path="url(#p48fd6e6e35)" style="fill: #1f77b4; stroke: #000000; stroke-linejoin: miter"/>
   </g>
   <g id="patch_21">
    <path d="M 89.784489 277.478125 
L 91.383883 277.478125 
L 91.383883 277.478125 
L 89.784489 277.478125 
z
" clip-path="url(#p48fd6e6e35)" style="fill: #1f77b4; stroke: #000000; stroke-linejoin: miter"/>
   </g>
   <g id="patch_22">
    <path d="M 91.383883 277.478125 
L 92.983277 277.478125 
L 92.983277 277.478125 
L 91.383883 277.478125 
z
" clip-path="url(#p48fd6e6e35)" style="fill: #1f77b4; stroke: #000000; stroke-linejoin: miter"/>
   </g>
   <g id="patch_23">
    <path d="M 92.983277 277.478125 
L 94.58267 277.478125 
L 94.58267 257.227331 
L 92.983277 257.227331 
z
" clip-path="url(#p48fd6e6e35)" style="fill: #1f77b4; stroke: #000000; stroke-linejoin: miter"/>
   </g>
   <g id="patch_24">
    <path d="M 94.58267 277.478125 
L 96.182064 277.478125 
L 96.182064 236.976538 
L 94.58267 236.976538 
z
" clip-path="url(#p48fd6e6e35)" style="fill: #1f77b4; stroke: #000000; stroke-linejoin: miter"/>
   </g>
   <g id="patch_25">
    <path d="M 96.182064 277.478125 
L 97.781458 277.478125 
L 97.781458 257.227331 
L 96.182064 257.227331 
z
" clip-path="url(#p48fd6e6e35)" style="fill: #1f77b4; stroke: #000000; stroke-linejoin: miter"/>
   </g>
   <g id="patch_26">
    <path d="M 97.781458 277.478125 
L 99.380852 277.478125 
L 99.380852 257.227331 
L 97.781458 257.227331 
z
" clip-path="url(#p48fd6e6e35)" style="fill: #1f77b4; stroke: #000000; stroke-linejoin: miter"/>
   </g>
   <g id="patch_27">
    <path d="M 99.380852 277.478125 
L 100.980246 277.478125 
L 100.980246 236.976538 
L 99.380852 236.976538 
z
" clip-path="url(#p48fd6e6e35)" style="fill: #1f77b4; stroke: #000000; stroke-linejoin: miter"/>
   </g>
   <g id="patch_28">
    <path d="M 100.980246 277.478125 
L 102.57964 277.478125 
L 102.57964 236.976538 
L 100.980246 236.976538 
z
" clip-path="url(#p48fd6e6e35)" style="fill: #1f77b4; stroke: #000000; stroke-linejoin: miter"/>
   </g>
   <g id="patch_29">
    <path d="M 102.57964 277.478125 
L 104.179034 277.478125 
L 104.179034 216.725744 
L 102.57964 216.725744 
z
" clip-path="url(#p48fd6e6e35)" style="fill: #1f77b4; stroke: #000000; stroke-linejoin: miter"/>
   </g>
   <g id="patch_30">
    <path d="M 104.179034 277.478125 
L 105.778428 277.478125 
L 105.778428 257.227331 
L 104.179034 257.227331 
z
" clip-path="url(#p48fd6e6e35)" style="fill: #1f77b4; stroke: #000000; stroke-linejoin: miter"/>
   </g>
   <g id="patch_31">
    <path d="M 105.778428 277.478125 
L 107.377822 277.478125 
L 107.377822 257.227331 
L 105.778428 257.227331 
z
" clip-path="url(#p48fd6e6e35)" style="fill: #1f77b4; stroke: #000000; stroke-linejoin: miter"/>
   </g>
   <g id="patch_32">
    <path d="M 107.377822 277.478125 
L 108.977216 277.478125 
L 108.977216 277.478125 
L 107.377822 277.478125 
z
" clip-path="url(#p48fd6e6e35)" style="fill: #1f77b4; stroke: #000000; stroke-linejoin: miter"/>
   </g>
   <g id="patch_33">
    <path d="M 108.977216 277.478125 
L 110.57661 277.478125 
L 110.57661 257.227331 
L 108.977216 257.227331 
z
" clip-path="url(#p48fd6e6e35)" style="fill: #1f77b4; stroke: #000000; stroke-linejoin: miter"/>
   </g>
   <g id="patch_34">
    <path d="M 110.57661 277.478125 
L 112.176004 277.478125 
L 112.176004 277.478125 
L 110.57661 277.478125 
z
" clip-path="url(#p48fd6e6e35)" style="fill: #1f77b4; stroke: #000000; stroke-linejoin: miter"/>
   </g>
   <g id="patch_35">
    <path d="M 112.176004 277.478125 
L 113.775398 277.478125 
L 113.775398 257.227331 
L 112.176004 257.227331 
z
" clip-path="url(#p48fd6e6e35)" style="fill: #1f77b4; stroke: #000000; stroke-linejoin: miter"/>
   </g>
   <g id="patch_36">
    <path d="M 113.775398 277.478125 
L 115.374792 277.478125 
L 115.374792 277.478125 
L 113.775398 277.478125 
z
" clip-path="url(#p48fd6e6e35)" style="fill: #1f77b4; stroke: #000000; stroke-linejoin: miter"/>
   </g>
   <g id="patch_37">
    <path d="M 115.374792 277.478125 
L 116.974186 277.478125 
L 116.974186 236.976538 
L 115.374792 236.976538 
z
" clip-path="url(#p48fd6e6e35)" style="fill: #1f77b4; stroke: #000000; stroke-linejoin: miter"/>
   </g>
   <g id="patch_38">
    <path d="M 116.974186 277.478125 
L 118.57358 277.478125 
L 118.57358 196.47495 
L 116.974186 196.47495 
z
" clip-path="url(#p48fd6e6e35)" style="fill: #1f77b4; stroke: #000000; stroke-linejoin: miter"/>
   </g>
   <g id="patch_39">
    <path d="M 118.57358 277.478125 
L 120.172973 277.478125 
L 120.172973 236.976538 
L 118.57358 236.976538 
z
" clip-path="url(#p48fd6e6e35)" style="fill: #1f77b4; stroke: #000000; stroke-linejoin: miter"/>
   </g>
   <g id="patch_40">
    <path d="M 120.172973 277.478125 
L 121.772367 277.478125 
L 121.772367 176.224157 
L 120.172973 176.224157 
z
" clip-path="url(#p48fd6e6e35)" style="fill: #1f77b4; stroke: #000000; stroke-linejoin: miter"/>
   </g>
   <g id="patch_41">
    <path d="M 121.772367 277.478125 
L 123.371761 277.478125 
L 123.371761 236.976538 
L 121.772367 236.976538 
z
" clip-path="url(#p48fd6e6e35)" style="fill: #1f77b4; stroke: #000000; stroke-linejoin: miter"/>
   </g>
   <g id="patch_42">
    <path d="M 123.371761 277.478125 
L 124.971155 277.478125 
L 124.971155 277.478125 
L 123.371761 277.478125 
z
" clip-path="url(#p48fd6e6e35)" style="fill: #1f77b4; stroke: #000000; stroke-linejoin: miter"/>
   </g>
   <g id="patch_43">
    <path d="M 124.971155 277.478125 
L 126.570549 277.478125 
L 126.570549 277.478125 
L 124.971155 277.478125 
z
" clip-path="url(#p48fd6e6e35)" style="fill: #1f77b4; stroke: #000000; stroke-linejoin: miter"/>
   </g>
   <g id="patch_44">
    <path d="M 126.570549 277.478125 
L 128.169943 277.478125 
L 128.169943 277.478125 
L 126.570549 277.478125 
z
" clip-path="url(#p48fd6e6e35)" style="fill: #1f77b4; stroke: #000000; stroke-linejoin: miter"/>
   </g>
   <g id="patch_45">
    <path d="M 128.169943 277.478125 
L 129.769337 277.478125 
L 129.769337 257.227331 
L 128.169943 257.227331 
z
" clip-path="url(#p48fd6e6e35)" style="fill: #1f77b4; stroke: #000000; stroke-linejoin: miter"/>
   </g>
   <g id="patch_46">
    <path d="M 129.769337 277.478125 
L 131.368731 277.478125 
L 131.368731 216.725744 
L 129.769337 216.725744 
z
" clip-path="url(#p48fd6e6e35)" style="fill: #1f77b4; stroke: #000000; stroke-linejoin: miter"/>
   </g>
   <g id="patch_47">
    <path d="M 131.368731 277.478125 
L 132.968125 277.478125 
L 132.968125 196.47495 
L 131.368731 196.47495 
z
" clip-path="url(#p48fd6e6e35)" style="fill: #1f77b4; stroke: #000000; stroke-linejoin: miter"/>
   </g>
   <g id="patch_48">
    <path d="M 132.968125 277.478125 
L 134.567519 277.478125 
L 134.567519 196.47495 
L 132.968125 196.47495 
z
" clip-path="url(#p48fd6e6e35)" style="fill: #1f77b4; stroke: #000000; stroke-linejoin: miter"/>
   </g>
   <g id="patch_49">
    <path d="M 134.567519 277.478125 
L 136.166913 277.478125 
L 136.166913 257.227331 
L 134.567519 257.227331 
z
" clip-path="url(#p48fd6e6e35)" style="fill: #1f77b4; stroke: #000000; stroke-linejoin: miter"/>
   </g>
   <g id="patch_50">
    <path d="M 136.166913 277.478125 
L 137.766307 277.478125 
L 137.766307 176.224157 
L 136.166913 176.224157 
z
" clip-path="url(#p48fd6e6e35)" style="fill: #1f77b4; stroke: #000000; stroke-linejoin: miter"/>
   </g>
   <g id="patch_51">
    <path d="M 137.766307 277.478125 
L 139.365701 277.478125 
L 139.365701 216.725744 
L 137.766307 216.725744 
z
" clip-path="url(#p48fd6e6e35)" style="fill: #1f77b4; stroke: #000000; stroke-linejoin: miter"/>
   </g>
   <g id="patch_52">
    <path d="M 139.365701 277.478125 
L 140.965095 277.478125 
L 140.965095 236.976538 
L 139.365701 236.976538 
z
" clip-path="url(#p48fd6e6e35)" style="fill: #1f77b4; stroke: #000000; stroke-linejoin: miter"/>
   </g>
   <g id="patch_53">
    <path d="M 140.965095 277.478125 
L 142.564489 277.478125 
L 142.564489 216.725744 
L 140.965095 216.725744 
z
" clip-path="url(#p48fd6e6e35)" style="fill: #1f77b4; stroke: #000000; stroke-linejoin: miter"/>
   </g>
   <g id="patch_54">
    <path d="M 142.564489 277.478125 
L 144.163883 277.478125 
L 144.163883 236.976538 
L 142.564489 236.976538 
z
" clip-path="url(#p48fd6e6e35)" style="fill: #1f77b4; stroke: #000000; stroke-linejoin: miter"/>
   </g>
   <g id="patch_55">
    <path d="M 144.163883 277.478125 
L 145.763277 277.478125 
L 145.763277 216.725744 
L 144.163883 216.725744 
z
" clip-path="url(#p48fd6e6e35)" style="fill: #1f77b4; stroke: #000000; stroke-linejoin: miter"/>
   </g>
   <g id="patch_56">
    <path d="M 145.763277 277.478125 
L 147.36267 277.478125 
L 147.36267 236.976538 
L 145.763277 236.976538 
z
" clip-path="url(#p48fd6e6e35)" style="fill: #1f77b4; stroke: #000000; stroke-linejoin: miter"/>
   </g>
   <g id="patch_57">
    <path d="M 147.36267 277.478125 
L 148.962064 277.478125 
L 148.962064 277.478125 
L 147.36267 277.478125 
z
" clip-path="url(#p48fd6e6e35)" style="fill: #1f77b4; stroke: #000000; stroke-linejoin: miter"/>
   </g>
   <g id="patch_58">
    <path d="M 148.962064 277.478125 
L 150.561458 277.478125 
L 150.561458 176.224157 
L 148.962064 176.224157 
z
" clip-path="url(#p48fd6e6e35)" style="fill: #1f77b4; stroke: #000000; stroke-linejoin: miter"/>
   </g>
   <g id="patch_59">
    <path d="M 150.561458 277.478125 
L 152.160852 277.478125 
L 152.160852 257.227331 
L 150.561458 257.227331 
z
" clip-path="url(#p48fd6e6e35)" style="fill: #1f77b4; stroke: #000000; stroke-linejoin: miter"/>
   </g>
   <g id="patch_60">
    <path d="M 152.160852 277.478125 
L 153.760246 277.478125 
L 153.760246 176.224157 
L 152.160852 176.224157 
z
" clip-path="url(#p48fd6e6e35)" style="fill: #1f77b4; stroke: #000000; stroke-linejoin: miter"/>
   </g>
   <g id="patch_61">
    <path d="M 153.760246 277.478125 
L 155.35964 277.478125 
L 155.35964 216.725744 
L 153.760246 216.725744 
z
" clip-path="url(#p48fd6e6e35)" style="fill: #1f77b4; stroke: #000000; stroke-linejoin: miter"/>
   </g>
   <g id="patch_62">
    <path d="M 155.35964 277.478125 
L 156.959034 277.478125 
L 156.959034 236.976538 
L 155.35964 236.976538 
z
" clip-path="url(#p48fd6e6e35)" style="fill: #1f77b4; stroke: #000000; stroke-linejoin: miter"/>
   </g>
   <g id="patch_63">
    <path d="M 156.959034 277.478125 
L 158.558428 277.478125 
L 158.558428 34.468601 
L 156.959034 34.468601 
z
" clip-path="url(#p48fd6e6e35)" style="fill: #1f77b4; stroke: #000000; stroke-linejoin: miter"/>
   </g>
   <g id="patch_64">
    <path d="M 158.558428 277.478125 
L 160.157822 277.478125 
L 160.157822 196.47495 
L 158.558428 196.47495 
z
" clip-path="url(#p48fd6e6e35)" style="fill: #1f77b4; stroke: #000000; stroke-linejoin: miter"/>
   </g>
   <g id="patch_65">
    <path d="M 160.157822 277.478125 
L 161.757216 277.478125 
L 161.757216 135.722569 
L 160.157822 135.722569 
z
" clip-path="url(#p48fd6e6e35)" style="fill: #1f77b4; stroke: #000000; stroke-linejoin: miter"/>
   </g>
   <g id="patch_66">
    <path d="M 161.757216 277.478125 
L 163.35661 277.478125 
L 163.35661 216.725744 
L 161.757216 216.725744 
z
" clip-path="url(#p48fd6e6e35)" style="fill: #1f77b4; stroke: #000000; stroke-linejoin: miter"/>
   </g>
   <g id="patch_67">
    <path d="M 163.35661 277.478125 
L 164.956004 277.478125 
L 164.956004 216.725744 
L 163.35661 216.725744 
z
" clip-path="url(#p48fd6e6e35)" style="fill: #1f77b4; stroke: #000000; stroke-linejoin: miter"/>
   </g>
   <g id="patch_68">
    <path d="M 164.956004 277.478125 
L 166.555398 277.478125 
L 166.555398 155.973363 
L 164.956004 155.973363 
z
" clip-path="url(#p48fd6e6e35)" style="fill: #1f77b4; stroke: #000000; stroke-linejoin: miter"/>
   </g>
   <g id="patch_69">
    <path d="M 166.555398 277.478125 
L 168.154792 277.478125 
L 168.154792 135.722569 
L 166.555398 135.722569 
z
" clip-path="url(#p48fd6e6e35)" style="fill: #1f77b4; stroke: #000000; stroke-linejoin: miter"/>
   </g>
   <g id="patch_70">
    <path d="M 168.154792 277.478125 
L 169.754186 277.478125 
L 169.754186 196.47495 
L 168.154792 196.47495 
z
" clip-path="url(#p48fd6e6e35)" style="fill: #1f77b4; stroke: #000000; stroke-linejoin: miter"/>
   </g>
   <g id="patch_71">
    <path d="M 169.754186 277.478125 
L 171.35358 277.478125 
L 171.35358 216.725744 
L 169.754186 216.725744 
z
" clip-path="url(#p48fd6e6e35)" style="fill: #1f77b4; stroke: #000000; stroke-linejoin: miter"/>
   </g>
   <g id="patch_72">
    <path d="M 171.35358 277.478125 
L 172.952973 277.478125 
L 172.952973 196.47495 
L 171.35358 196.47495 
z
" clip-path="url(#p48fd6e6e35)" style="fill: #1f77b4; stroke: #000000; stroke-linejoin: miter"/>
   </g>
   <g id="patch_73">
    <path d="M 172.952973 277.478125 
L 174.552367 277.478125 
L 174.552367 176.224157 
L 172.952973 176.224157 
z
" clip-path="url(#p48fd6e6e35)" style="fill: #1f77b4; stroke: #000000; stroke-linejoin: miter"/>
   </g>
   <g id="patch_74">
    <path d="M 174.552367 277.478125 
L 176.151761 277.478125 
L 176.151761 236.976538 
L 174.552367 236.976538 
z
" clip-path="url(#p48fd6e6e35)" style="fill: #1f77b4; stroke: #000000; stroke-linejoin: miter"/>
   </g>
   <g id="patch_75">
    <path d="M 176.151761 277.478125 
L 177.751155 277.478125 
L 177.751155 216.725744 
L 176.151761 216.725744 
z
" clip-path="url(#p48fd6e6e35)" style="fill: #1f77b4; stroke: #000000; stroke-linejoin: miter"/>
   </g>
   <g id="patch_76">
    <path d="M 177.751155 277.478125 
L 179.350549 277.478125 
L 179.350549 236.976538 
L 177.751155 236.976538 
z
" clip-path="url(#p48fd6e6e35)" style="fill: #1f77b4; stroke: #000000; stroke-linejoin: miter"/>
   </g>
   <g id="patch_77">
    <path d="M 179.350549 277.478125 
L 180.949943 277.478125 
L 180.949943 155.973363 
L 179.350549 155.973363 
z
" clip-path="url(#p48fd6e6e35)" style="fill: #1f77b4; stroke: #000000; stroke-linejoin: miter"/>
   </g>
   <g id="patch_78">
    <path d="M 180.949943 277.478125 
L 182.549337 277.478125 
L 182.549337 196.47495 
L 180.949943 196.47495 
z
" clip-path="url(#p48fd6e6e35)" style="fill: #1f77b4; stroke: #000000; stroke-linejoin: miter"/>
   </g>
   <g id="patch_79">
    <path d="M 182.549337 277.478125 
L 184.148731 277.478125 
L 184.148731 115.471776 
L 182.549337 115.471776 
z
" clip-path="url(#p48fd6e6e35)" style="fill: #1f77b4; stroke: #000000; stroke-linejoin: miter"/>
   </g>
   <g id="patch_80">
    <path d="M 184.148731 277.478125 
L 185.748125 277.478125 
L 185.748125 236.976538 
L 184.148731 236.976538 
z
" clip-path="url(#p48fd6e6e35)" style="fill: #1f77b4; stroke: #000000; stroke-linejoin: miter"/>
   </g>
   <g id="patch_81">
    <path d="M 185.748125 277.478125 
L 187.347519 277.478125 
L 187.347519 176.224157 
L 185.748125 176.224157 
z
" clip-path="url(#p48fd6e6e35)" style="fill: #1f77b4; stroke: #000000; stroke-linejoin: miter"/>
   </g>
   <g id="patch_82">
    <path d="M 187.347519 277.478125 
L 188.946913 277.478125 
L 188.946913 196.47495 
L 187.347519 196.47495 
z
" clip-path="url(#p48fd6e6e35)" style="fill: #1f77b4; stroke: #000000; stroke-linejoin: miter"/>
   </g>
   <g id="patch_83">
    <path d="M 188.946913 277.478125 
L 190.546307 277.478125 
L 190.546307 155.973363 
L 188.946913 155.973363 
z
" clip-path="url(#p48fd6e6e35)" style="fill: #1f77b4; stroke: #000000; stroke-linejoin: miter"/>
   </g>
   <g id="patch_84">
    <path d="M 190.546307 277.478125 
L 192.145701 277.478125 
L 192.145701 236.976538 
L 190.546307 236.976538 
z
" clip-path="url(#p48fd6e6e35)" style="fill: #1f77b4; stroke: #000000; stroke-linejoin: miter"/>
   </g>
   <g id="patch_85">
    <path d="M 192.145701 277.478125 
L 193.745095 277.478125 
L 193.745095 155.973363 
L 192.145701 155.973363 
z
" clip-path="url(#p48fd6e6e35)" style="fill: #1f77b4; stroke: #000000; stroke-linejoin: miter"/>
   </g>
   <g id="patch_86">
    <path d="M 193.745095 277.478125 
L 195.344489 277.478125 
L 195.344489 176.224157 
L 193.745095 176.224157 
z
" clip-path="url(#p48fd6e6e35)" style="fill: #1f77b4; stroke: #000000; stroke-linejoin: miter"/>
   </g>
   <g id="patch_87">
    <path d="M 195.344489 277.478125 
L 196.943883 277.478125 
L 196.943883 176.224157 
L 195.344489 176.224157 
z
" clip-path="url(#p48fd6e6e35)" style="fill: #1f77b4; stroke: #000000; stroke-linejoin: miter"/>
   </g>
   <g id="patch_88">
    <path d="M 196.943883 277.478125 
L 198.543277 277.478125 
L 198.543277 236.976538 
L 196.943883 236.976538 
z
" clip-path="url(#p48fd6e6e35)" style="fill: #1f77b4; stroke: #000000; stroke-linejoin: miter"/>
   </g>
   <g id="patch_89">
    <path d="M 198.543277 277.478125 
L 200.14267 277.478125 
L 200.14267 216.725744 
L 198.543277 216.725744 
z
" clip-path="url(#p48fd6e6e35)" style="fill: #1f77b4; stroke: #000000; stroke-linejoin: miter"/>
   </g>
   <g id="patch_90">
    <path d="M 200.14267 277.478125 
L 201.742064 277.478125 
L 201.742064 176.224157 
L 200.14267 176.224157 
z
" clip-path="url(#p48fd6e6e35)" style="fill: #1f77b4; stroke: #000000; stroke-linejoin: miter"/>
   </g>
   <g id="patch_91">
    <path d="M 201.742064 277.478125 
L 203.341458 277.478125 
L 203.341458 155.973363 
L 201.742064 155.973363 
z
" clip-path="url(#p48fd6e6e35)" style="fill: #1f77b4; stroke: #000000; stroke-linejoin: miter"/>
   </g>
   <g id="patch_92">
    <path d="M 203.341458 277.478125 
L 204.940852 277.478125 
L 204.940852 155.973363 
L 203.341458 155.973363 
z
" clip-path="url(#p48fd6e6e35)" style="fill: #1f77b4; stroke: #000000; stroke-linejoin: miter"/>
   </g>
   <g id="patch_93">
    <path d="M 204.940852 277.478125 
L 206.540246 277.478125 
L 206.540246 216.725744 
L 204.940852 216.725744 
z
" clip-path="url(#p48fd6e6e35)" style="fill: #1f77b4; stroke: #000000; stroke-linejoin: miter"/>
   </g>
   <g id="patch_94">
    <path d="M 206.540246 277.478125 
L 208.13964 277.478125 
L 208.13964 155.973363 
L 206.540246 155.973363 
z
" clip-path="url(#p48fd6e6e35)" style="fill: #1f77b4; stroke: #000000; stroke-linejoin: miter"/>
   </g>
   <g id="patch_95">
    <path d="M 208.13964 277.478125 
L 209.739034 277.478125 
L 209.739034 155.973363 
L 208.13964 155.973363 
z
" clip-path="url(#p48fd6e6e35)" style="fill: #1f77b4; stroke: #000000; stroke-linejoin: miter"/>
   </g>
   <g id="patch_96">
    <path d="M 209.739034 277.478125 
L 211.338428 277.478125 
L 211.338428 196.47495 
L 209.739034 196.47495 
z
" clip-path="url(#p48fd6e6e35)" style="fill: #1f77b4; stroke: #000000; stroke-linejoin: miter"/>
   </g>
   <g id="patch_97">
    <path d="M 211.338428 277.478125 
L 212.937822 277.478125 
L 212.937822 216.725744 
L 211.338428 216.725744 
z
" clip-path="url(#p48fd6e6e35)" style="fill: #1f77b4; stroke: #000000; stroke-linejoin: miter"/>
   </g>
   <g id="patch_98">
    <path d="M 212.937822 277.478125 
L 214.537216 277.478125 
L 214.537216 176.224157 
L 212.937822 176.224157 
z
" clip-path="url(#p48fd6e6e35)" style="fill: #1f77b4; stroke: #000000; stroke-linejoin: miter"/>
   </g>
   <g id="patch_99">
    <path d="M 214.537216 277.478125 
L 216.13661 277.478125 
L 216.13661 196.47495 
L 214.537216 196.47495 
z
" clip-path="url(#p48fd6e6e35)" style="fill: #1f77b4; stroke: #000000; stroke-linejoin: miter"/>
   </g>
   <g id="patch_100">
    <path d="M 216.13661 277.478125 
L 217.736004 277.478125 
L 217.736004 216.725744 
L 216.13661 216.725744 
z
" clip-path="url(#p48fd6e6e35)" style="fill: #1f77b4; stroke: #000000; stroke-linejoin: miter"/>
   </g>
   <g id="patch_101">
    <path d="M 217.736004 277.478125 
L 219.335398 277.478125 
L 219.335398 216.725744 
L 217.736004 216.725744 
z
" clip-path="url(#p48fd6e6e35)" style="fill: #1f77b4; stroke: #000000; stroke-linejoin: miter"/>
   </g>
   <g id="patch_102">
    <path d="M 219.335398 277.478125 
L 220.934792 277.478125 
L 220.934792 216.725744 
L 219.335398 216.725744 
z
" clip-path="url(#p48fd6e6e35)" style="fill: #1f77b4; stroke: #000000; stroke-linejoin: miter"/>
   </g>
   <g id="patch_103">
    <path d="M 220.934792 277.478125 
L 222.534186 277.478125 
L 222.534186 115.471776 
L 220.934792 115.471776 
z
" clip-path="url(#p48fd6e6e35)" style="fill: #1f77b4; stroke: #000000; stroke-linejoin: miter"/>
   </g>
   <g id="patch_104">
    <path d="M 222.534186 277.478125 
L 224.13358 277.478125 
L 224.13358 196.47495 
L 222.534186 196.47495 
z
" clip-path="url(#p48fd6e6e35)" style="fill: #1f77b4; stroke: #000000; stroke-linejoin: miter"/>
   </g>
   <g id="patch_105">
    <path d="M 224.13358 277.478125 
L 225.732973 277.478125 
L 225.732973 74.970188 
L 224.13358 74.970188 
z
" clip-path="url(#p48fd6e6e35)" style="fill: #1f77b4; stroke: #000000; stroke-linejoin: miter"/>
   </g>
   <g id="patch_106">
    <path d="M 225.732973 277.478125 
L 227.332367 277.478125 
L 227.332367 176.224157 
L 225.732973 176.224157 
z
" clip-path="url(#p48fd6e6e35)" style="fill: #1f77b4; stroke: #000000; stroke-linejoin: miter"/>
   </g>
   <g id="patch_107">
    <path d="M 227.332367 277.478125 
L 228.931761 277.478125 
L 228.931761 176.224157 
L 227.332367 176.224157 
z
" clip-path="url(#p48fd6e6e35)" style="fill: #1f77b4; stroke: #000000; stroke-linejoin: miter"/>
   </g>
   <g id="patch_108">
    <path d="M 228.931761 277.478125 
L 230.531155 277.478125 
L 230.531155 236.976538 
L 228.931761 236.976538 
z
" clip-path="url(#p48fd6e6e35)" style="fill: #1f77b4; stroke: #000000; stroke-linejoin: miter"/>
   </g>
   <g id="patch_109">
    <path d="M 230.531155 277.478125 
L 232.130549 277.478125 
L 232.130549 155.973363 
L 230.531155 155.973363 
z
" clip-path="url(#p48fd6e6e35)" style="fill: #1f77b4; stroke: #000000; stroke-linejoin: miter"/>
   </g>
   <g id="patch_110">
    <path d="M 232.130549 277.478125 
L 233.729943 277.478125 
L 233.729943 176.224157 
L 232.130549 176.224157 
z
" clip-path="url(#p48fd6e6e35)" style="fill: #1f77b4; stroke: #000000; stroke-linejoin: miter"/>
   </g>
   <g id="patch_111">
    <path d="M 233.729943 277.478125 
L 235.329337 277.478125 
L 235.329337 216.725744 
L 233.729943 216.725744 
z
" clip-path="url(#p48fd6e6e35)" style="fill: #1f77b4; stroke: #000000; stroke-linejoin: miter"/>
   </g>
   <g id="patch_112">
    <path d="M 235.329337 277.478125 
L 236.928731 277.478125 
L 236.928731 115.471776 
L 235.329337 115.471776 
z
" clip-path="url(#p48fd6e6e35)" style="fill: #1f77b4; stroke: #000000; stroke-linejoin: miter"/>
   </g>
   <g id="patch_113">
    <path d="M 236.928731 277.478125 
L 238.528125 277.478125 
L 238.528125 176.224157 
L 236.928731 176.224157 
z
" clip-path="url(#p48fd6e6e35)" style="fill: #1f77b4; stroke: #000000; stroke-linejoin: miter"/>
   </g>
   <g id="patch_114">
    <path d="M 238.528125 277.478125 
L 240.127519 277.478125 
L 240.127519 277.478125 
L 238.528125 277.478125 
z
" clip-path="url(#p48fd6e6e35)" style="fill: #1f77b4; stroke: #000000; stroke-linejoin: miter"/>
   </g>
   <g id="patch_115">
    <path d="M 240.127519 277.478125 
L 241.726913 277.478125 
L 241.726913 257.227331 
L 240.127519 257.227331 
z
" clip-path="url(#p48fd6e6e35)" style="fill: #1f77b4; stroke: #000000; stroke-linejoin: miter"/>
   </g>
   <g id="patch_116">
    <path d="M 241.726913 277.478125 
L 243.326307 277.478125 
L 243.326307 236.976538 
L 241.726913 236.976538 
z
" clip-path="url(#p48fd6e6e35)" style="fill: #1f77b4; stroke: #000000; stroke-linejoin: miter"/>
   </g>
   <g id="patch_117">
    <path d="M 243.326307 277.478125 
L 244.925701 277.478125 
L 244.925701 196.47495 
L 243.326307 196.47495 
z
" clip-path="url(#p48fd6e6e35)" style="fill: #1f77b4; stroke: #000000; stroke-linejoin: miter"/>
   </g>
   <g id="patch_118">
    <path d="M 244.925701 277.478125 
L 246.525095 277.478125 
L 246.525095 176.224157 
L 244.925701 176.224157 
z
" clip-path="url(#p48fd6e6e35)" style="fill: #1f77b4; stroke: #000000; stroke-linejoin: miter"/>
   </g>
   <g id="patch_119">
    <path d="M 246.525095 277.478125 
L 248.124489 277.478125 
L 248.124489 135.722569 
L 246.525095 135.722569 
z
" clip-path="url(#p48fd6e6e35)" style="fill: #1f77b4; stroke: #000000; stroke-linejoin: miter"/>
   </g>
   <g id="patch_120">
    <path d="M 248.124489 277.478125 
L 249.723883 277.478125 
L 249.723883 115.471776 
L 248.124489 115.471776 
z
" clip-path="url(#p48fd6e6e35)" style="fill: #1f77b4; stroke: #000000; stroke-linejoin: miter"/>
   </g>
   <g id="patch_121">
    <path d="M 249.723883 277.478125 
L 251.323277 277.478125 
L 251.323277 216.725744 
L 249.723883 216.725744 
z
" clip-path="url(#p48fd6e6e35)" style="fill: #1f77b4; stroke: #000000; stroke-linejoin: miter"/>
   </g>
   <g id="patch_122">
    <path d="M 251.323277 277.478125 
L 252.92267 277.478125 
L 252.92267 216.725744 
L 251.323277 216.725744 
z
" clip-path="url(#p48fd6e6e35)" style="fill: #1f77b4; stroke: #000000; stroke-linejoin: miter"/>
   </g>
   <g id="patch_123">
    <path d="M 252.92267 277.478125 
L 254.522064 277.478125 
L 254.522064 216.725744 
L 252.92267 216.725744 
z
" clip-path="url(#p48fd6e6e35)" style="fill: #1f77b4; stroke: #000000; stroke-linejoin: miter"/>
   </g>
   <g id="patch_124">
    <path d="M 254.522064 277.478125 
L 256.121458 277.478125 
L 256.121458 257.227331 
L 254.522064 257.227331 
z
" clip-path="url(#p48fd6e6e35)" style="fill: #1f77b4; stroke: #000000; stroke-linejoin: miter"/>
   </g>
   <g id="patch_125">
    <path d="M 256.121458 277.478125 
L 257.720852 277.478125 
L 257.720852 196.47495 
L 256.121458 196.47495 
z
" clip-path="url(#p48fd6e6e35)" style="fill: #1f77b4; stroke: #000000; stroke-linejoin: miter"/>
   </g>
   <g id="patch_126">
    <path d="M 257.720852 277.478125 
L 259.320246 277.478125 
L 259.320246 176.224157 
L 257.720852 176.224157 
z
" clip-path="url(#p48fd6e6e35)" style="fill: #1f77b4; stroke: #000000; stroke-linejoin: miter"/>
   </g>
   <g id="patch_127">
    <path d="M 259.320246 277.478125 
L 260.91964 277.478125 
L 260.91964 155.973363 
L 259.320246 155.973363 
z
" clip-path="url(#p48fd6e6e35)" style="fill: #1f77b4; stroke: #000000; stroke-linejoin: miter"/>
   </g>
   <g id="patch_128">
    <path d="M 260.91964 277.478125 
L 262.519034 277.478125 
L 262.519034 176.224157 
L 260.91964 176.224157 
z
" clip-path="url(#p48fd6e6e35)" style="fill: #1f77b4; stroke: #000000; stroke-linejoin: miter"/>
   </g>
   <g id="patch_129">
    <path d="M 262.519034 277.478125 
L 264.118428 277.478125 
L 264.118428 196.47495 
L 262.519034 196.47495 
z
" clip-path="url(#p48fd6e6e35)" style="fill: #1f77b4; stroke: #000000; stroke-linejoin: miter"/>
   </g>
   <g id="patch_130">
    <path d="M 264.118428 277.478125 
L 265.717822 277.478125 
L 265.717822 196.47495 
L 264.118428 196.47495 
z
" clip-path="url(#p48fd6e6e35)" style="fill: #1f77b4; stroke: #000000; stroke-linejoin: miter"/>
   </g>
   <g id="patch_131">
    <path d="M 265.717822 277.478125 
L 267.317216 277.478125 
L 267.317216 236.976538 
L 265.717822 236.976538 
z
" clip-path="url(#p48fd6e6e35)" style="fill: #1f77b4; stroke: #000000; stroke-linejoin: miter"/>
   </g>
   <g id="patch_132">
    <path d="M 267.317216 277.478125 
L 268.91661 277.478125 
L 268.91661 196.47495 
L 267.317216 196.47495 
z
" clip-path="url(#p48fd6e6e35)" style="fill: #1f77b4; stroke: #000000; stroke-linejoin: miter"/>
   </g>
   <g id="patch_133">
    <path d="M 268.91661 277.478125 
L 270.516004 277.478125 
L 270.516004 236.976538 
L 268.91661 236.976538 
z
" clip-path="url(#p48fd6e6e35)" style="fill: #1f77b4; stroke: #000000; stroke-linejoin: miter"/>
   </g>
   <g id="patch_134">
    <path d="M 270.516004 277.478125 
L 272.115398 277.478125 
L 272.115398 257.227331 
L 270.516004 257.227331 
z
" clip-path="url(#p48fd6e6e35)" style="fill: #1f77b4; stroke: #000000; stroke-linejoin: miter"/>
   </g>
   <g id="patch_135">
    <path d="M 272.115398 277.478125 
L 273.714792 277.478125 
L 273.714792 236.976538 
L 272.115398 236.976538 
z
" clip-path="url(#p48fd6e6e35)" style="fill: #1f77b4; stroke: #000000; stroke-linejoin: miter"/>
   </g>
   <g id="patch_136">
    <path d="M 273.714792 277.478125 
L 275.314186 277.478125 
L 275.314186 196.47495 
L 273.714792 196.47495 
z
" clip-path="url(#p48fd6e6e35)" style="fill: #1f77b4; stroke: #000000; stroke-linejoin: miter"/>
   </g>
   <g id="patch_137">
    <path d="M 275.314186 277.478125 
L 276.91358 277.478125 
L 276.91358 196.47495 
L 275.314186 196.47495 
z
" clip-path="url(#p48fd6e6e35)" style="fill: #1f77b4; stroke: #000000; stroke-linejoin: miter"/>
   </g>
   <g id="patch_138">
    <path d="M 276.91358 277.478125 
L 278.512973 277.478125 
L 278.512973 236.976538 
L 276.91358 236.976538 
z
" clip-path="url(#p48fd6e6e35)" style="fill: #1f77b4; stroke: #000000; stroke-linejoin: miter"/>
   </g>
   <g id="patch_139">
    <path d="M 278.512973 277.478125 
L 280.112367 277.478125 
L 280.112367 176.224157 
L 278.512973 176.224157 
z
" clip-path="url(#p48fd6e6e35)" style="fill: #1f77b4; stroke: #000000; stroke-linejoin: miter"/>
   </g>
   <g id="patch_140">
    <path d="M 280.112367 277.478125 
L 281.711761 277.478125 
L 281.711761 216.725744 
L 280.112367 216.725744 
z
" clip-path="url(#p48fd6e6e35)" style="fill: #1f77b4; stroke: #000000; stroke-linejoin: miter"/>
   </g>
   <g id="patch_141">
    <path d="M 281.711761 277.478125 
L 283.311155 277.478125 
L 283.311155 257.227331 
L 281.711761 257.227331 
z
" clip-path="url(#p48fd6e6e35)" style="fill: #1f77b4; stroke: #000000; stroke-linejoin: miter"/>
   </g>
   <g id="patch_142">
    <path d="M 283.311155 277.478125 
L 284.910549 277.478125 
L 284.910549 236.976538 
L 283.311155 236.976538 
z
" clip-path="url(#p48fd6e6e35)" style="fill: #1f77b4; stroke: #000000; stroke-linejoin: miter"/>
   </g>
   <g id="patch_143">
    <path d="M 284.910549 277.478125 
L 286.509943 277.478125 
L 286.509943 216.725744 
L 284.910549 216.725744 
z
" clip-path="url(#p48fd6e6e35)" style="fill: #1f77b4; stroke: #000000; stroke-linejoin: miter"/>
   </g>
   <g id="patch_144">
    <path d="M 286.509943 277.478125 
L 288.109337 277.478125 
L 288.109337 216.725744 
L 286.509943 216.725744 
z
" clip-path="url(#p48fd6e6e35)" style="fill: #1f77b4; stroke: #000000; stroke-linejoin: miter"/>
   </g>
   <g id="patch_145">
    <path d="M 288.109337 277.478125 
L 289.708731 277.478125 
L 289.708731 196.47495 
L 288.109337 196.47495 
z
" clip-path="url(#p48fd6e6e35)" style="fill: #1f77b4; stroke: #000000; stroke-linejoin: miter"/>
   </g>
   <g id="patch_146">
    <path d="M 289.708731 277.478125 
L 291.308125 277.478125 
L 291.308125 277.478125 
L 289.708731 277.478125 
z
" clip-path="url(#p48fd6e6e35)" style="fill: #1f77b4; stroke: #000000; stroke-linejoin: miter"/>
   </g>
   <g id="patch_147">
    <path d="M 291.308125 277.478125 
L 292.907519 277.478125 
L 292.907519 216.725744 
L 291.308125 216.725744 
z
" clip-path="url(#p48fd6e6e35)" style="fill: #1f77b4; stroke: #000000; stroke-linejoin: miter"/>
   </g>
   <g id="patch_148">
    <path d="M 292.907519 277.478125 
L 294.506913 277.478125 
L 294.506913 257.227331 
L 292.907519 257.227331 
z
" clip-path="url(#p48fd6e6e35)" style="fill: #1f77b4; stroke: #000000; stroke-linejoin: miter"/>
   </g>
   <g id="patch_149">
    <path d="M 294.506913 277.478125 
L 296.106307 277.478125 
L 296.106307 236.976538 
L 294.506913 236.976538 
z
" clip-path="url(#p48fd6e6e35)" style="fill: #1f77b4; stroke: #000000; stroke-linejoin: miter"/>
   </g>
   <g id="patch_150">
    <path d="M 296.106307 277.478125 
L 297.705701 277.478125 
L 297.705701 257.227331 
L 296.106307 257.227331 
z
" clip-path="url(#p48fd6e6e35)" style="fill: #1f77b4; stroke: #000000; stroke-linejoin: miter"/>
   </g>
   <g id="patch_151">
    <path d="M 297.705701 277.478125 
L 299.305095 277.478125 
L 299.305095 236.976538 
L 297.705701 236.976538 
z
" clip-path="url(#p48fd6e6e35)" style="fill: #1f77b4; stroke: #000000; stroke-linejoin: miter"/>
   </g>
   <g id="patch_152">
    <path d="M 299.305095 277.478125 
L 300.904489 277.478125 
L 300.904489 216.725744 
L 299.305095 216.725744 
z
" clip-path="url(#p48fd6e6e35)" style="fill: #1f77b4; stroke: #000000; stroke-linejoin: miter"/>
   </g>
   <g id="patch_153">
    <path d="M 300.904489 277.478125 
L 302.503883 277.478125 
L 302.503883 277.478125 
L 300.904489 277.478125 
z
" clip-path="url(#p48fd6e6e35)" style="fill: #1f77b4; stroke: #000000; stroke-linejoin: miter"/>
   </g>
   <g id="patch_154">
    <path d="M 302.503883 277.478125 
L 304.103277 277.478125 
L 304.103277 236.976538 
L 302.503883 236.976538 
z
" clip-path="url(#p48fd6e6e35)" style="fill: #1f77b4; stroke: #000000; stroke-linejoin: miter"/>
   </g>
   <g id="patch_155">
    <path d="M 304.103277 277.478125 
L 305.70267 277.478125 
L 305.70267 257.227331 
L 304.103277 257.227331 
z
" clip-path="url(#p48fd6e6e35)" style="fill: #1f77b4; stroke: #000000; stroke-linejoin: miter"/>
   </g>
   <g id="patch_156">
    <path d="M 305.70267 277.478125 
L 307.302064 277.478125 
L 307.302064 257.227331 
L 305.70267 257.227331 
z
" clip-path="url(#p48fd6e6e35)" style="fill: #1f77b4; stroke: #000000; stroke-linejoin: miter"/>
   </g>
   <g id="patch_157">
    <path d="M 307.302064 277.478125 
L 308.901458 277.478125 
L 308.901458 257.227331 
L 307.302064 257.227331 
z
" clip-path="url(#p48fd6e6e35)" style="fill: #1f77b4; stroke: #000000; stroke-linejoin: miter"/>
   </g>
   <g id="patch_158">
    <path d="M 308.901458 277.478125 
L 310.500852 277.478125 
L 310.500852 236.976538 
L 308.901458 236.976538 
z
" clip-path="url(#p48fd6e6e35)" style="fill: #1f77b4; stroke: #000000; stroke-linejoin: miter"/>
   </g>
   <g id="patch_159">
    <path d="M 310.500852 277.478125 
L 312.100246 277.478125 
L 312.100246 236.976538 
L 310.500852 236.976538 
z
" clip-path="url(#p48fd6e6e35)" style="fill: #1f77b4; stroke: #000000; stroke-linejoin: miter"/>
   </g>
   <g id="patch_160">
    <path d="M 312.100246 277.478125 
L 313.69964 277.478125 
L 313.69964 236.976538 
L 312.100246 236.976538 
z
" clip-path="url(#p48fd6e6e35)" style="fill: #1f77b4; stroke: #000000; stroke-linejoin: miter"/>
   </g>
   <g id="patch_161">
    <path d="M 313.69964 277.478125 
L 315.299034 277.478125 
L 315.299034 277.478125 
L 313.69964 277.478125 
z
" clip-path="url(#p48fd6e6e35)" style="fill: #1f77b4; stroke: #000000; stroke-linejoin: miter"/>
   </g>
   <g id="patch_162">
    <path d="M 315.299034 277.478125 
L 316.898428 277.478125 
L 316.898428 277.478125 
L 315.299034 277.478125 
z
" clip-path="url(#p48fd6e6e35)" style="fill: #1f77b4; stroke: #000000; stroke-linejoin: miter"/>
   </g>
   <g id="patch_163">
    <path d="M 316.898428 277.478125 
L 318.497822 277.478125 
L 318.497822 236.976538 
L 316.898428 236.976538 
z
" clip-path="url(#p48fd6e6e35)" style="fill: #1f77b4; stroke: #000000; stroke-linejoin: miter"/>
   </g>
   <g id="patch_164">
    <path d="M 318.497822 277.478125 
L 320.097216 277.478125 
L 320.097216 216.725744 
L 318.497822 216.725744 
z
" clip-path="url(#p48fd6e6e35)" style="fill: #1f77b4; stroke: #000000; stroke-linejoin: miter"/>
   </g>
   <g id="patch_165">
    <path d="M 320.097216 277.478125 
L 321.69661 277.478125 
L 321.69661 196.47495 
L 320.097216 196.47495 
z
" clip-path="url(#p48fd6e6e35)" style="fill: #1f77b4; stroke: #000000; stroke-linejoin: miter"/>
   </g>
   <g id="patch_166">
    <path d="M 321.69661 277.478125 
L 323.296004 277.478125 
L 323.296004 257.227331 
L 321.69661 257.227331 
z
" clip-path="url(#p48fd6e6e35)" style="fill: #1f77b4; stroke: #000000; stroke-linejoin: miter"/>
   </g>
   <g id="patch_167">
    <path d="M 323.296004 277.478125 
L 324.895398 277.478125 
L 324.895398 236.976538 
L 323.296004 236.976538 
z
" clip-path="url(#p48fd6e6e35)" style="fill: #1f77b4; stroke: #000000; stroke-linejoin: miter"/>
   </g>
   <g id="patch_168">
    <path d="M 324.895398 277.478125 
L 326.494792 277.478125 
L 326.494792 257.227331 
L 324.895398 257.227331 
z
" clip-path="url(#p48fd6e6e35)" style="fill: #1f77b4; stroke: #000000; stroke-linejoin: miter"/>
   </g>
   <g id="patch_169">
    <path d="M 326.494792 277.478125 
L 328.094186 277.478125 
L 328.094186 277.478125 
L 326.494792 277.478125 
z
" clip-path="url(#p48fd6e6e35)" style="fill: #1f77b4; stroke: #000000; stroke-linejoin: miter"/>
   </g>
   <g id="patch_170">
    <path d="M 328.094186 277.478125 
L 329.69358 277.478125 
L 329.69358 236.976538 
L 328.094186 236.976538 
z
" clip-path="url(#p48fd6e6e35)" style="fill: #1f77b4; stroke: #000000; stroke-linejoin: miter"/>
   </g>
   <g id="patch_171">
    <path d="M 329.69358 277.478125 
L 331.292973 277.478125 
L 331.292973 277.478125 
L 329.69358 277.478125 
z
" clip-path="url(#p48fd6e6e35)" style="fill: #1f77b4; stroke: #000000; stroke-linejoin: miter"/>
   </g>
   <g id="patch_172">
    <path d="M 331.292973 277.478125 
L 332.892367 277.478125 
L 332.892367 277.478125 
L 331.292973 277.478125 
z
" clip-path="url(#p48fd6e6e35)" style="fill: #1f77b4; stroke: #000000; stroke-linejoin: miter"/>
   </g>
   <g id="patch_173">
    <path d="M 332.892367 277.478125 
L 334.491761 277.478125 
L 334.491761 277.478125 
L 332.892367 277.478125 
z
" clip-path="url(#p48fd6e6e35)" style="fill: #1f77b4; stroke: #000000; stroke-linejoin: miter"/>
   </g>
   <g id="patch_174">
    <path d="M 334.491761 277.478125 
L 336.091155 277.478125 
L 336.091155 257.227331 
L 334.491761 257.227331 
z
" clip-path="url(#p48fd6e6e35)" style="fill: #1f77b4; stroke: #000000; stroke-linejoin: miter"/>
   </g>
   <g id="patch_175">
    <path d="M 336.091155 277.478125 
L 337.690549 277.478125 
L 337.690549 277.478125 
L 336.091155 277.478125 
z
" clip-path="url(#p48fd6e6e35)" style="fill: #1f77b4; stroke: #000000; stroke-linejoin: miter"/>
   </g>
   <g id="patch_176">
    <path d="M 337.690549 277.478125 
L 339.289943 277.478125 
L 339.289943 216.725744 
L 337.690549 216.725744 
z
" clip-path="url(#p48fd6e6e35)" style="fill: #1f77b4; stroke: #000000; stroke-linejoin: miter"/>
   </g>
   <g id="patch_177">
    <path d="M 339.289943 277.478125 
L 340.889337 277.478125 
L 340.889337 216.725744 
L 339.289943 216.725744 
z
" clip-path="url(#p48fd6e6e35)" style="fill: #1f77b4; stroke: #000000; stroke-linejoin: miter"/>
   </g>
   <g id="patch_178">
    <path d="M 340.889337 277.478125 
L 342.488731 277.478125 
L 342.488731 257.227331 
L 340.889337 257.227331 
z
" clip-path="url(#p48fd6e6e35)" style="fill: #1f77b4; stroke: #000000; stroke-linejoin: miter"/>
   </g>
   <g id="patch_179">
    <path d="M 342.488731 277.478125 
L 344.088125 277.478125 
L 344.088125 277.478125 
L 342.488731 277.478125 
z
" clip-path="url(#p48fd6e6e35)" style="fill: #1f77b4; stroke: #000000; stroke-linejoin: miter"/>
   </g>
   <g id="patch_180">
    <path d="M 344.088125 277.478125 
L 345.687519 277.478125 
L 345.687519 277.478125 
L 344.088125 277.478125 
z
" clip-path="url(#p48fd6e6e35)" style="fill: #1f77b4; stroke: #000000; stroke-linejoin: miter"/>
   </g>
   <g id="patch_181">
    <path d="M 345.687519 277.478125 
L 347.286913 277.478125 
L 347.286913 236.976538 
L 345.687519 236.976538 
z
" clip-path="url(#p48fd6e6e35)" style="fill: #1f77b4; stroke: #000000; stroke-linejoin: miter"/>
   </g>
   <g id="patch_182">
    <path d="M 347.286913 277.478125 
L 348.886307 277.478125 
L 348.886307 277.478125 
L 347.286913 277.478125 
z
" clip-path="url(#p48fd6e6e35)" style="fill: #1f77b4; stroke: #000000; stroke-linejoin: miter"/>
   </g>
   <g id="patch_183">
    <path d="M 348.886307 277.478125 
L 350.485701 277.478125 
L 350.485701 257.227331 
L 348.886307 257.227331 
z
" clip-path="url(#p48fd6e6e35)" style="fill: #1f77b4; stroke: #000000; stroke-linejoin: miter"/>
   </g>
   <g id="patch_184">
    <path d="M 350.485701 277.478125 
L 352.085095 277.478125 
L 352.085095 236.976538 
L 350.485701 236.976538 
z
" clip-path="url(#p48fd6e6e35)" style="fill: #1f77b4; stroke: #000000; stroke-linejoin: miter"/>
   </g>
   <g id="patch_185">
    <path d="M 352.085095 277.478125 
L 353.684489 277.478125 
L 353.684489 277.478125 
L 352.085095 277.478125 
z
" clip-path="url(#p48fd6e6e35)" style="fill: #1f77b4; stroke: #000000; stroke-linejoin: miter"/>
   </g>
   <g id="patch_186">
    <path d="M 353.684489 277.478125 
L 355.283883 277.478125 
L 355.283883 277.478125 
L 353.684489 277.478125 
z
" clip-path="url(#p48fd6e6e35)" style="fill: #1f77b4; stroke: #000000; stroke-linejoin: miter"/>
   </g>
   <g id="patch_187">
    <path d="M 355.283883 277.478125 
L 356.883277 277.478125 
L 356.883277 277.478125 
L 355.283883 277.478125 
z
" clip-path="url(#p48fd6e6e35)" style="fill: #1f77b4; stroke: #000000; stroke-linejoin: miter"/>
   </g>
   <g id="patch_188">
    <path d="M 356.883277 277.478125 
L 358.48267 277.478125 
L 358.48267 257.227331 
L 356.883277 257.227331 
z
" clip-path="url(#p48fd6e6e35)" style="fill: #1f77b4; stroke: #000000; stroke-linejoin: miter"/>
   </g>
   <g id="patch_189">
    <path d="M 358.48267 277.478125 
L 360.082064 277.478125 
L 360.082064 257.227331 
L 358.48267 257.227331 
z
" clip-path="url(#p48fd6e6e35)" style="fill: #1f77b4; stroke: #000000; stroke-linejoin: miter"/>
   </g>
   <g id="patch_190">
    <path d="M 360.082064 277.478125 
L 361.681458 277.478125 
L 361.681458 257.227331 
L 360.082064 257.227331 
z
" clip-path="url(#p48fd6e6e35)" style="fill: #1f77b4; stroke: #000000; stroke-linejoin: miter"/>
   </g>
   <g id="patch_191">
    <path d="M 361.681458 277.478125 
L 363.280852 277.478125 
L 363.280852 257.227331 
L 361.681458 257.227331 
z
" clip-path="url(#p48fd6e6e35)" style="fill: #1f77b4; stroke: #000000; stroke-linejoin: miter"/>
   </g>
   <g id="patch_192">
    <path d="M 363.280852 277.478125 
L 364.880246 277.478125 
L 364.880246 257.227331 
L 363.280852 257.227331 
z
" clip-path="url(#p48fd6e6e35)" style="fill: #1f77b4; stroke: #000000; stroke-linejoin: miter"/>
   </g>
   <g id="patch_193">
    <path d="M 364.880246 277.478125 
L 366.47964 277.478125 
L 366.47964 277.478125 
L 364.880246 277.478125 
z
" clip-path="url(#p48fd6e6e35)" style="fill: #1f77b4; stroke: #000000; stroke-linejoin: miter"/>
   </g>
   <g id="patch_194">
    <path d="M 366.47964 277.478125 
L 368.079034 277.478125 
L 368.079034 257.227331 
L 366.47964 257.227331 
z
" clip-path="url(#p48fd6e6e35)" style="fill: #1f77b4; stroke: #000000; stroke-linejoin: miter"/>
   </g>
   <g id="patch_195">
    <path d="M 368.079034 277.478125 
L 369.678428 277.478125 
L 369.678428 257.227331 
L 368.079034 257.227331 
z
" clip-path="url(#p48fd6e6e35)" style="fill: #1f77b4; stroke: #000000; stroke-linejoin: miter"/>
   </g>
   <g id="patch_196">
    <path d="M 369.678428 277.478125 
L 371.277822 277.478125 
L 371.277822 257.227331 
L 369.678428 257.227331 
z
" clip-path="url(#p48fd6e6e35)" style="fill: #1f77b4; stroke: #000000; stroke-linejoin: miter"/>
   </g>
   <g id="patch_197">
    <path d="M 371.277822 277.478125 
L 372.877216 277.478125 
L 372.877216 277.478125 
L 371.277822 277.478125 
z
" clip-path="url(#p48fd6e6e35)" style="fill: #1f77b4; stroke: #000000; stroke-linejoin: miter"/>
   </g>
   <g id="patch_198">
    <path d="M 372.877216 277.478125 
L 374.47661 277.478125 
L 374.47661 277.478125 
L 372.877216 277.478125 
z
" clip-path="url(#p48fd6e6e35)" style="fill: #1f77b4; stroke: #000000; stroke-linejoin: miter"/>
   </g>
   <g id="patch_199">
    <path d="M 374.47661 277.478125 
L 376.076004 277.478125 
L 376.076004 277.478125 
L 374.47661 277.478125 
z
" clip-path="url(#p48fd6e6e35)" style="fill: #1f77b4; stroke: #000000; stroke-linejoin: miter"/>
   </g>
   <g id="patch_200">
    <path d="M 376.076004 277.478125 
L 377.675398 277.478125 
L 377.675398 277.478125 
L 376.076004 277.478125 
z
" clip-path="url(#p48fd6e6e35)" style="fill: #1f77b4; stroke: #000000; stroke-linejoin: miter"/>
   </g>
   <g id="patch_201">
    <path d="M 377.675398 277.478125 
L 379.274792 277.478125 
L 379.274792 277.478125 
L 377.675398 277.478125 
z
" clip-path="url(#p48fd6e6e35)" style="fill: #1f77b4; stroke: #000000; stroke-linejoin: miter"/>
   </g>
   <g id="patch_202">
    <path d="M 379.274792 277.478125 
L 380.874186 277.478125 
L 380.874186 277.478125 
L 379.274792 277.478125 
z
" clip-path="url(#p48fd6e6e35)" style="fill: #1f77b4; stroke: #000000; stroke-linejoin: miter"/>
   </g>
   <g id="patch_203">
    <path d="M 380.874186 277.478125 
L 382.47358 277.478125 
L 382.47358 257.227331 
L 380.874186 257.227331 
z
" clip-path="url(#p48fd6e6e35)" style="fill: #1f77b4; stroke: #000000; stroke-linejoin: miter"/>
   </g>
   <g id="patch_204">
    <path d="M 382.47358 277.478125 
L 384.072973 277.478125 
L 384.072973 277.478125 
L 382.47358 277.478125 
z
" clip-path="url(#p48fd6e6e35)" style="fill: #1f77b4; stroke: #000000; stroke-linejoin: miter"/>
   </g>
   <g id="patch_205">
    <path d="M 384.072973 277.478125 
L 385.672367 277.478125 
L 385.672367 277.478125 
L 384.072973 277.478125 
z
" clip-path="url(#p48fd6e6e35)" style="fill: #1f77b4; stroke: #000000; stroke-linejoin: miter"/>
   </g>
   <g id="patch_206">
    <path d="M 385.672367 277.478125 
L 387.271761 277.478125 
L 387.271761 277.478125 
L 385.672367 277.478125 
z
" clip-path="url(#p48fd6e6e35)" style="fill: #1f77b4; stroke: #000000; stroke-linejoin: miter"/>
   </g>
   <g id="patch_207">
    <path d="M 387.271761 277.478125 
L 388.871155 277.478125 
L 388.871155 257.227331 
L 387.271761 257.227331 
z
" clip-path="url(#p48fd6e6e35)" style="fill: #1f77b4; stroke: #000000; stroke-linejoin: miter"/>
   </g>
   <g id="patch_208">
    <path d="M 388.871155 277.478125 
L 390.470549 277.478125 
L 390.470549 277.478125 
L 388.871155 277.478125 
z
" clip-path="url(#p48fd6e6e35)" style="fill: #1f77b4; stroke: #000000; stroke-linejoin: miter"/>
   </g>
   <g id="patch_209">
    <path d="M 390.470549 277.478125 
L 392.069943 277.478125 
L 392.069943 277.478125 
L 390.470549 277.478125 
z
" clip-path="url(#p48fd6e6e35)" style="fill: #1f77b4; stroke: #000000; stroke-linejoin: miter"/>
   </g>
   <g id="patch_210">
    <path d="M 392.069943 277.478125 
L 393.669337 277.478125 
L 393.669337 277.478125 
L 392.069943 277.478125 
z
" clip-path="url(#p48fd6e6e35)" style="fill: #1f77b4; stroke: #000000; stroke-linejoin: miter"/>
   </g>
   <g id="patch_211">
    <path d="M 393.669337 277.478125 
L 395.268731 277.478125 
L 395.268731 277.478125 
L 393.669337 277.478125 
z
" clip-path="url(#p48fd6e6e35)" style="fill: #1f77b4; stroke: #000000; stroke-linejoin: miter"/>
   </g>
   <g id="patch_212">
    <path d="M 395.268731 277.478125 
L 396.868125 277.478125 
L 396.868125 277.478125 
L 395.268731 277.478125 
z
" clip-path="url(#p48fd6e6e35)" style="fill: #1f77b4; stroke: #000000; stroke-linejoin: miter"/>
   </g>
   <g id="patch_213">
    <path d="M 396.868125 277.478125 
L 398.467519 277.478125 
L 398.467519 277.478125 
L 396.868125 277.478125 
z
" clip-path="url(#p48fd6e6e35)" style="fill: #1f77b4; stroke: #000000; stroke-linejoin: miter"/>
   </g>
   <g id="patch_214">
    <path d="M 398.467519 277.478125 
L 400.066913 277.478125 
L 400.066913 277.478125 
L 398.467519 277.478125 
z
" clip-path="url(#p48fd6e6e35)" style="fill: #1f77b4; stroke: #000000; stroke-linejoin: miter"/>
   </g>
   <g id="patch_215">
    <path d="M 400.066913 277.478125 
L 401.666307 277.478125 
L 401.666307 277.478125 
L 400.066913 277.478125 
z
" clip-path="url(#p48fd6e6e35)" style="fill: #1f77b4; stroke: #000000; stroke-linejoin: miter"/>
   </g>
   <g id="patch_216">
    <path d="M 401.666307 277.478125 
L 403.265701 277.478125 
L 403.265701 257.227331 
L 401.666307 257.227331 
z
" clip-path="url(#p48fd6e6e35)" style="fill: #1f77b4; stroke: #000000; stroke-linejoin: miter"/>
   </g>
   <g id="patch_217">
    <path d="M 403.265701 277.478125 
L 404.865095 277.478125 
L 404.865095 277.478125 
L 403.265701 277.478125 
z
" clip-path="url(#p48fd6e6e35)" style="fill: #1f77b4; stroke: #000000; stroke-linejoin: miter"/>
   </g>
   <g id="patch_218">
    <path d="M 404.865095 277.478125 
L 406.464489 277.478125 
L 406.464489 277.478125 
L 404.865095 277.478125 
z
" clip-path="url(#p48fd6e6e35)" style="fill: #1f77b4; stroke: #000000; stroke-linejoin: miter"/>
   </g>
   <g id="patch_219">
    <path d="M 406.464489 277.478125 
L 408.063883 277.478125 
L 408.063883 277.478125 
L 406.464489 277.478125 
z
" clip-path="url(#p48fd6e6e35)" style="fill: #1f77b4; stroke: #000000; stroke-linejoin: miter"/>
   </g>
   <g id="patch_220">
    <path d="M 408.063883 277.478125 
L 409.663277 277.478125 
L 409.663277 277.478125 
L 408.063883 277.478125 
z
" clip-path="url(#p48fd6e6e35)" style="fill: #1f77b4; stroke: #000000; stroke-linejoin: miter"/>
   </g>
   <g id="patch_221">
    <path d="M 409.663277 277.478125 
L 411.26267 277.478125 
L 411.26267 277.478125 
L 409.663277 277.478125 
z
" clip-path="url(#p48fd6e6e35)" style="fill: #1f77b4; stroke: #000000; stroke-linejoin: miter"/>
   </g>
   <g id="patch_222">
    <path d="M 411.26267 277.478125 
L 412.862064 277.478125 
L 412.862064 277.478125 
L 411.26267 277.478125 
z
" clip-path="url(#p48fd6e6e35)" style="fill: #1f77b4; stroke: #000000; stroke-linejoin: miter"/>
   </g>
   <g id="patch_223">
    <path d="M 412.862064 277.478125 
L 414.461458 277.478125 
L 414.461458 277.478125 
L 412.862064 277.478125 
z
" clip-path="url(#p48fd6e6e35)" style="fill: #1f77b4; stroke: #000000; stroke-linejoin: miter"/>
   </g>
   <g id="patch_224">
    <path d="M 414.461458 277.478125 
L 416.060852 277.478125 
L 416.060852 277.478125 
L 414.461458 277.478125 
z
" clip-path="url(#p48fd6e6e35)" style="fill: #1f77b4; stroke: #000000; stroke-linejoin: miter"/>
   </g>
   <g id="patch_225">
    <path d="M 416.060852 277.478125 
L 417.660246 277.478125 
L 417.660246 277.478125 
L 416.060852 277.478125 
z
" clip-path="url(#p48fd6e6e35)" style="fill: #1f77b4; stroke: #000000; stroke-linejoin: miter"/>
   </g>
   <g id="patch_226">
    <path d="M 417.660246 277.478125 
L 419.25964 277.478125 
L 419.25964 277.478125 
L 417.660246 277.478125 
z
" clip-path="url(#p48fd6e6e35)" style="fill: #1f77b4; stroke: #000000; stroke-linejoin: miter"/>
   </g>
   <g id="patch_227">
    <path d="M 419.25964 277.478125 
L 420.859034 277.478125 
L 420.859034 277.478125 
L 419.25964 277.478125 
z
" clip-path="url(#p48fd6e6e35)" style="fill: #1f77b4; stroke: #000000; stroke-linejoin: miter"/>
   </g>
   <g id="patch_228">
    <path d="M 420.859034 277.478125 
L 422.458428 277.478125 
L 422.458428 277.478125 
L 420.859034 277.478125 
z
" clip-path="url(#p48fd6e6e35)" style="fill: #1f77b4; stroke: #000000; stroke-linejoin: miter"/>
   </g>
   <g id="patch_229">
    <path d="M 422.458428 277.478125 
L 424.057822 277.478125 
L 424.057822 277.478125 
L 422.458428 277.478125 
z
" clip-path="url(#p48fd6e6e35)" style="fill: #1f77b4; stroke: #000000; stroke-linejoin: miter"/>
   </g>
   <g id="patch_230">
    <path d="M 424.057822 277.478125 
L 425.657216 277.478125 
L 425.657216 277.478125 
L 424.057822 277.478125 
z
" clip-path="url(#p48fd6e6e35)" style="fill: #1f77b4; stroke: #000000; stroke-linejoin: miter"/>
   </g>
   <g id="patch_231">
    <path d="M 425.657216 277.478125 
L 427.25661 277.478125 
L 427.25661 257.227331 
L 425.657216 257.227331 
z
" clip-path="url(#p48fd6e6e35)" style="fill: #1f77b4; stroke: #000000; stroke-linejoin: miter"/>
   </g>
   <g id="patch_232">
    <path d="M 427.25661 277.478125 
L 428.856004 277.478125 
L 428.856004 277.478125 
L 427.25661 277.478125 
z
" clip-path="url(#p48fd6e6e35)" style="fill: #1f77b4; stroke: #000000; stroke-linejoin: miter"/>
   </g>
   <g id="patch_233">
    <path d="M 428.856004 277.478125 
L 430.455398 277.478125 
L 430.455398 277.478125 
L 428.856004 277.478125 
z
" clip-path="url(#p48fd6e6e35)" style="fill: #1f77b4; stroke: #000000; stroke-linejoin: miter"/>
   </g>
   <g id="patch_234">
    <path d="M 430.455398 277.478125 
L 432.054792 277.478125 
L 432.054792 257.227331 
L 430.455398 257.227331 
z
" clip-path="url(#p48fd6e6e35)" style="fill: #1f77b4; stroke: #000000; stroke-linejoin: miter"/>
   </g>
   <g id="patch_235">
    <path d="M 432.054792 277.478125 
L 433.654186 277.478125 
L 433.654186 277.478125 
L 432.054792 277.478125 
z
" clip-path="url(#p48fd6e6e35)" style="fill: #1f77b4; stroke: #000000; stroke-linejoin: miter"/>
   </g>
   <g id="patch_236">
    <path d="M 433.654186 277.478125 
L 435.25358 277.478125 
L 435.25358 277.478125 
L 433.654186 277.478125 
z
" clip-path="url(#p48fd6e6e35)" style="fill: #1f77b4; stroke: #000000; stroke-linejoin: miter"/>
   </g>
   <g id="patch_237">
    <path d="M 435.25358 277.478125 
L 436.852973 277.478125 
L 436.852973 277.478125 
L 435.25358 277.478125 
z
" clip-path="url(#p48fd6e6e35)" style="fill: #1f77b4; stroke: #000000; stroke-linejoin: miter"/>
   </g>
   <g id="patch_238">
    <path d="M 436.852973 277.478125 
L 438.452367 277.478125 
L 438.452367 277.478125 
L 436.852973 277.478125 
z
" clip-path="url(#p48fd6e6e35)" style="fill: #1f77b4; stroke: #000000; stroke-linejoin: miter"/>
   </g>
   <g id="patch_239">
    <path d="M 438.452367 277.478125 
L 440.051761 277.478125 
L 440.051761 277.478125 
L 438.452367 277.478125 
z
" clip-path="url(#p48fd6e6e35)" style="fill: #1f77b4; stroke: #000000; stroke-linejoin: miter"/>
   </g>
   <g id="patch_240">
    <path d="M 440.051761 277.478125 
L 441.651155 277.478125 
L 441.651155 277.478125 
L 440.051761 277.478125 
z
" clip-path="url(#p48fd6e6e35)" style="fill: #1f77b4; stroke: #000000; stroke-linejoin: miter"/>
   </g>
   <g id="patch_241">
    <path d="M 441.651155 277.478125 
L 443.250549 277.478125 
L 443.250549 277.478125 
L 441.651155 277.478125 
z
" clip-path="url(#p48fd6e6e35)" style="fill: #1f77b4; stroke: #000000; stroke-linejoin: miter"/>
   </g>
   <g id="patch_242">
    <path d="M 443.250549 277.478125 
L 444.849943 277.478125 
L 444.849943 277.478125 
L 443.250549 277.478125 
z
" clip-path="url(#p48fd6e6e35)" style="fill: #1f77b4; stroke: #000000; stroke-linejoin: miter"/>
   </g>
   <g id="patch_243">
    <path d="M 444.849943 277.478125 
L 446.449337 277.478125 
L 446.449337 277.478125 
L 444.849943 277.478125 
z
" clip-path="url(#p48fd6e6e35)" style="fill: #1f77b4; stroke: #000000; stroke-linejoin: miter"/>
   </g>
   <g id="patch_244">
    <path d="M 446.449337 277.478125 
L 448.048731 277.478125 
L 448.048731 277.478125 
L 446.449337 277.478125 
z
" clip-path="url(#p48fd6e6e35)" style="fill: #1f77b4; stroke: #000000; stroke-linejoin: miter"/>
   </g>
   <g id="patch_245">
    <path d="M 448.048731 277.478125 
L 449.648125 277.478125 
L 449.648125 277.478125 
L 448.048731 277.478125 
z
" clip-path="url(#p48fd6e6e35)" style="fill: #1f77b4; stroke: #000000; stroke-linejoin: miter"/>
   </g>
   <g id="patch_246">
    <path d="M 449.648125 277.478125 
L 451.247519 277.478125 
L 451.247519 277.478125 
L 449.648125 277.478125 
z
" clip-path="url(#p48fd6e6e35)" style="fill: #1f77b4; stroke: #000000; stroke-linejoin: miter"/>
   </g>
   <g id="patch_247">
    <path d="M 451.247519 277.478125 
L 452.846913 277.478125 
L 452.846913 277.478125 
L 451.247519 277.478125 
z
" clip-path="url(#p48fd6e6e35)" style="fill: #1f77b4; stroke: #000000; stroke-linejoin: miter"/>
   </g>
   <g id="patch_248">
    <path d="M 452.846913 277.478125 
L 454.446307 277.478125 
L 454.446307 277.478125 
L 452.846913 277.478125 
z
" clip-path="url(#p48fd6e6e35)" style="fill: #1f77b4; stroke: #000000; stroke-linejoin: miter"/>
   </g>
   <g id="patch_249">
    <path d="M 454.446307 277.478125 
L 456.045701 277.478125 
L 456.045701 277.478125 
L 454.446307 277.478125 
z
" clip-path="url(#p48fd6e6e35)" style="fill: #1f77b4; stroke: #000000; stroke-linejoin: miter"/>
   </g>
   <g id="patch_250">
    <path d="M 456.045701 277.478125 
L 457.645095 277.478125 
L 457.645095 277.478125 
L 456.045701 277.478125 
z
" clip-path="url(#p48fd6e6e35)" style="fill: #1f77b4; stroke: #000000; stroke-linejoin: miter"/>
   </g>
   <g id="patch_251">
    <path d="M 457.645095 277.478125 
L 459.244489 277.478125 
L 459.244489 277.478125 
L 457.645095 277.478125 
z
" clip-path="url(#p48fd6e6e35)" style="fill: #1f77b4; stroke: #000000; stroke-linejoin: miter"/>
   </g>
   <g id="patch_252">
    <path d="M 459.244489 277.478125 
L 460.843883 277.478125 
L 460.843883 277.478125 
L 459.244489 277.478125 
z
" clip-path="url(#p48fd6e6e35)" style="fill: #1f77b4; stroke: #000000; stroke-linejoin: miter"/>
   </g>
   <g id="patch_253">
    <path d="M 460.843883 277.478125 
L 462.443277 277.478125 
L 462.443277 277.478125 
L 460.843883 277.478125 
z
" clip-path="url(#p48fd6e6e35)" style="fill: #1f77b4; stroke: #000000; stroke-linejoin: miter"/>
   </g>
   <g id="patch_254">
    <path d="M 462.443277 277.478125 
L 464.04267 277.478125 
L 464.04267 277.478125 
L 462.443277 277.478125 
z
" clip-path="url(#p48fd6e6e35)" style="fill: #1f77b4; stroke: #000000; stroke-linejoin: miter"/>
   </g>
   <g id="patch_255">
    <path d="M 464.04267 277.478125 
L 465.642064 277.478125 
L 465.642064 277.478125 
L 464.04267 277.478125 
z
" clip-path="url(#p48fd6e6e35)" style="fill: #1f77b4; stroke: #000000; stroke-linejoin: miter"/>
   </g>
   <g id="patch_256">
    <path d="M 465.642064 277.478125 
L 467.241458 277.478125 
L 467.241458 257.227331 
L 465.642064 257.227331 
z
" clip-path="url(#p48fd6e6e35)" style="fill: #1f77b4; stroke: #000000; stroke-linejoin: miter"/>
   </g>
   <g id="patch_257">
    <path d="M 467.241458 277.478125 
L 468.840852 277.478125 
L 468.840852 257.227331 
L 467.241458 257.227331 
z
" clip-path="url(#p48fd6e6e35)" style="fill: #1f77b4; stroke: #000000; stroke-linejoin: miter"/>
   </g>
   <g id="matplotlib.axis_1">
    <g id="xtick_1">
     <g id="line2d_1">
      <defs>
       <path id="m47c4ded3a1" d="M 0 0 
L 0 3.5 
" style="stroke: #000000; stroke-width: 0.8"/>
      </defs>
      <g>
       <use xlink:href="#m47c4ded3a1" x="60.195701" y="277.478125" style="stroke: #000000; stroke-width: 0.8"/>
      </g>
     </g>
     <g id="text_1">
      <!-- 50 -->
      <g transform="translate(53.833201 292.076563) scale(0.1 -0.1)">
       <defs>
        <path id="DejaVuSans-35" d="M 691 4666 
L 3169 4666 
L 3169 4134 
L 1269 4134 
L 1269 2991 
Q 1406 3038 1543 3061 
Q 1681 3084 1819 3084 
Q 2600 3084 3056 2656 
Q 3513 2228 3513 1497 
Q 3513 744 3044 326 
Q 2575 -91 1722 -91 
Q 1428 -91 1123 -41 
Q 819 9 494 109 
L 494 744 
Q 775 591 1075 516 
Q 1375 441 1709 441 
Q 2250 441 2565 725 
Q 2881 1009 2881 1497 
Q 2881 1984 2565 2268 
Q 2250 2553 1709 2553 
Q 1456 2553 1204 2497 
Q 953 2441 691 2322 
L 691 4666 
z
" transform="scale(0.015625)"/>
        <path id="DejaVuSans-30" d="M 2034 4250 
Q 1547 4250 1301 3770 
Q 1056 3291 1056 2328 
Q 1056 1369 1301 889 
Q 1547 409 2034 409 
Q 2525 409 2770 889 
Q 3016 1369 3016 2328 
Q 3016 3291 2770 3770 
Q 2525 4250 2034 4250 
z
M 2034 4750 
Q 2819 4750 3233 4129 
Q 3647 3509 3647 2328 
Q 3647 1150 3233 529 
Q 2819 -91 2034 -91 
Q 1250 -91 836 529 
Q 422 1150 422 2328 
Q 422 3509 836 4129 
Q 1250 4750 2034 4750 
z
" transform="scale(0.015625)"/>
       </defs>
       <use xlink:href="#DejaVuSans-35"/>
       <use xlink:href="#DejaVuSans-30" transform="translate(63.623047 0)"/>
      </g>
     </g>
    </g>
    <g id="xtick_2">
     <g id="line2d_2">
      <g>
       <use xlink:href="#m47c4ded3a1" x="140.165398" y="277.478125" style="stroke: #000000; stroke-width: 0.8"/>
      </g>
     </g>
     <g id="text_2">
      <!-- 100 -->
      <g transform="translate(130.621648 292.076563) scale(0.1 -0.1)">
       <defs>
        <path id="DejaVuSans-31" d="M 794 531 
L 1825 531 
L 1825 4091 
L 703 3866 
L 703 4441 
L 1819 4666 
L 2450 4666 
L 2450 531 
L 3481 531 
L 3481 0 
L 794 0 
L 794 531 
z
" transform="scale(0.015625)"/>
       </defs>
       <use xlink:href="#DejaVuSans-31"/>
       <use xlink:href="#DejaVuSans-30" transform="translate(63.623047 0)"/>
       <use xlink:href="#DejaVuSans-30" transform="translate(127.246094 0)"/>
      </g>
     </g>
    </g>
    <g id="xtick_3">
     <g id="line2d_3">
      <g>
       <use xlink:href="#m47c4ded3a1" x="220.135095" y="277.478125" style="stroke: #000000; stroke-width: 0.8"/>
      </g>
     </g>
     <g id="text_3">
      <!-- 150 -->
      <g transform="translate(210.591345 292.076563) scale(0.1 -0.1)">
       <use xlink:href="#DejaVuSans-31"/>
       <use xlink:href="#DejaVuSans-35" transform="translate(63.623047 0)"/>
       <use xlink:href="#DejaVuSans-30" transform="translate(127.246094 0)"/>
      </g>
     </g>
    </g>
    <g id="xtick_4">
     <g id="line2d_4">
      <g>
       <use xlink:href="#m47c4ded3a1" x="300.104792" y="277.478125" style="stroke: #000000; stroke-width: 0.8"/>
      </g>
     </g>
     <g id="text_4">
      <!-- 200 -->
      <g transform="translate(290.561042 292.076563) scale(0.1 -0.1)">
       <defs>
        <path id="DejaVuSans-32" d="M 1228 531 
L 3431 531 
L 3431 0 
L 469 0 
L 469 531 
Q 828 903 1448 1529 
Q 2069 2156 2228 2338 
Q 2531 2678 2651 2914 
Q 2772 3150 2772 3378 
Q 2772 3750 2511 3984 
Q 2250 4219 1831 4219 
Q 1534 4219 1204 4116 
Q 875 4013 500 3803 
L 500 4441 
Q 881 4594 1212 4672 
Q 1544 4750 1819 4750 
Q 2544 4750 2975 4387 
Q 3406 4025 3406 3419 
Q 3406 3131 3298 2873 
Q 3191 2616 2906 2266 
Q 2828 2175 2409 1742 
Q 1991 1309 1228 531 
z
" transform="scale(0.015625)"/>
       </defs>
       <use xlink:href="#DejaVuSans-32"/>
       <use xlink:href="#DejaVuSans-30" transform="translate(63.623047 0)"/>
       <use xlink:href="#DejaVuSans-30" transform="translate(127.246094 0)"/>
      </g>
     </g>
    </g>
    <g id="xtick_5">
     <g id="line2d_5">
      <g>
       <use xlink:href="#m47c4ded3a1" x="380.074489" y="277.478125" style="stroke: #000000; stroke-width: 0.8"/>
      </g>
     </g>
     <g id="text_5">
      <!-- 250 -->
      <g transform="translate(370.530739 292.076563) scale(0.1 -0.1)">
       <use xlink:href="#DejaVuSans-32"/>
       <use xlink:href="#DejaVuSans-35" transform="translate(63.623047 0)"/>
       <use xlink:href="#DejaVuSans-30" transform="translate(127.246094 0)"/>
      </g>
     </g>
    </g>
    <g id="xtick_6">
     <g id="line2d_6">
      <g>
       <use xlink:href="#m47c4ded3a1" x="460.044186" y="277.478125" style="stroke: #000000; stroke-width: 0.8"/>
      </g>
     </g>
     <g id="text_6">
      <!-- 300 -->
      <g transform="translate(450.500436 292.076563) scale(0.1 -0.1)">
       <defs>
        <path id="DejaVuSans-33" d="M 2597 2516 
Q 3050 2419 3304 2112 
Q 3559 1806 3559 1356 
Q 3559 666 3084 287 
Q 2609 -91 1734 -91 
Q 1441 -91 1130 -33 
Q 819 25 488 141 
L 488 750 
Q 750 597 1062 519 
Q 1375 441 1716 441 
Q 2309 441 2620 675 
Q 2931 909 2931 1356 
Q 2931 1769 2642 2001 
Q 2353 2234 1838 2234 
L 1294 2234 
L 1294 2753 
L 1863 2753 
Q 2328 2753 2575 2939 
Q 2822 3125 2822 3475 
Q 2822 3834 2567 4026 
Q 2313 4219 1838 4219 
Q 1578 4219 1281 4162 
Q 984 4106 628 3988 
L 628 4550 
Q 988 4650 1302 4700 
Q 1616 4750 1894 4750 
Q 2613 4750 3031 4423 
Q 3450 4097 3450 3541 
Q 3450 3153 3228 2886 
Q 3006 2619 2597 2516 
z
" transform="scale(0.015625)"/>
       </defs>
       <use xlink:href="#DejaVuSans-33"/>
       <use xlink:href="#DejaVuSans-30" transform="translate(63.623047 0)"/>
       <use xlink:href="#DejaVuSans-30" transform="translate(127.246094 0)"/>
      </g>
     </g>
    </g>
    <g id="text_7">
     <!-- Unweighted codimension (per trial) -->
     <g transform="translate(176.439219 305.754687) scale(0.1 -0.1)">
      <defs>
       <path id="DejaVuSans-55" d="M 556 4666 
L 1191 4666 
L 1191 1831 
Q 1191 1081 1462 751 
Q 1734 422 2344 422 
Q 2950 422 3222 751 
Q 3494 1081 3494 1831 
L 3494 4666 
L 4128 4666 
L 4128 1753 
Q 4128 841 3676 375 
Q 3225 -91 2344 -91 
Q 1459 -91 1007 375 
Q 556 841 556 1753 
L 556 4666 
z
" transform="scale(0.015625)"/>
       <path id="DejaVuSans-6e" d="M 3513 2113 
L 3513 0 
L 2938 0 
L 2938 2094 
Q 2938 2591 2744 2837 
Q 2550 3084 2163 3084 
Q 1697 3084 1428 2787 
Q 1159 2491 1159 1978 
L 1159 0 
L 581 0 
L 581 3500 
L 1159 3500 
L 1159 2956 
Q 1366 3272 1645 3428 
Q 1925 3584 2291 3584 
Q 2894 3584 3203 3211 
Q 3513 2838 3513 2113 
z
" transform="scale(0.015625)"/>
       <path id="DejaVuSans-77" d="M 269 3500 
L 844 3500 
L 1563 769 
L 2278 3500 
L 2956 3500 
L 3675 769 
L 4391 3500 
L 4966 3500 
L 4050 0 
L 3372 0 
L 2619 2869 
L 1863 0 
L 1184 0 
L 269 3500 
z
" transform="scale(0.015625)"/>
       <path id="DejaVuSans-65" d="M 3597 1894 
L 3597 1613 
L 953 1613 
Q 991 1019 1311 708 
Q 1631 397 2203 397 
Q 2534 397 2845 478 
Q 3156 559 3463 722 
L 3463 178 
Q 3153 47 2828 -22 
Q 2503 -91 2169 -91 
Q 1331 -91 842 396 
Q 353 884 353 1716 
Q 353 2575 817 3079 
Q 1281 3584 2069 3584 
Q 2775 3584 3186 3129 
Q 3597 2675 3597 1894 
z
M 3022 2063 
Q 3016 2534 2758 2815 
Q 2500 3097 2075 3097 
Q 1594 3097 1305 2825 
Q 1016 2553 972 2059 
L 3022 2063 
z
" transform="scale(0.015625)"/>
       <path id="DejaVuSans-69" d="M 603 3500 
L 1178 3500 
L 1178 0 
L 603 0 
L 603 3500 
z
M 603 4863 
L 1178 4863 
L 1178 4134 
L 603 4134 
L 603 4863 
z
" transform="scale(0.015625)"/>
       <path id="DejaVuSans-67" d="M 2906 1791 
Q 2906 2416 2648 2759 
Q 2391 3103 1925 3103 
Q 1463 3103 1205 2759 
Q 947 2416 947 1791 
Q 947 1169 1205 825 
Q 1463 481 1925 481 
Q 2391 481 2648 825 
Q 2906 1169 2906 1791 
z
M 3481 434 
Q 3481 -459 3084 -895 
Q 2688 -1331 1869 -1331 
Q 1566 -1331 1297 -1286 
Q 1028 -1241 775 -1147 
L 775 -588 
Q 1028 -725 1275 -790 
Q 1522 -856 1778 -856 
Q 2344 -856 2625 -561 
Q 2906 -266 2906 331 
L 2906 616 
Q 2728 306 2450 153 
Q 2172 0 1784 0 
Q 1141 0 747 490 
Q 353 981 353 1791 
Q 353 2603 747 3093 
Q 1141 3584 1784 3584 
Q 2172 3584 2450 3431 
Q 2728 3278 2906 2969 
L 2906 3500 
L 3481 3500 
L 3481 434 
z
" transform="scale(0.015625)"/>
       <path id="DejaVuSans-68" d="M 3513 2113 
L 3513 0 
L 2938 0 
L 2938 2094 
Q 2938 2591 2744 2837 
Q 2550 3084 2163 3084 
Q 1697 3084 1428 2787 
Q 1159 2491 1159 1978 
L 1159 0 
L 581 0 
L 581 4863 
L 1159 4863 
L 1159 2956 
Q 1366 3272 1645 3428 
Q 1925 3584 2291 3584 
Q 2894 3584 3203 3211 
Q 3513 2838 3513 2113 
z
" transform="scale(0.015625)"/>
       <path id="DejaVuSans-74" d="M 1172 4494 
L 1172 3500 
L 2356 3500 
L 2356 3053 
L 1172 3053 
L 1172 1153 
Q 1172 725 1289 603 
Q 1406 481 1766 481 
L 2356 481 
L 2356 0 
L 1766 0 
Q 1100 0 847 248 
Q 594 497 594 1153 
L 594 3053 
L 172 3053 
L 172 3500 
L 594 3500 
L 594 4494 
L 1172 4494 
z
" transform="scale(0.015625)"/>
       <path id="DejaVuSans-64" d="M 2906 2969 
L 2906 4863 
L 3481 4863 
L 3481 0 
L 2906 0 
L 2906 525 
Q 2725 213 2448 61 
Q 2172 -91 1784 -91 
Q 1150 -91 751 415 
Q 353 922 353 1747 
Q 353 2572 751 3078 
Q 1150 3584 1784 3584 
Q 2172 3584 2448 3432 
Q 2725 3281 2906 2969 
z
M 947 1747 
Q 947 1113 1208 752 
Q 1469 391 1925 391 
Q 2381 391 2643 752 
Q 2906 1113 2906 1747 
Q 2906 2381 2643 2742 
Q 2381 3103 1925 3103 
Q 1469 3103 1208 2742 
Q 947 2381 947 1747 
z
" transform="scale(0.015625)"/>
       <path id="DejaVuSans-20" transform="scale(0.015625)"/>
       <path id="DejaVuSans-63" d="M 3122 3366 
L 3122 2828 
Q 2878 2963 2633 3030 
Q 2388 3097 2138 3097 
Q 1578 3097 1268 2742 
Q 959 2388 959 1747 
Q 959 1106 1268 751 
Q 1578 397 2138 397 
Q 2388 397 2633 464 
Q 2878 531 3122 666 
L 3122 134 
Q 2881 22 2623 -34 
Q 2366 -91 2075 -91 
Q 1284 -91 818 406 
Q 353 903 353 1747 
Q 353 2603 823 3093 
Q 1294 3584 2113 3584 
Q 2378 3584 2631 3529 
Q 2884 3475 3122 3366 
z
" transform="scale(0.015625)"/>
       <path id="DejaVuSans-6f" d="M 1959 3097 
Q 1497 3097 1228 2736 
Q 959 2375 959 1747 
Q 959 1119 1226 758 
Q 1494 397 1959 397 
Q 2419 397 2687 759 
Q 2956 1122 2956 1747 
Q 2956 2369 2687 2733 
Q 2419 3097 1959 3097 
z
M 1959 3584 
Q 2709 3584 3137 3096 
Q 3566 2609 3566 1747 
Q 3566 888 3137 398 
Q 2709 -91 1959 -91 
Q 1206 -91 779 398 
Q 353 888 353 1747 
Q 353 2609 779 3096 
Q 1206 3584 1959 3584 
z
" transform="scale(0.015625)"/>
       <path id="DejaVuSans-6d" d="M 3328 2828 
Q 3544 3216 3844 3400 
Q 4144 3584 4550 3584 
Q 5097 3584 5394 3201 
Q 5691 2819 5691 2113 
L 5691 0 
L 5113 0 
L 5113 2094 
Q 5113 2597 4934 2840 
Q 4756 3084 4391 3084 
Q 3944 3084 3684 2787 
Q 3425 2491 3425 1978 
L 3425 0 
L 2847 0 
L 2847 2094 
Q 2847 2600 2669 2842 
Q 2491 3084 2119 3084 
Q 1678 3084 1418 2786 
Q 1159 2488 1159 1978 
L 1159 0 
L 581 0 
L 581 3500 
L 1159 3500 
L 1159 2956 
Q 1356 3278 1631 3431 
Q 1906 3584 2284 3584 
Q 2666 3584 2933 3390 
Q 3200 3197 3328 2828 
z
" transform="scale(0.015625)"/>
       <path id="DejaVuSans-73" d="M 2834 3397 
L 2834 2853 
Q 2591 2978 2328 3040 
Q 2066 3103 1784 3103 
Q 1356 3103 1142 2972 
Q 928 2841 928 2578 
Q 928 2378 1081 2264 
Q 1234 2150 1697 2047 
L 1894 2003 
Q 2506 1872 2764 1633 
Q 3022 1394 3022 966 
Q 3022 478 2636 193 
Q 2250 -91 1575 -91 
Q 1294 -91 989 -36 
Q 684 19 347 128 
L 347 722 
Q 666 556 975 473 
Q 1284 391 1588 391 
Q 1994 391 2212 530 
Q 2431 669 2431 922 
Q 2431 1156 2273 1281 
Q 2116 1406 1581 1522 
L 1381 1569 
Q 847 1681 609 1914 
Q 372 2147 372 2553 
Q 372 3047 722 3315 
Q 1072 3584 1716 3584 
Q 2034 3584 2315 3537 
Q 2597 3491 2834 3397 
z
" transform="scale(0.015625)"/>
       <path id="DejaVuSans-28" d="M 1984 4856 
Q 1566 4138 1362 3434 
Q 1159 2731 1159 2009 
Q 1159 1288 1364 580 
Q 1569 -128 1984 -844 
L 1484 -844 
Q 1016 -109 783 600 
Q 550 1309 550 2009 
Q 550 2706 781 3412 
Q 1013 4119 1484 4856 
L 1984 4856 
z
" transform="scale(0.015625)"/>
       <path id="DejaVuSans-70" d="M 1159 525 
L 1159 -1331 
L 581 -1331 
L 581 3500 
L 1159 3500 
L 1159 2969 
Q 1341 3281 1617 3432 
Q 1894 3584 2278 3584 
Q 2916 3584 3314 3078 
Q 3713 2572 3713 1747 
Q 3713 922 3314 415 
Q 2916 -91 2278 -91 
Q 1894 -91 1617 61 
Q 1341 213 1159 525 
z
M 3116 1747 
Q 3116 2381 2855 2742 
Q 2594 3103 2138 3103 
Q 1681 3103 1420 2742 
Q 1159 2381 1159 1747 
Q 1159 1113 1420 752 
Q 1681 391 2138 391 
Q 2594 391 2855 752 
Q 3116 1113 3116 1747 
z
" transform="scale(0.015625)"/>
       <path id="DejaVuSans-72" d="M 2631 2963 
Q 2534 3019 2420 3045 
Q 2306 3072 2169 3072 
Q 1681 3072 1420 2755 
Q 1159 2438 1159 1844 
L 1159 0 
L 581 0 
L 581 3500 
L 1159 3500 
L 1159 2956 
Q 1341 3275 1631 3429 
Q 1922 3584 2338 3584 
Q 2397 3584 2469 3576 
Q 2541 3569 2628 3553 
L 2631 2963 
z
" transform="scale(0.015625)"/>
       <path id="DejaVuSans-61" d="M 2194 1759 
Q 1497 1759 1228 1600 
Q 959 1441 959 1056 
Q 959 750 1161 570 
Q 1363 391 1709 391 
Q 2188 391 2477 730 
Q 2766 1069 2766 1631 
L 2766 1759 
L 2194 1759 
z
M 3341 1997 
L 3341 0 
L 2766 0 
L 2766 531 
Q 2569 213 2275 61 
Q 1981 -91 1556 -91 
Q 1019 -91 701 211 
Q 384 513 384 1019 
Q 384 1609 779 1909 
Q 1175 2209 1959 2209 
L 2766 2209 
L 2766 2266 
Q 2766 2663 2505 2880 
Q 2244 3097 1772 3097 
Q 1472 3097 1187 3025 
Q 903 2953 641 2809 
L 641 3341 
Q 956 3463 1253 3523 
Q 1550 3584 1831 3584 
Q 2591 3584 2966 3190 
Q 3341 2797 3341 1997 
z
" transform="scale(0.015625)"/>
       <path id="DejaVuSans-6c" d="M 603 4863 
L 1178 4863 
L 1178 0 
L 603 0 
L 603 4863 
z
" transform="scale(0.015625)"/>
       <path id="DejaVuSans-29" d="M 513 4856 
L 1013 4856 
Q 1481 4119 1714 3412 
Q 1947 2706 1947 2009 
Q 1947 1309 1714 600 
Q 1481 -109 1013 -844 
L 513 -844 
Q 928 -128 1133 580 
Q 1338 1288 1338 2009 
Q 1338 2731 1133 3434 
Q 928 4138 513 4856 
z
" transform="scale(0.015625)"/>
      </defs>
      <use xlink:href="#DejaVuSans-55"/>
      <use xlink:href="#DejaVuSans-6e" transform="translate(73.193359 0)"/>
      <use xlink:href="#DejaVuSans-77" transform="translate(136.572266 0)"/>
      <use xlink:href="#DejaVuSans-65" transform="translate(218.359375 0)"/>
      <use xlink:href="#DejaVuSans-69" transform="translate(279.882812 0)"/>
      <use xlink:href="#DejaVuSans-67" transform="translate(307.666016 0)"/>
      <use xlink:href="#DejaVuSans-68" transform="translate(371.142578 0)"/>
      <use xlink:href="#DejaVuSans-74" transform="translate(434.521484 0)"/>
      <use xlink:href="#DejaVuSans-65" transform="translate(473.730469 0)"/>
      <use xlink:href="#DejaVuSans-64" transform="translate(535.253906 0)"/>
      <use xlink:href="#DejaVuSans-20" transform="translate(598.730469 0)"/>
      <use xlink:href="#DejaVuSans-63" transform="translate(630.517578 0)"/>
      <use xlink:href="#DejaVuSans-6f" transform="translate(685.498047 0)"/>
      <use xlink:href="#DejaVuSans-64" transform="translate(746.679688 0)"/>
      <use xlink:href="#DejaVuSans-69" transform="translate(810.15625 0)"/>
      <use xlink:href="#DejaVuSans-6d" transform="translate(837.939453 0)"/>
      <use xlink:href="#DejaVuSans-65" transform="translate(935.351562 0)"/>
      <use xlink:href="#DejaVuSans-6e" transform="translate(996.875 0)"/>
      <use xlink:href="#DejaVuSans-73" transform="translate(1060.253906 0)"/>
      <use xlink:href="#DejaVuSans-69" transform="translate(1112.353516 0)"/>
      <use xlink:href="#DejaVuSans-6f" transform="translate(1140.136719 0)"/>
      <use xlink:href="#DejaVuSans-6e" transform="translate(1201.318359 0)"/>
      <use xlink:href="#DejaVuSans-20" transform="translate(1264.697266 0)"/>
      <use xlink:href="#DejaVuSans-28" transform="translate(1296.484375 0)"/>
      <use xlink:href="#DejaVuSans-70" transform="translate(1335.498047 0)"/>
      <use xlink:href="#DejaVuSans-65" transform="translate(1398.974609 0)"/>
      <use xlink:href="#DejaVuSans-72" transform="translate(1460.498047 0)"/>
      <use xlink:href="#DejaVuSans-20" transform="translate(1501.611328 0)"/>
      <use xlink:href="#DejaVuSans-74" transform="translate(1533.398438 0)"/>
      <use xlink:href="#DejaVuSans-72" transform="translate(1572.607422 0)"/>
      <use xlink:href="#DejaVuSans-69" transform="translate(1613.720703 0)"/>
      <use xlink:href="#DejaVuSans-61" transform="translate(1641.503906 0)"/>
      <use xlink:href="#DejaVuSans-6c" transform="translate(1702.783203 0)"/>
      <use xlink:href="#DejaVuSans-29" transform="translate(1730.566406 0)"/>
     </g>
    </g>
   </g>
   <g id="matplotlib.axis_2">
    <g id="ytick_1">
     <g id="line2d_7">
      <defs>
       <path id="me5f3d89451" d="M 0 0 
L -3.5 0 
" style="stroke: #000000; stroke-width: 0.8"/>
      </defs>
      <g>
       <use xlink:href="#me5f3d89451" x="40.603125" y="277.478125" style="stroke: #000000; stroke-width: 0.8"/>
      </g>
     </g>
     <g id="text_8">
      <!-- 0 -->
      <g transform="translate(27.240625 281.277344) scale(0.1 -0.1)">
       <use xlink:href="#DejaVuSans-30"/>
      </g>
     </g>
    </g>
    <g id="ytick_2">
     <g id="line2d_8">
      <g>
       <use xlink:href="#me5f3d89451" x="40.603125" y="236.976538" style="stroke: #000000; stroke-width: 0.8"/>
      </g>
     </g>
     <g id="text_9">
      <!-- 2 -->
      <g transform="translate(27.240625 240.775756) scale(0.1 -0.1)">
       <use xlink:href="#DejaVuSans-32"/>
      </g>
     </g>
    </g>
    <g id="ytick_3">
     <g id="line2d_9">
      <g>
       <use xlink:href="#me5f3d89451" x="40.603125" y="196.47495" style="stroke: #000000; stroke-width: 0.8"/>
      </g>
     </g>
     <g id="text_10">
      <!-- 4 -->
      <g transform="translate(27.240625 200.274169) scale(0.1 -0.1)">
       <defs>
        <path id="DejaVuSans-34" d="M 2419 4116 
L 825 1625 
L 2419 1625 
L 2419 4116 
z
M 2253 4666 
L 3047 4666 
L 3047 1625 
L 3713 1625 
L 3713 1100 
L 3047 1100 
L 3047 0 
L 2419 0 
L 2419 1100 
L 313 1100 
L 313 1709 
L 2253 4666 
z
" transform="scale(0.015625)"/>
       </defs>
       <use xlink:href="#DejaVuSans-34"/>
      </g>
     </g>
    </g>
    <g id="ytick_4">
     <g id="line2d_10">
      <g>
       <use xlink:href="#me5f3d89451" x="40.603125" y="155.973363" style="stroke: #000000; stroke-width: 0.8"/>
      </g>
     </g>
     <g id="text_11">
      <!-- 6 -->
      <g transform="translate(27.240625 159.772582) scale(0.1 -0.1)">
       <defs>
        <path id="DejaVuSans-36" d="M 2113 2584 
Q 1688 2584 1439 2293 
Q 1191 2003 1191 1497 
Q 1191 994 1439 701 
Q 1688 409 2113 409 
Q 2538 409 2786 701 
Q 3034 994 3034 1497 
Q 3034 2003 2786 2293 
Q 2538 2584 2113 2584 
z
M 3366 4563 
L 3366 3988 
Q 3128 4100 2886 4159 
Q 2644 4219 2406 4219 
Q 1781 4219 1451 3797 
Q 1122 3375 1075 2522 
Q 1259 2794 1537 2939 
Q 1816 3084 2150 3084 
Q 2853 3084 3261 2657 
Q 3669 2231 3669 1497 
Q 3669 778 3244 343 
Q 2819 -91 2113 -91 
Q 1303 -91 875 529 
Q 447 1150 447 2328 
Q 447 3434 972 4092 
Q 1497 4750 2381 4750 
Q 2619 4750 2861 4703 
Q 3103 4656 3366 4563 
z
" transform="scale(0.015625)"/>
       </defs>
       <use xlink:href="#DejaVuSans-36"/>
      </g>
     </g>
    </g>
    <g id="ytick_5">
     <g id="line2d_11">
      <g>
       <use xlink:href="#me5f3d89451" x="40.603125" y="115.471776" style="stroke: #000000; stroke-width: 0.8"/>
      </g>
     </g>
     <g id="text_12">
      <!-- 8 -->
      <g transform="translate(27.240625 119.270995) scale(0.1 -0.1)">
       <defs>
        <path id="DejaVuSans-38" d="M 2034 2216 
Q 1584 2216 1326 1975 
Q 1069 1734 1069 1313 
Q 1069 891 1326 650 
Q 1584 409 2034 409 
Q 2484 409 2743 651 
Q 3003 894 3003 1313 
Q 3003 1734 2745 1975 
Q 2488 2216 2034 2216 
z
M 1403 2484 
Q 997 2584 770 2862 
Q 544 3141 544 3541 
Q 544 4100 942 4425 
Q 1341 4750 2034 4750 
Q 2731 4750 3128 4425 
Q 3525 4100 3525 3541 
Q 3525 3141 3298 2862 
Q 3072 2584 2669 2484 
Q 3125 2378 3379 2068 
Q 3634 1759 3634 1313 
Q 3634 634 3220 271 
Q 2806 -91 2034 -91 
Q 1263 -91 848 271 
Q 434 634 434 1313 
Q 434 1759 690 2068 
Q 947 2378 1403 2484 
z
M 1172 3481 
Q 1172 3119 1398 2916 
Q 1625 2713 2034 2713 
Q 2441 2713 2670 2916 
Q 2900 3119 2900 3481 
Q 2900 3844 2670 4047 
Q 2441 4250 2034 4250 
Q 1625 4250 1398 4047 
Q 1172 3844 1172 3481 
z
" transform="scale(0.015625)"/>
       </defs>
       <use xlink:href="#DejaVuSans-38"/>
      </g>
     </g>
    </g>
    <g id="ytick_6">
     <g id="line2d_12">
      <g>
       <use xlink:href="#me5f3d89451" x="40.603125" y="74.970188" style="stroke: #000000; stroke-width: 0.8"/>
      </g>
     </g>
     <g id="text_13">
      <!-- 10 -->
      <g transform="translate(20.878125 78.769407) scale(0.1 -0.1)">
       <use xlink:href="#DejaVuSans-31"/>
       <use xlink:href="#DejaVuSans-30" transform="translate(63.623047 0)"/>
      </g>
     </g>
    </g>
    <g id="ytick_7">
     <g id="line2d_13">
      <g>
       <use xlink:href="#me5f3d89451" x="40.603125" y="34.468601" style="stroke: #000000; stroke-width: 0.8"/>
      </g>
     </g>
     <g id="text_14">
      <!-- 12 -->
      <g transform="translate(20.878125 38.26782) scale(0.1 -0.1)">
       <use xlink:href="#DejaVuSans-31"/>
       <use xlink:href="#DejaVuSans-32" transform="translate(63.623047 0)"/>
      </g>
     </g>
    </g>
    <g id="text_15">
     <!-- Count -->
     <g transform="translate(14.798438 164.746562) rotate(-90) scale(0.1 -0.1)">
      <defs>
       <path id="DejaVuSans-43" d="M 4122 4306 
L 4122 3641 
Q 3803 3938 3442 4084 
Q 3081 4231 2675 4231 
Q 1875 4231 1450 3742 
Q 1025 3253 1025 2328 
Q 1025 1406 1450 917 
Q 1875 428 2675 428 
Q 3081 428 3442 575 
Q 3803 722 4122 1019 
L 4122 359 
Q 3791 134 3420 21 
Q 3050 -91 2638 -91 
Q 1578 -91 968 557 
Q 359 1206 359 2328 
Q 359 3453 968 4101 
Q 1578 4750 2638 4750 
Q 3056 4750 3426 4639 
Q 3797 4528 4122 4306 
z
" transform="scale(0.015625)"/>
       <path id="DejaVuSans-75" d="M 544 1381 
L 544 3500 
L 1119 3500 
L 1119 1403 
Q 1119 906 1312 657 
Q 1506 409 1894 409 
Q 2359 409 2629 706 
Q 2900 1003 2900 1516 
L 2900 3500 
L 3475 3500 
L 3475 0 
L 2900 0 
L 2900 538 
Q 2691 219 2414 64 
Q 2138 -91 1772 -91 
Q 1169 -91 856 284 
Q 544 659 544 1381 
z
M 1991 3584 
L 1991 3584 
z
" transform="scale(0.015625)"/>
      </defs>
      <use xlink:href="#DejaVuSans-43"/>
      <use xlink:href="#DejaVuSans-6f" transform="translate(69.824219 0)"/>
      <use xlink:href="#DejaVuSans-75" transform="translate(131.005859 0)"/>
      <use xlink:href="#DejaVuSans-6e" transform="translate(194.384766 0)"/>
      <use xlink:href="#DejaVuSans-74" transform="translate(257.763672 0)"/>
     </g>
    </g>
   </g>
   <g id="patch_258">
    <path d="M 40.603125 277.478125 
L 40.603125 22.318125 
" style="fill: none; stroke: #000000; stroke-width: 0.8; stroke-linejoin: miter; stroke-linecap: square"/>
   </g>
   <g id="patch_259">
    <path d="M 489.233125 277.478125 
L 489.233125 22.318125 
" style="fill: none; stroke: #000000; stroke-width: 0.8; stroke-linejoin: miter; stroke-linecap: square"/>
   </g>
   <g id="patch_260">
    <path d="M 40.603125 277.478125 
L 489.233125 277.478125 
" style="fill: none; stroke: #000000; stroke-width: 0.8; stroke-linejoin: miter; stroke-linecap: square"/>
   </g>
   <g id="patch_261">
    <path d="M 40.603125 22.318125 
L 489.233125 22.318125 
" style="fill: none; stroke: #000000; stroke-width: 0.8; stroke-linejoin: miter; stroke-linecap: square"/>
   </g>
   <g id="text_16">
    <!-- Unweighted codimension over 500 noisy circles (n=300, =0.1) -->
    <g transform="translate(72.619063 16.318125) scale(0.12 -0.12)">
     <defs>
      <path id="DejaVuSans-76" d="M 191 3500 
L 800 3500 
L 1894 563 
L 2988 3500 
L 3597 3500 
L 2284 0 
L 1503 0 
L 191 3500 
z
" transform="scale(0.015625)"/>
      <path id="DejaVuSans-79" d="M 2059 -325 
Q 1816 -950 1584 -1140 
Q 1353 -1331 966 -1331 
L 506 -1331 
L 506 -850 
L 844 -850 
Q 1081 -850 1212 -737 
Q 1344 -625 1503 -206 
L 1606 56 
L 191 3500 
L 800 3500 
L 1894 763 
L 2988 3500 
L 3597 3500 
L 2059 -325 
z
" transform="scale(0.015625)"/>
      <path id="DejaVuSans-3d" d="M 678 2906 
L 4684 2906 
L 4684 2381 
L 678 2381 
L 678 2906 
z
M 678 1631 
L 4684 1631 
L 4684 1100 
L 678 1100 
L 678 1631 
z
" transform="scale(0.015625)"/>
      <path id="DejaVuSans-2c" d="M 750 794 
L 1409 794 
L 1409 256 
L 897 -744 
L 494 -744 
L 750 256 
L 750 794 
z
" transform="scale(0.015625)"/>
      <path id="DejaVuSans-3c3" d="M 1959 3044 
Q 1484 3044 1228 2700 
Q 959 2341 959 1747 
Q 959 1119 1226 758 
Q 1494 397 1959 397 
Q 2419 397 2687 759 
Q 2956 1122 2956 1747 
Q 2956 2319 2688 2700 
Q 2441 3044 1959 3044 
z
M 1959 3500 
L 3869 3500 
L 3869 2925 
L 3225 2925 
Q 3566 2438 3566 1747 
Q 3566 888 3138 400 
Q 2709 -91 1959 -91 
Q 1206 -91 781 400 
Q 353 888 353 1747 
Q 353 2613 781 3097 
Q 1134 3500 1959 3500 
z
" transform="scale(0.015625)"/>
      <path id="DejaVuSans-2e" d="M 684 794 
L 1344 794 
L 1344 0 
L 684 0 
L 684 794 
z
" transform="scale(0.015625)"/>
     </defs>
     <use xlink:href="#DejaVuSans-55"/>
     <use xlink:href="#DejaVuSans-6e" transform="translate(73.193359 0)"/>
     <use xlink:href="#DejaVuSans-77" transform="translate(136.572266 0)"/>
     <use xlink:href="#DejaVuSans-65" transform="translate(218.359375 0)"/>
     <use xlink:href="#DejaVuSans-69" transform="translate(279.882812 0)"/>
     <use xlink:href="#DejaVuSans-67" transform="translate(307.666016 0)"/>
     <use xlink:href="#DejaVuSans-68" transform="translate(371.142578 0)"/>
     <use xlink:href="#DejaVuSans-74" transform="translate(434.521484 0)"/>
     <use xlink:href="#DejaVuSans-65" transform="translate(473.730469 0)"/>
     <use xlink:href="#DejaVuSans-64" transform="translate(535.253906 0)"/>
     <use xlink:href="#DejaVuSans-20" transform="translate(598.730469 0)"/>
     <use xlink:href="#DejaVuSans-63" transform="translate(630.517578 0)"/>
     <use xlink:href="#DejaVuSans-6f" transform="translate(685.498047 0)"/>
     <use xlink:href="#DejaVuSans-64" transform="translate(746.679688 0)"/>
     <use xlink:href="#DejaVuSans-69" transform="translate(810.15625 0)"/>
     <use xlink:href="#DejaVuSans-6d" transform="translate(837.939453 0)"/>
     <use xlink:href="#DejaVuSans-65" transform="translate(935.351562 0)"/>
     <use xlink:href="#DejaVuSans-6e" transform="translate(996.875 0)"/>
     <use xlink:href="#DejaVuSans-73" transform="translate(1060.253906 0)"/>
     <use xlink:href="#DejaVuSans-69" transform="translate(1112.353516 0)"/>
     <use xlink:href="#DejaVuSans-6f" transform="translate(1140.136719 0)"/>
     <use xlink:href="#DejaVuSans-6e" transform="translate(1201.318359 0)"/>
     <use xlink:href="#DejaVuSans-20" transform="translate(1264.697266 0)"/>
     <use xlink:href="#DejaVuSans-6f" transform="translate(1296.484375 0)"/>
     <use xlink:href="#DejaVuSans-76" transform="translate(1357.666016 0)"/>
     <use xlink:href="#DejaVuSans-65" transform="translate(1416.845703 0)"/>
     <use xlink:href="#DejaVuSans-72" transform="translate(1478.369141 0)"/>
     <use xlink:href="#DejaVuSans-20" transform="translate(1519.482422 0)"/>
     <use xlink:href="#DejaVuSans-35" transform="translate(1551.269531 0)"/>
     <use xlink:href="#DejaVuSans-30" transform="translate(1614.892578 0)"/>
     <use xlink:href="#DejaVuSans-30" transform="translate(1678.515625 0)"/>
     <use xlink:href="#DejaVuSans-20" transform="translate(1742.138672 0)"/>
     <use xlink:href="#DejaVuSans-6e" transform="translate(1773.925781 0)"/>
     <use xlink:href="#DejaVuSans-6f" transform="translate(1837.304688 0)"/>
     <use xlink:href="#DejaVuSans-69" transform="translate(1898.486328 0)"/>
     <use xlink:href="#DejaVuSans-73" transform="translate(1926.269531 0)"/>
     <use xlink:href="#DejaVuSans-79" transform="translate(1978.369141 0)"/>
     <use xlink:href="#DejaVuSans-20" transform="translate(2037.548828 0)"/>
     <use xlink:href="#DejaVuSans-63" transform="translate(2069.335938 0)"/>
     <use xlink:href="#DejaVuSans-69" transform="translate(2124.316406 0)"/>
     <use xlink:href="#DejaVuSans-72" transform="translate(2152.099609 0)"/>
     <use xlink:href="#DejaVuSans-63" transform="translate(2190.962891 0)"/>
     <use xlink:href="#DejaVuSans-6c" transform="translate(2245.943359 0)"/>
     <use xlink:href="#DejaVuSans-65" transform="translate(2273.726562 0)"/>
     <use xlink:href="#DejaVuSans-73" transform="translate(2335.25 0)"/>
     <use xlink:href="#DejaVuSans-20" transform="translate(2387.349609 0)"/>
     <use xlink:href="#DejaVuSans-28" transform="translate(2419.136719 0)"/>
     <use xlink:href="#DejaVuSans-6e" transform="translate(2458.150391 0)"/>
     <use xlink:href="#DejaVuSans-3d" transform="translate(2521.529297 0)"/>
     <use xlink:href="#DejaVuSans-33" transform="translate(2605.318359 0)"/>
     <use xlink:href="#DejaVuSans-30" transform="translate(2668.941406 0)"/>
     <use xlink:href="#DejaVuSans-30" transform="translate(2732.564453 0)"/>
     <use xlink:href="#DejaVuSans-2c" transform="translate(2796.1875 0)"/>
     <use xlink:href="#DejaVuSans-20" transform="translate(2827.974609 0)"/>
     <use xlink:href="#DejaVuSans-3c3" transform="translate(2859.761719 0)"/>
     <use xlink:href="#DejaVuSans-3d" transform="translate(2923.140625 0)"/>
     <use xlink:href="#DejaVuSans-30" transform="translate(3006.929688 0)"/>
     <use xlink:href="#DejaVuSans-2e" transform="translate(3070.552734 0)"/>
     <use xlink:href="#DejaVuSans-31" transform="translate(3102.339844 0)"/>
     <use xlink:href="#DejaVuSans-29" transform="translate(3165.962891 0)"/>
    </g>
   </g>
  </g>
 </g>
 <defs>
  <clipPath id="p48fd6e6e35">
   <rect x="40.603125" y="22.318125" width="448.63" height="255.16"/>
  </clipPath>
 </defs>
</svg>
