<?xml version="1.0" encoding="utf-8" standalone="no"?>
<!DOCTYPE svg PUBLIC "-//W3C//DTD SVG 1.1//EN"
  "http://www.w3.org/Graphics/SVG/1.1/DTD/svg11.dtd">
<svg xmlns:xlink="http://www.w3.org/1999/xlink" width="496.46125pt" height="315.034375pt" viewBox="0 0 496.46125 315.034375" xmlns="http://www.w3.org/2000/svg" version="1.1">
 <metadata>
  <rdf:RDF xmlns:dc="http://purl.org/dc/elements/1.1/" xmlns:cc="http://creativecommons.org/ns#" xmlns:rdf="http://www.w3.org/1999/02/22-rdf-syntax-ns#">
   <cc:Work>
    <dc:type rdf:resource="http://purl.org/dc/dcmitype/StillImage"/>
    <dc:date>2025-11-05T01:18:12.536802</dc:date>
    <dc:format>image/svg+xml</dc:format>
    <dc:creator>
     <cc:Agent>
      <dc:title>Matplotlib v3.10.6, https://matplotlib.org/</dc:title>
     </cc:Agent>
    </dc:creator>
   </cc:Work>
  </rdf:RDF>
 </metadata>
 <defs>
  <style type="text/css">*{stroke-linejoin: round; stroke-linecap: butt}</style>
 </defs>
 <g id="figure_1">
  <g id="patch_1">
   <path d="M 0 315.034375 
L 496.46125 315.034375 
L 496.46125 0 
L 0 0 
z
" style="fill: #ffffff"/>
  </g>
  <g id="axes_1">
   <g id="patch_2">
    <path d="M 43.78125 277.478125 
L 489.26125 277.478125 
L 489.26125 22.318125 
L 43.78125 22.318125 
z
" style="fill: #ffffff"/>
   </g>
   <g id="patch_3">
    <path d="M 64.030341 277.478125 
L 66.455382 277.478125 
L 66.455382 216.725744 
L 64.030341 216.725744 
z
" clip-path="url(#p56ad9cc237)" style="fill: #1f77b4; stroke: #000000; stroke-linejoin: miter"/>
   </g>
   <g id="patch_4">
    <path d="M 66.455382 277.478125 
L 68.880423 277.478125 
L 68.880423 216.725744 
L 66.455382 216.725744 
z
" clip-path="url(#p56ad9cc237)" style="fill: #1f77b4; stroke: #000000; stroke-linejoin: miter"/>
   </g>
   <g id="patch_5">
    <path d="M 68.880423 277.478125 
L 71.305463 277.478125 
L 71.305463 277.478125 
L 68.880423 277.478125 
z
" clip-path="url(#p56ad9cc237)" style="fill: #1f77b4; stroke: #000000; stroke-linejoin: miter"/>
   </g>
   <g id="patch_6">
    <path d="M 71.305463 277.478125 
L 73.730504 277.478125 
L 73.730504 277.478125 
L 71.305463 277.478125 
z
" clip-path="url(#p56ad9cc237)" style="fill: #1f77b4; stroke: #000000; stroke-linejoin: miter"/>
   </g>
   <g id="patch_7">
    <path d="M 73.730504 277.478125 
L 76.155545 277.478125 
L 76.155545 277.478125 
L 73.730504 277.478125 
z
" clip-path="url(#p56ad9cc237)" style="fill: #1f77b4; stroke: #000000; stroke-linejoin: miter"/>
   </g>
   <g id="patch_8">
    <path d="M 76.155545 277.478125 
L 78.580586 277.478125 
L 78.580586 216.725744 
L 76.155545 216.725744 
z
" clip-path="url(#p56ad9cc237)" style="fill: #1f77b4; stroke: #000000; stroke-linejoin: miter"/>
   </g>
   <g id="patch_9">
    <path d="M 78.580586 277.478125 
L 81.005627 277.478125 
L 81.005627 216.725744 
L 78.580586 216.725744 
z
" clip-path="url(#p56ad9cc237)" style="fill: #1f77b4; stroke: #000000; stroke-linejoin: miter"/>
   </g>
   <g id="patch_10">
    <path d="M 81.005627 277.478125 
L 83.430668 277.478125 
L 83.430668 155.973363 
L 81.005627 155.973363 
z
" clip-path="url(#p56ad9cc237)" style="fill: #1f77b4; stroke: #000000; stroke-linejoin: miter"/>
   </g>
   <g id="patch_11">
    <path d="M 83.430668 277.478125 
L 85.855708 277.478125 
L 85.855708 155.973363 
L 83.430668 155.973363 
z
" clip-path="url(#p56ad9cc237)" style="fill: #1f77b4; stroke: #000000; stroke-linejoin: miter"/>
   </g>
   <g id="patch_12">
    <path d="M 85.855708 277.478125 
L 88.280749 277.478125 
L 88.280749 277.478125 
L 85.855708 277.478125 
z
" clip-path="url(#p56ad9cc237)" style="fill: #1f77b4; stroke: #000000; stroke-linejoin: miter"/>
   </g>
   <g id="patch_13">
    <path d="M 88.280749 277.478125 
L 90.70579 277.478125 
L 90.70579 277.478125 
L 88.280749 277.478125 
z
" clip-path="url(#p56ad9cc237)" style="fill: #1f77b4; stroke: #000000; stroke-linejoin: miter"/>
   </g>
   <g id="patch_14">
    <path d="M 90.70579 277.478125 
L 93.130831 277.478125 
L 93.130831 155.973363 
L 90.70579 155.973363 
z
" clip-path="url(#p56ad9cc237)" style="fill: #1f77b4; stroke: #000000; stroke-linejoin: miter"/>
   </g>
   <g id="patch_15">
    <path d="M 93.130831 277.478125 
L 95.555872 277.478125 
L 95.555872 277.478125 
L 93.130831 277.478125 
z
" clip-path="url(#p56ad9cc237)" style="fill: #1f77b4; stroke: #000000; stroke-linejoin: miter"/>
   </g>
   <g id="patch_16">
    <path d="M 95.555872 277.478125 
L 97.980912 277.478125 
L 97.980912 277.478125 
L 95.555872 277.478125 
z
" clip-path="url(#p56ad9cc237)" style="fill: #1f77b4; stroke: #000000; stroke-linejoin: miter"/>
   </g>
   <g id="patch_17">
    <path d="M 97.980912 277.478125 
L 100.405953 277.478125 
L 100.405953 95.220982 
L 97.980912 95.220982 
z
" clip-path="url(#p56ad9cc237)" style="fill: #1f77b4; stroke: #000000; stroke-linejoin: miter"/>
   </g>
   <g id="patch_18">
    <path d="M 100.405953 277.478125 
L 102.830994 277.478125 
L 102.830994 216.725744 
L 100.405953 216.725744 
z
" clip-path="url(#p56ad9cc237)" style="fill: #1f77b4; stroke: #000000; stroke-linejoin: miter"/>
   </g>
   <g id="patch_19">
    <path d="M 102.830994 277.478125 
L 105.256035 277.478125 
L 105.256035 277.478125 
L 102.830994 277.478125 
z
" clip-path="url(#p56ad9cc237)" style="fill: #1f77b4; stroke: #000000; stroke-linejoin: miter"/>
   </g>
   <g id="patch_20">
    <path d="M 105.256035 277.478125 
L 107.681076 277.478125 
L 107.681076 277.478125 
L 105.256035 277.478125 
z
" clip-path="url(#p56ad9cc237)" style="fill: #1f77b4; stroke: #000000; stroke-linejoin: miter"/>
   </g>
   <g id="patch_21">
    <path d="M 107.681076 277.478125 
L 110.106117 277.478125 
L 110.106117 277.478125 
L 107.681076 277.478125 
z
" clip-path="url(#p56ad9cc237)" style="fill: #1f77b4; stroke: #000000; stroke-linejoin: miter"/>
   </g>
   <g id="patch_22">
    <path d="M 110.106117 277.478125 
L 112.531157 277.478125 
L 112.531157 155.973363 
L 110.106117 155.973363 
z
" clip-path="url(#p56ad9cc237)" style="fill: #1f77b4; stroke: #000000; stroke-linejoin: miter"/>
   </g>
   <g id="patch_23">
    <path d="M 112.531157 277.478125 
L 114.956198 277.478125 
L 114.956198 277.478125 
L 112.531157 277.478125 
z
" clip-path="url(#p56ad9cc237)" style="fill: #1f77b4; stroke: #000000; stroke-linejoin: miter"/>
   </g>
   <g id="patch_24">
    <path d="M 114.956198 277.478125 
L 117.381239 277.478125 
L 117.381239 277.478125 
L 114.956198 277.478125 
z
" clip-path="url(#p56ad9cc237)" style="fill: #1f77b4; stroke: #000000; stroke-linejoin: miter"/>
   </g>
   <g id="patch_25">
    <path d="M 117.381239 277.478125 
L 119.80628 277.478125 
L 119.80628 277.478125 
L 117.381239 277.478125 
z
" clip-path="url(#p56ad9cc237)" style="fill: #1f77b4; stroke: #000000; stroke-linejoin: miter"/>
   </g>
   <g id="patch_26">
    <path d="M 119.80628 277.478125 
L 122.231321 277.478125 
L 122.231321 216.725744 
L 119.80628 216.725744 
z
" clip-path="url(#p56ad9cc237)" style="fill: #1f77b4; stroke: #000000; stroke-linejoin: miter"/>
   </g>
   <g id="patch_27">
    <path d="M 122.231321 277.478125 
L 124.656362 277.478125 
L 124.656362 216.725744 
L 122.231321 216.725744 
z
" clip-path="url(#p56ad9cc237)" style="fill: #1f77b4; stroke: #000000; stroke-linejoin: miter"/>
   </g>
   <g id="patch_28">
    <path d="M 124.656362 277.478125 
L 127.081402 277.478125 
L 127.081402 216.725744 
L 124.656362 216.725744 
z
" clip-path="url(#p56ad9cc237)" style="fill: #1f77b4; stroke: #000000; stroke-linejoin: miter"/>
   </g>
   <g id="patch_29">
    <path d="M 127.081402 277.478125 
L 129.506443 277.478125 
L 129.506443 155.973363 
L 127.081402 155.973363 
z
" clip-path="url(#p56ad9cc237)" style="fill: #1f77b4; stroke: #000000; stroke-linejoin: miter"/>
   </g>
   <g id="patch_30">
    <path d="M 129.506443 277.478125 
L 131.931484 277.478125 
L 131.931484 277.478125 
L 129.506443 277.478125 
z
" clip-path="url(#p56ad9cc237)" style="fill: #1f77b4; stroke: #000000; stroke-linejoin: miter"/>
   </g>
   <g id="patch_31">
    <path d="M 131.931484 277.478125 
L 134.356525 277.478125 
L 134.356525 216.725744 
L 131.931484 216.725744 
z
" clip-path="url(#p56ad9cc237)" style="fill: #1f77b4; stroke: #000000; stroke-linejoin: miter"/>
   </g>
   <g id="patch_32">
    <path d="M 134.356525 277.478125 
L 136.781566 277.478125 
L 136.781566 155.973363 
L 134.356525 155.973363 
z
" clip-path="url(#p56ad9cc237)" style="fill: #1f77b4; stroke: #000000; stroke-linejoin: miter"/>
   </g>
   <g id="patch_33">
    <path d="M 136.781566 277.478125 
L 139.206607 277.478125 
L 139.206607 277.478125 
L 136.781566 277.478125 
z
" clip-path="url(#p56ad9cc237)" style="fill: #1f77b4; stroke: #000000; stroke-linejoin: miter"/>
   </g>
   <g id="patch_34">
    <path d="M 139.206607 277.478125 
L 141.631647 277.478125 
L 141.631647 216.725744 
L 139.206607 216.725744 
z
" clip-path="url(#p56ad9cc237)" style="fill: #1f77b4; stroke: #000000; stroke-linejoin: miter"/>
   </g>
   <g id="patch_35">
    <path d="M 141.631647 277.478125 
L 144.056688 277.478125 
L 144.056688 277.478125 
L 141.631647 277.478125 
z
" clip-path="url(#p56ad9cc237)" style="fill: #1f77b4; stroke: #000000; stroke-linejoin: miter"/>
   </g>
   <g id="patch_36">
    <path d="M 144.056688 277.478125 
L 146.481729 277.478125 
L 146.481729 277.478125 
L 144.056688 277.478125 
z
" clip-path="url(#p56ad9cc237)" style="fill: #1f77b4; stroke: #000000; stroke-linejoin: miter"/>
   </g>
   <g id="patch_37">
    <path d="M 146.481729 277.478125 
L 148.90677 277.478125 
L 148.90677 155.973363 
L 146.481729 155.973363 
z
" clip-path="url(#p56ad9cc237)" style="fill: #1f77b4; stroke: #000000; stroke-linejoin: miter"/>
   </g>
   <g id="patch_38">
    <path d="M 148.90677 277.478125 
L 151.331811 277.478125 
L 151.331811 216.725744 
L 148.90677 216.725744 
z
" clip-path="url(#p56ad9cc237)" style="fill: #1f77b4; stroke: #000000; stroke-linejoin: miter"/>
   </g>
   <g id="patch_39">
    <path d="M 151.331811 277.478125 
L 153.756852 277.478125 
L 153.756852 277.478125 
L 151.331811 277.478125 
z
" clip-path="url(#p56ad9cc237)" style="fill: #1f77b4; stroke: #000000; stroke-linejoin: miter"/>
   </g>
   <g id="patch_40">
    <path d="M 153.756852 277.478125 
L 156.181892 277.478125 
L 156.181892 155.973363 
L 153.756852 155.973363 
z
" clip-path="url(#p56ad9cc237)" style="fill: #1f77b4; stroke: #000000; stroke-linejoin: miter"/>
   </g>
   <g id="patch_41">
    <path d="M 156.181892 277.478125 
L 158.606933 277.478125 
L 158.606933 277.478125 
L 156.181892 277.478125 
z
" clip-path="url(#p56ad9cc237)" style="fill: #1f77b4; stroke: #000000; stroke-linejoin: miter"/>
   </g>
   <g id="patch_42">
    <path d="M 158.606933 277.478125 
L 161.031974 277.478125 
L 161.031974 216.725744 
L 158.606933 216.725744 
z
" clip-path="url(#p56ad9cc237)" style="fill: #1f77b4; stroke: #000000; stroke-linejoin: miter"/>
   </g>
   <g id="patch_43">
    <path d="M 161.031974 277.478125 
L 163.457015 277.478125 
L 163.457015 216.725744 
L 161.031974 216.725744 
z
" clip-path="url(#p56ad9cc237)" style="fill: #1f77b4; stroke: #000000; stroke-linejoin: miter"/>
   </g>
   <g id="patch_44">
    <path d="M 163.457015 277.478125 
L 165.882056 277.478125 
L 165.882056 216.725744 
L 163.457015 216.725744 
z
" clip-path="url(#p56ad9cc237)" style="fill: #1f77b4; stroke: #000000; stroke-linejoin: miter"/>
   </g>
   <g id="patch_45">
    <path d="M 165.882056 277.478125 
L 168.307096 277.478125 
L 168.307096 216.725744 
L 165.882056 216.725744 
z
" clip-path="url(#p56ad9cc237)" style="fill: #1f77b4; stroke: #000000; stroke-linejoin: miter"/>
   </g>
   <g id="patch_46">
    <path d="M 168.307096 277.478125 
L 170.732137 277.478125 
L 170.732137 155.973363 
L 168.307096 155.973363 
z
" clip-path="url(#p56ad9cc237)" style="fill: #1f77b4; stroke: #000000; stroke-linejoin: miter"/>
   </g>
   <g id="patch_47">
    <path d="M 170.732137 277.478125 
L 173.157178 277.478125 
L 173.157178 216.725744 
L 170.732137 216.725744 
z
" clip-path="url(#p56ad9cc237)" style="fill: #1f77b4; stroke: #000000; stroke-linejoin: miter"/>
   </g>
   <g id="patch_48">
    <path d="M 173.157178 277.478125 
L 175.582219 277.478125 
L 175.582219 34.468601 
L 173.157178 34.468601 
z
" clip-path="url(#p56ad9cc237)" style="fill: #1f77b4; stroke: #000000; stroke-linejoin: miter"/>
   </g>
   <g id="patch_49">
    <path d="M 175.582219 277.478125 
L 178.00726 277.478125 
L 178.00726 155.973363 
L 175.582219 155.973363 
z
" clip-path="url(#p56ad9cc237)" style="fill: #1f77b4; stroke: #000000; stroke-linejoin: miter"/>
   </g>
   <g id="patch_50">
    <path d="M 178.00726 277.478125 
L 180.432301 277.478125 
L 180.432301 277.478125 
L 178.00726 277.478125 
z
" clip-path="url(#p56ad9cc237)" style="fill: #1f77b4; stroke: #000000; stroke-linejoin: miter"/>
   </g>
   <g id="patch_51">
    <path d="M 180.432301 277.478125 
L 182.857341 277.478125 
L 182.857341 216.725744 
L 180.432301 216.725744 
z
" clip-path="url(#p56ad9cc237)" style="fill: #1f77b4; stroke: #000000; stroke-linejoin: miter"/>
   </g>
   <g id="patch_52">
    <path d="M 182.857341 277.478125 
L 185.282382 277.478125 
L 185.282382 95.220982 
L 182.857341 95.220982 
z
" clip-path="url(#p56ad9cc237)" style="fill: #1f77b4; stroke: #000000; stroke-linejoin: miter"/>
   </g>
   <g id="patch_53">
    <path d="M 185.282382 277.478125 
L 187.707423 277.478125 
L 187.707423 216.725744 
L 185.282382 216.725744 
z
" clip-path="url(#p56ad9cc237)" style="fill: #1f77b4; stroke: #000000; stroke-linejoin: miter"/>
   </g>
   <g id="patch_54">
    <path d="M 187.707423 277.478125 
L 190.132464 277.478125 
L 190.132464 34.468601 
L 187.707423 34.468601 
z
" clip-path="url(#p56ad9cc237)" style="fill: #1f77b4; stroke: #000000; stroke-linejoin: miter"/>
   </g>
   <g id="patch_55">
    <path d="M 190.132464 277.478125 
L 192.557505 277.478125 
L 192.557505 95.220982 
L 190.132464 95.220982 
z
" clip-path="url(#p56ad9cc237)" style="fill: #1f77b4; stroke: #000000; stroke-linejoin: miter"/>
   </g>
   <g id="patch_56">
    <path d="M 192.557505 277.478125 
L 194.982546 277.478125 
L 194.982546 155.973363 
L 192.557505 155.973363 
z
" clip-path="url(#p56ad9cc237)" style="fill: #1f77b4; stroke: #000000; stroke-linejoin: miter"/>
   </g>
   <g id="patch_57">
    <path d="M 194.982546 277.478125 
L 197.407586 277.478125 
L 197.407586 155.973363 
L 194.982546 155.973363 
z
" clip-path="url(#p56ad9cc237)" style="fill: #1f77b4; stroke: #000000; stroke-linejoin: miter"/>
   </g>
   <g id="patch_58">
    <path d="M 197.407586 277.478125 
L 199.832627 277.478125 
L 199.832627 277.478125 
L 197.407586 277.478125 
z
" clip-path="url(#p56ad9cc237)" style="fill: #1f77b4; stroke: #000000; stroke-linejoin: miter"/>
   </g>
   <g id="patch_59">
    <path d="M 199.832627 277.478125 
L 202.257668 277.478125 
L 202.257668 277.478125 
L 199.832627 277.478125 
z
" clip-path="url(#p56ad9cc237)" style="fill: #1f77b4; stroke: #000000; stroke-linejoin: miter"/>
   </g>
   <g id="patch_60">
    <path d="M 202.257668 277.478125 
L 204.682709 277.478125 
L 204.682709 216.725744 
L 202.257668 216.725744 
z
" clip-path="url(#p56ad9cc237)" style="fill: #1f77b4; stroke: #000000; stroke-linejoin: miter"/>
   </g>
   <g id="patch_61">
    <path d="M 204.682709 277.478125 
L 207.10775 277.478125 
L 207.10775 155.973363 
L 204.682709 155.973363 
z
" clip-path="url(#p56ad9cc237)" style="fill: #1f77b4; stroke: #000000; stroke-linejoin: miter"/>
   </g>
   <g id="patch_62">
    <path d="M 207.10775 277.478125 
L 209.532791 277.478125 
L 209.532791 216.725744 
L 207.10775 216.725744 
z
" clip-path="url(#p56ad9cc237)" style="fill: #1f77b4; stroke: #000000; stroke-linejoin: miter"/>
   </g>
   <g id="patch_63">
    <path d="M 209.532791 277.478125 
L 211.957831 277.478125 
L 211.957831 216.725744 
L 209.532791 216.725744 
z
" clip-path="url(#p56ad9cc237)" style="fill: #1f77b4; stroke: #000000; stroke-linejoin: miter"/>
   </g>
   <g id="patch_64">
    <path d="M 211.957831 277.478125 
L 214.382872 277.478125 
L 214.382872 216.725744 
L 211.957831 216.725744 
z
" clip-path="url(#p56ad9cc237)" style="fill: #1f77b4; stroke: #000000; stroke-linejoin: miter"/>
   </g>
   <g id="patch_65">
    <path d="M 214.382872 277.478125 
L 216.807913 277.478125 
L 216.807913 216.725744 
L 214.382872 216.725744 
z
" clip-path="url(#p56ad9cc237)" style="fill: #1f77b4; stroke: #000000; stroke-linejoin: miter"/>
   </g>
   <g id="patch_66">
    <path d="M 216.807913 277.478125 
L 219.232954 277.478125 
L 219.232954 277.478125 
L 216.807913 277.478125 
z
" clip-path="url(#p56ad9cc237)" style="fill: #1f77b4; stroke: #000000; stroke-linejoin: miter"/>
   </g>
   <g id="patch_67">
    <path d="M 219.232954 277.478125 
L 221.657995 277.478125 
L 221.657995 155.973363 
L 219.232954 155.973363 
z
" clip-path="url(#p56ad9cc237)" style="fill: #1f77b4; stroke: #000000; stroke-linejoin: miter"/>
   </g>
   <g id="patch_68">
    <path d="M 221.657995 277.478125 
L 224.083036 277.478125 
L 224.083036 216.725744 
L 221.657995 216.725744 
z
" clip-path="url(#p56ad9cc237)" style="fill: #1f77b4; stroke: #000000; stroke-linejoin: miter"/>
   </g>
   <g id="patch_69">
    <path d="M 224.083036 277.478125 
L 226.508076 277.478125 
L 226.508076 277.478125 
L 224.083036 277.478125 
z
" clip-path="url(#p56ad9cc237)" style="fill: #1f77b4; stroke: #000000; stroke-linejoin: miter"/>
   </g>
   <g id="patch_70">
    <path d="M 226.508076 277.478125 
L 228.933117 277.478125 
L 228.933117 155.973363 
L 226.508076 155.973363 
z
" clip-path="url(#p56ad9cc237)" style="fill: #1f77b4; stroke: #000000; stroke-linejoin: miter"/>
   </g>
   <g id="patch_71">
    <path d="M 228.933117 277.478125 
L 231.358158 277.478125 
L 231.358158 95.220982 
L 228.933117 95.220982 
z
" clip-path="url(#p56ad9cc237)" style="fill: #1f77b4; stroke: #000000; stroke-linejoin: miter"/>
   </g>
   <g id="patch_72">
    <path d="M 231.358158 277.478125 
L 233.783199 277.478125 
L 233.783199 277.478125 
L 231.358158 277.478125 
z
" clip-path="url(#p56ad9cc237)" style="fill: #1f77b4; stroke: #000000; stroke-linejoin: miter"/>
   </g>
   <g id="patch_73">
    <path d="M 233.783199 277.478125 
L 236.20824 277.478125 
L 236.20824 277.478125 
L 233.783199 277.478125 
z
" clip-path="url(#p56ad9cc237)" style="fill: #1f77b4; stroke: #000000; stroke-linejoin: miter"/>
   </g>
   <g id="patch_74">
    <path d="M 236.20824 277.478125 
L 238.63328 277.478125 
L 238.63328 216.725744 
L 236.20824 216.725744 
z
" clip-path="url(#p56ad9cc237)" style="fill: #1f77b4; stroke: #000000; stroke-linejoin: miter"/>
   </g>
   <g id="patch_75">
    <path d="M 238.63328 277.478125 
L 241.058321 277.478125 
L 241.058321 216.725744 
L 238.63328 216.725744 
z
" clip-path="url(#p56ad9cc237)" style="fill: #1f77b4; stroke: #000000; stroke-linejoin: miter"/>
   </g>
   <g id="patch_76">
    <path d="M 241.058321 277.478125 
L 243.483362 277.478125 
L 243.483362 277.478125 
L 241.058321 277.478125 
z
" clip-path="url(#p56ad9cc237)" style="fill: #1f77b4; stroke: #000000; stroke-linejoin: miter"/>
   </g>
   <g id="patch_77">
    <path d="M 243.483362 277.478125 
L 245.908403 277.478125 
L 245.908403 277.478125 
L 243.483362 277.478125 
z
" clip-path="url(#p56ad9cc237)" style="fill: #1f77b4; stroke: #000000; stroke-linejoin: miter"/>
   </g>
   <g id="patch_78">
    <path d="M 245.908403 277.478125 
L 248.333444 277.478125 
L 248.333444 155.973363 
L 245.908403 155.973363 
z
" clip-path="url(#p56ad9cc237)" style="fill: #1f77b4; stroke: #000000; stroke-linejoin: miter"/>
   </g>
   <g id="patch_79">
    <path d="M 248.333444 277.478125 
L 250.758485 277.478125 
L 250.758485 155.973363 
L 248.333444 155.973363 
z
" clip-path="url(#p56ad9cc237)" style="fill: #1f77b4; stroke: #000000; stroke-linejoin: miter"/>
   </g>
   <g id="patch_80">
    <path d="M 250.758485 277.478125 
L 253.183525 277.478125 
L 253.183525 155.973363 
L 250.758485 155.973363 
z
" clip-path="url(#p56ad9cc237)" style="fill: #1f77b4; stroke: #000000; stroke-linejoin: miter"/>
   </g>
   <g id="patch_81">
    <path d="M 253.183525 277.478125 
L 255.608566 277.478125 
L 255.608566 277.478125 
L 253.183525 277.478125 
z
" clip-path="url(#p56ad9cc237)" style="fill: #1f77b4; stroke: #000000; stroke-linejoin: miter"/>
   </g>
   <g id="patch_82">
    <path d="M 255.608566 277.478125 
L 258.033607 277.478125 
L 258.033607 216.725744 
L 255.608566 216.725744 
z
" clip-path="url(#p56ad9cc237)" style="fill: #1f77b4; stroke: #000000; stroke-linejoin: miter"/>
   </g>
   <g id="patch_83">
    <path d="M 258.033607 277.478125 
L 260.458648 277.478125 
L 260.458648 277.478125 
L 258.033607 277.478125 
z
" clip-path="url(#p56ad9cc237)" style="fill: #1f77b4; stroke: #000000; stroke-linejoin: miter"/>
   </g>
   <g id="patch_84">
    <path d="M 260.458648 277.478125 
L 262.883689 277.478125 
L 262.883689 277.478125 
L 260.458648 277.478125 
z
" clip-path="url(#p56ad9cc237)" style="fill: #1f77b4; stroke: #000000; stroke-linejoin: miter"/>
   </g>
   <g id="patch_85">
    <path d="M 262.883689 277.478125 
L 265.30873 277.478125 
L 265.30873 216.725744 
L 262.883689 216.725744 
z
" clip-path="url(#p56ad9cc237)" style="fill: #1f77b4; stroke: #000000; stroke-linejoin: miter"/>
   </g>
   <g id="patch_86">
    <path d="M 265.30873 277.478125 
L 267.73377 277.478125 
L 267.73377 277.478125 
L 265.30873 277.478125 
z
" clip-path="url(#p56ad9cc237)" style="fill: #1f77b4; stroke: #000000; stroke-linejoin: miter"/>
   </g>
   <g id="patch_87">
    <path d="M 267.73377 277.478125 
L 270.158811 277.478125 
L 270.158811 277.478125 
L 267.73377 277.478125 
z
" clip-path="url(#p56ad9cc237)" style="fill: #1f77b4; stroke: #000000; stroke-linejoin: miter"/>
   </g>
   <g id="patch_88">
    <path d="M 270.158811 277.478125 
L 272.583852 277.478125 
L 272.583852 277.478125 
L 270.158811 277.478125 
z
" clip-path="url(#p56ad9cc237)" style="fill: #1f77b4; stroke: #000000; stroke-linejoin: miter"/>
   </g>
   <g id="patch_89">
    <path d="M 272.583852 277.478125 
L 275.008893 277.478125 
L 275.008893 216.725744 
L 272.583852 216.725744 
z
" clip-path="url(#p56ad9cc237)" style="fill: #1f77b4; stroke: #000000; stroke-linejoin: miter"/>
   </g>
   <g id="patch_90">
    <path d="M 275.008893 277.478125 
L 277.433934 277.478125 
L 277.433934 277.478125 
L 275.008893 277.478125 
z
" clip-path="url(#p56ad9cc237)" style="fill: #1f77b4; stroke: #000000; stroke-linejoin: miter"/>
   </g>
   <g id="patch_91">
    <path d="M 277.433934 277.478125 
L 279.858975 277.478125 
L 279.858975 277.478125 
L 277.433934 277.478125 
z
" clip-path="url(#p56ad9cc237)" style="fill: #1f77b4; stroke: #000000; stroke-linejoin: miter"/>
   </g>
   <g id="patch_92">
    <path d="M 279.858975 277.478125 
L 282.284015 277.478125 
L 282.284015 155.973363 
L 279.858975 155.973363 
z
" clip-path="url(#p56ad9cc237)" style="fill: #1f77b4; stroke: #000000; stroke-linejoin: miter"/>
   </g>
   <g id="patch_93">
    <path d="M 282.284015 277.478125 
L 284.709056 277.478125 
L 284.709056 277.478125 
L 282.284015 277.478125 
z
" clip-path="url(#p56ad9cc237)" style="fill: #1f77b4; stroke: #000000; stroke-linejoin: miter"/>
   </g>
   <g id="patch_94">
    <path d="M 284.709056 277.478125 
L 287.134097 277.478125 
L 287.134097 155.973363 
L 284.709056 155.973363 
z
" clip-path="url(#p56ad9cc237)" style="fill: #1f77b4; stroke: #000000; stroke-linejoin: miter"/>
   </g>
   <g id="patch_95">
    <path d="M 287.134097 277.478125 
L 289.559138 277.478125 
L 289.559138 277.478125 
L 287.134097 277.478125 
z
" clip-path="url(#p56ad9cc237)" style="fill: #1f77b4; stroke: #000000; stroke-linejoin: miter"/>
   </g>
   <g id="patch_96">
    <path d="M 289.559138 277.478125 
L 291.984179 277.478125 
L 291.984179 216.725744 
L 289.559138 216.725744 
z
" clip-path="url(#p56ad9cc237)" style="fill: #1f77b4; stroke: #000000; stroke-linejoin: miter"/>
   </g>
   <g id="patch_97">
    <path d="M 291.984179 277.478125 
L 294.40922 277.478125 
L 294.40922 277.478125 
L 291.984179 277.478125 
z
" clip-path="url(#p56ad9cc237)" style="fill: #1f77b4; stroke: #000000; stroke-linejoin: miter"/>
   </g>
   <g id="patch_98">
    <path d="M 294.40922 277.478125 
L 296.83426 277.478125 
L 296.83426 277.478125 
L 294.40922 277.478125 
z
" clip-path="url(#p56ad9cc237)" style="fill: #1f77b4; stroke: #000000; stroke-linejoin: miter"/>
   </g>
   <g id="patch_99">
    <path d="M 296.83426 277.478125 
L 299.259301 277.478125 
L 299.259301 216.725744 
L 296.83426 216.725744 
z
" clip-path="url(#p56ad9cc237)" style="fill: #1f77b4; stroke: #000000; stroke-linejoin: miter"/>
   </g>
   <g id="patch_100">
    <path d="M 299.259301 277.478125 
L 301.684342 277.478125 
L 301.684342 277.478125 
L 299.259301 277.478125 
z
" clip-path="url(#p56ad9cc237)" style="fill: #1f77b4; stroke: #000000; stroke-linejoin: miter"/>
   </g>
   <g id="patch_101">
    <path d="M 301.684342 277.478125 
L 304.109383 277.478125 
L 304.109383 277.478125 
L 301.684342 277.478125 
z
" clip-path="url(#p56ad9cc237)" style="fill: #1f77b4; stroke: #000000; stroke-linejoin: miter"/>
   </g>
   <g id="patch_102">
    <path d="M 304.109383 277.478125 
L 306.534424 277.478125 
L 306.534424 277.478125 
L 304.109383 277.478125 
z
" clip-path="url(#p56ad9cc237)" style="fill: #1f77b4; stroke: #000000; stroke-linejoin: miter"/>
   </g>
   <g id="patch_103">
    <path d="M 306.534424 277.478125 
L 308.959464 277.478125 
L 308.959464 216.725744 
L 306.534424 216.725744 
z
" clip-path="url(#p56ad9cc237)" style="fill: #1f77b4; stroke: #000000; stroke-linejoin: miter"/>
   </g>
   <g id="patch_104">
    <path d="M 308.959464 277.478125 
L 311.384505 277.478125 
L 311.384505 277.478125 
L 308.959464 277.478125 
z
" clip-path="url(#p56ad9cc237)" style="fill: #1f77b4; stroke: #000000; stroke-linejoin: miter"/>
   </g>
   <g id="patch_105">
    <path d="M 311.384505 277.478125 
L 313.809546 277.478125 
L 313.809546 277.478125 
L 311.384505 277.478125 
z
" clip-path="url(#p56ad9cc237)" style="fill: #1f77b4; stroke: #000000; stroke-linejoin: miter"/>
   </g>
   <g id="patch_106">
    <path d="M 313.809546 277.478125 
L 316.234587 277.478125 
L 316.234587 216.725744 
L 313.809546 216.725744 
z
" clip-path="url(#p56ad9cc237)" style="fill: #1f77b4; stroke: #000000; stroke-linejoin: miter"/>
   </g>
   <g id="patch_107">
    <path d="M 316.234587 277.478125 
L 318.659628 277.478125 
L 318.659628 216.725744 
L 316.234587 216.725744 
z
" clip-path="url(#p56ad9cc237)" style="fill: #1f77b4; stroke: #000000; stroke-linejoin: miter"/>
   </g>
   <g id="patch_108">
    <path d="M 318.659628 277.478125 
L 321.084669 277.478125 
L 321.084669 277.478125 
L 318.659628 277.478125 
z
" clip-path="url(#p56ad9cc237)" style="fill: #1f77b4; stroke: #000000; stroke-linejoin: miter"/>
   </g>
   <g id="patch_109">
    <path d="M 321.084669 277.478125 
L 323.509709 277.478125 
L 323.509709 277.478125 
L 321.084669 277.478125 
z
" clip-path="url(#p56ad9cc237)" style="fill: #1f77b4; stroke: #000000; stroke-linejoin: miter"/>
   </g>
   <g id="patch_110">
    <path d="M 323.509709 277.478125 
L 325.93475 277.478125 
L 325.93475 277.478125 
L 323.509709 277.478125 
z
" clip-path="url(#p56ad9cc237)" style="fill: #1f77b4; stroke: #000000; stroke-linejoin: miter"/>
   </g>
   <g id="patch_111">
    <path d="M 325.93475 277.478125 
L 328.359791 277.478125 
L 328.359791 277.478125 
L 325.93475 277.478125 
z
" clip-path="url(#p56ad9cc237)" style="fill: #1f77b4; stroke: #000000; stroke-linejoin: miter"/>
   </g>
   <g id="patch_112">
    <path d="M 328.359791 277.478125 
L 330.784832 277.478125 
L 330.784832 277.478125 
L 328.359791 277.478125 
z
" clip-path="url(#p56ad9cc237)" style="fill: #1f77b4; stroke: #000000; stroke-linejoin: miter"/>
   </g>
   <g id="patch_113">
    <path d="M 330.784832 277.478125 
L 333.209873 277.478125 
L 333.209873 216.725744 
L 330.784832 216.725744 
z
" clip-path="url(#p56ad9cc237)" style="fill: #1f77b4; stroke: #000000; stroke-linejoin: miter"/>
   </g>
   <g id="patch_114">
    <path d="M 333.209873 277.478125 
L 335.634914 277.478125 
L 335.634914 277.478125 
L 333.209873 277.478125 
z
" clip-path="url(#p56ad9cc237)" style="fill: #1f77b4; stroke: #000000; stroke-linejoin: miter"/>
   </g>
   <g id="patch_115">
    <path d="M 335.634914 277.478125 
L 338.059954 277.478125 
L 338.059954 277.478125 
L 335.634914 277.478125 
z
" clip-path="url(#p56ad9cc237)" style="fill: #1f77b4; stroke: #000000; stroke-linejoin: miter"/>
   </g>
   <g id="patch_116">
    <path d="M 338.059954 277.478125 
L 340.484995 277.478125 
L 340.484995 277.478125 
L 338.059954 277.478125 
z
" clip-path="url(#p56ad9cc237)" style="fill: #1f77b4; stroke: #000000; stroke-linejoin: miter"/>
   </g>
   <g id="patch_117">
    <path d="M 340.484995 277.478125 
L 342.910036 277.478125 
L 342.910036 277.478125 
L 340.484995 277.478125 
z
" clip-path="url(#p56ad9cc237)" style="fill: #1f77b4; stroke: #000000; stroke-linejoin: miter"/>
   </g>
   <g id="patch_118">
    <path d="M 342.910036 277.478125 
L 345.335077 277.478125 
L 345.335077 277.478125 
L 342.910036 277.478125 
z
" clip-path="url(#p56ad9cc237)" style="fill: #1f77b4; stroke: #000000; stroke-linejoin: miter"/>
   </g>
   <g id="patch_119">
    <path d="M 345.335077 277.478125 
L 347.760118 277.478125 
L 347.760118 277.478125 
L 345.335077 277.478125 
z
" clip-path="url(#p56ad9cc237)" style="fill: #1f77b4; stroke: #000000; stroke-linejoin: miter"/>
   </g>
   <g id="patch_120">
    <path d="M 347.760118 277.478125 
L 350.185159 277.478125 
L 350.185159 277.478125 
L 347.760118 277.478125 
z
" clip-path="url(#p56ad9cc237)" style="fill: #1f77b4; stroke: #000000; stroke-linejoin: miter"/>
   </g>
   <g id="patch_121">
    <path d="M 350.185159 277.478125 
L 352.610199 277.478125 
L 352.610199 277.478125 
L 350.185159 277.478125 
z
" clip-path="url(#p56ad9cc237)" style="fill: #1f77b4; stroke: #000000; stroke-linejoin: miter"/>
   </g>
   <g id="patch_122">
    <path d="M 352.610199 277.478125 
L 355.03524 277.478125 
L 355.03524 277.478125 
L 352.610199 277.478125 
z
" clip-path="url(#p56ad9cc237)" style="fill: #1f77b4; stroke: #000000; stroke-linejoin: miter"/>
   </g>
   <g id="patch_123">
    <path d="M 355.03524 277.478125 
L 357.460281 277.478125 
L 357.460281 155.973363 
L 355.03524 155.973363 
z
" clip-path="url(#p56ad9cc237)" style="fill: #1f77b4; stroke: #000000; stroke-linejoin: miter"/>
   </g>
   <g id="patch_124">
    <path d="M 357.460281 277.478125 
L 359.885322 277.478125 
L 359.885322 277.478125 
L 357.460281 277.478125 
z
" clip-path="url(#p56ad9cc237)" style="fill: #1f77b4; stroke: #000000; stroke-linejoin: miter"/>
   </g>
   <g id="patch_125">
    <path d="M 359.885322 277.478125 
L 362.310363 277.478125 
L 362.310363 277.478125 
L 359.885322 277.478125 
z
" clip-path="url(#p56ad9cc237)" style="fill: #1f77b4; stroke: #000000; stroke-linejoin: miter"/>
   </g>
   <g id="patch_126">
    <path d="M 362.310363 277.478125 
L 364.735404 277.478125 
L 364.735404 277.478125 
L 362.310363 277.478125 
z
" clip-path="url(#p56ad9cc237)" style="fill: #1f77b4; stroke: #000000; stroke-linejoin: miter"/>
   </g>
   <g id="patch_127">
    <path d="M 364.735404 277.478125 
L 367.160444 277.478125 
L 367.160444 277.478125 
L 364.735404 277.478125 
z
" clip-path="url(#p56ad9cc237)" style="fill: #1f77b4; stroke: #000000; stroke-linejoin: miter"/>
   </g>
   <g id="patch_128">
    <path d="M 367.160444 277.478125 
L 369.585485 277.478125 
L 369.585485 277.478125 
L 367.160444 277.478125 
z
" clip-path="url(#p56ad9cc237)" style="fill: #1f77b4; stroke: #000000; stroke-linejoin: miter"/>
   </g>
   <g id="patch_129">
    <path d="M 369.585485 277.478125 
L 372.010526 277.478125 
L 372.010526 277.478125 
L 369.585485 277.478125 
z
" clip-path="url(#p56ad9cc237)" style="fill: #1f77b4; stroke: #000000; stroke-linejoin: miter"/>
   </g>
   <g id="patch_130">
    <path d="M 372.010526 277.478125 
L 374.435567 277.478125 
L 374.435567 277.478125 
L 372.010526 277.478125 
z
" clip-path="url(#p56ad9cc237)" style="fill: #1f77b4; stroke: #000000; stroke-linejoin: miter"/>
   </g>
   <g id="patch_131">
    <path d="M 374.435567 277.478125 
L 376.860608 277.478125 
L 376.860608 277.478125 
L 374.435567 277.478125 
z
" clip-path="url(#p56ad9cc237)" style="fill: #1f77b4; stroke: #000000; stroke-linejoin: miter"/>
   </g>
   <g id="patch_132">
    <path d="M 376.860608 277.478125 
L 379.285648 277.478125 
L 379.285648 277.478125 
L 376.860608 277.478125 
z
" clip-path="url(#p56ad9cc237)" style="fill: #1f77b4; stroke: #000000; stroke-linejoin: miter"/>
   </g>
   <g id="patch_133">
    <path d="M 379.285648 277.478125 
L 381.710689 277.478125 
L 381.710689 277.478125 
L 379.285648 277.478125 
z
" clip-path="url(#p56ad9cc237)" style="fill: #1f77b4; stroke: #000000; stroke-linejoin: miter"/>
   </g>
   <g id="patch_134">
    <path d="M 381.710689 277.478125 
L 384.13573 277.478125 
L 384.13573 277.478125 
L 381.710689 277.478125 
z
" clip-path="url(#p56ad9cc237)" style="fill: #1f77b4; stroke: #000000; stroke-linejoin: miter"/>
   </g>
   <g id="patch_135">
    <path d="M 384.13573 277.478125 
L 386.560771 277.478125 
L 386.560771 277.478125 
L 384.13573 277.478125 
z
" clip-path="url(#p56ad9cc237)" style="fill: #1f77b4; stroke: #000000; stroke-linejoin: miter"/>
   </g>
   <g id="patch_136">
    <path d="M 386.560771 277.478125 
L 388.985812 277.478125 
L 388.985812 277.478125 
L 386.560771 277.478125 
z
" clip-path="url(#p56ad9cc237)" style="fill: #1f77b4; stroke: #000000; stroke-linejoin: miter"/>
   </g>
   <g id="patch_137">
    <path d="M 388.985812 277.478125 
L 391.410853 277.478125 
L 391.410853 277.478125 
L 388.985812 277.478125 
z
" clip-path="url(#p56ad9cc237)" style="fill: #1f77b4; stroke: #000000; stroke-linejoin: miter"/>
   </g>
   <g id="patch_138">
    <path d="M 391.410853 277.478125 
L 393.835893 277.478125 
L 393.835893 277.478125 
L 391.410853 277.478125 
z
" clip-path="url(#p56ad9cc237)" style="fill: #1f77b4; stroke: #000000; stroke-linejoin: miter"/>
   </g>
   <g id="patch_139">
    <path d="M 393.835893 277.478125 
L 396.260934 277.478125 
L 396.260934 277.478125 
L 393.835893 277.478125 
z
" clip-path="url(#p56ad9cc237)" style="fill: #1f77b4; stroke: #000000; stroke-linejoin: miter"/>
   </g>
   <g id="patch_140">
    <path d="M 396.260934 277.478125 
L 398.685975 277.478125 
L 398.685975 277.478125 
L 396.260934 277.478125 
z
" clip-path="url(#p56ad9cc237)" style="fill: #1f77b4; stroke: #000000; stroke-linejoin: miter"/>
   </g>
   <g id="patch_141">
    <path d="M 398.685975 277.478125 
L 401.111016 277.478125 
L 401.111016 155.973363 
L 398.685975 155.973363 
z
" clip-path="url(#p56ad9cc237)" style="fill: #1f77b4; stroke: #000000; stroke-linejoin: miter"/>
   </g>
   <g id="patch_142">
    <path d="M 401.111016 277.478125 
L 403.536057 277.478125 
L 403.536057 277.478125 
L 401.111016 277.478125 
z
" clip-path="url(#p56ad9cc237)" style="fill: #1f77b4; stroke: #000000; stroke-linejoin: miter"/>
   </g>
   <g id="patch_143">
    <path d="M 403.536057 277.478125 
L 405.961098 277.478125 
L 405.961098 277.478125 
L 403.536057 277.478125 
z
" clip-path="url(#p56ad9cc237)" style="fill: #1f77b4; stroke: #000000; stroke-linejoin: miter"/>
   </g>
   <g id="patch_144">
    <path d="M 405.961098 277.478125 
L 408.386138 277.478125 
L 408.386138 277.478125 
L 405.961098 277.478125 
z
" clip-path="url(#p56ad9cc237)" style="fill: #1f77b4; stroke: #000000; stroke-linejoin: miter"/>
   </g>
   <g id="patch_145">
    <path d="M 408.386138 277.478125 
L 410.811179 277.478125 
L 410.811179 277.478125 
L 408.386138 277.478125 
z
" clip-path="url(#p56ad9cc237)" style="fill: #1f77b4; stroke: #000000; stroke-linejoin: miter"/>
   </g>
   <g id="patch_146">
    <path d="M 410.811179 277.478125 
L 413.23622 277.478125 
L 413.23622 277.478125 
L 410.811179 277.478125 
z
" clip-path="url(#p56ad9cc237)" style="fill: #1f77b4; stroke: #000000; stroke-linejoin: miter"/>
   </g>
   <g id="patch_147">
    <path d="M 413.23622 277.478125 
L 415.661261 277.478125 
L 415.661261 277.478125 
L 413.23622 277.478125 
z
" clip-path="url(#p56ad9cc237)" style="fill: #1f77b4; stroke: #000000; stroke-linejoin: miter"/>
   </g>
   <g id="patch_148">
    <path d="M 415.661261 277.478125 
L 418.086302 277.478125 
L 418.086302 277.478125 
L 415.661261 277.478125 
z
" clip-path="url(#p56ad9cc237)" style="fill: #1f77b4; stroke: #000000; stroke-linejoin: miter"/>
   </g>
   <g id="patch_149">
    <path d="M 418.086302 277.478125 
L 420.511343 277.478125 
L 420.511343 277.478125 
L 418.086302 277.478125 
z
" clip-path="url(#p56ad9cc237)" style="fill: #1f77b4; stroke: #000000; stroke-linejoin: miter"/>
   </g>
   <g id="patch_150">
    <path d="M 420.511343 277.478125 
L 422.936383 277.478125 
L 422.936383 277.478125 
L 420.511343 277.478125 
z
" clip-path="url(#p56ad9cc237)" style="fill: #1f77b4; stroke: #000000; stroke-linejoin: miter"/>
   </g>
   <g id="patch_151">
    <path d="M 422.936383 277.478125 
L 425.361424 277.478125 
L 425.361424 277.478125 
L 422.936383 277.478125 
z
" clip-path="url(#p56ad9cc237)" style="fill: #1f77b4; stroke: #000000; stroke-linejoin: miter"/>
   </g>
   <g id="patch_152">
    <path d="M 425.361424 277.478125 
L 427.786465 277.478125 
L 427.786465 277.478125 
L 425.361424 277.478125 
z
" clip-path="url(#p56ad9cc237)" style="fill: #1f77b4; stroke: #000000; stroke-linejoin: miter"/>
   </g>
   <g id="patch_153">
    <path d="M 427.786465 277.478125 
L 430.211506 277.478125 
L 430.211506 277.478125 
L 427.786465 277.478125 
z
" clip-path="url(#p56ad9cc237)" style="fill: #1f77b4; stroke: #000000; stroke-linejoin: miter"/>
   </g>
   <g id="patch_154">
    <path d="M 430.211506 277.478125 
L 432.636547 277.478125 
L 432.636547 277.478125 
L 430.211506 277.478125 
z
" clip-path="url(#p56ad9cc237)" style="fill: #1f77b4; stroke: #000000; stroke-linejoin: miter"/>
   </g>
   <g id="patch_155">
    <path d="M 432.636547 277.478125 
L 435.061588 277.478125 
L 435.061588 277.478125 
L 432.636547 277.478125 
z
" clip-path="url(#p56ad9cc237)" style="fill: #1f77b4; stroke: #000000; stroke-linejoin: miter"/>
   </g>
   <g id="patch_156">
    <path d="M 435.061588 277.478125 
L 437.486628 277.478125 
L 437.486628 277.478125 
L 435.061588 277.478125 
z
" clip-path="url(#p56ad9cc237)" style="fill: #1f77b4; stroke: #000000; stroke-linejoin: miter"/>
   </g>
   <g id="patch_157">
    <path d="M 437.486628 277.478125 
L 439.911669 277.478125 
L 439.911669 277.478125 
L 437.486628 277.478125 
z
" clip-path="url(#p56ad9cc237)" style="fill: #1f77b4; stroke: #000000; stroke-linejoin: miter"/>
   </g>
   <g id="patch_158">
    <path d="M 439.911669 277.478125 
L 442.33671 277.478125 
L 442.33671 277.478125 
L 439.911669 277.478125 
z
" clip-path="url(#p56ad9cc237)" style="fill: #1f77b4; stroke: #000000; stroke-linejoin: miter"/>
   </g>
   <g id="patch_159">
    <path d="M 442.33671 277.478125 
L 444.761751 277.478125 
L 444.761751 277.478125 
L 442.33671 277.478125 
z
" clip-path="url(#p56ad9cc237)" style="fill: #1f77b4; stroke: #000000; stroke-linejoin: miter"/>
   </g>
   <g id="patch_160">
    <path d="M 444.761751 277.478125 
L 447.186792 277.478125 
L 447.186792 277.478125 
L 444.761751 277.478125 
z
" clip-path="url(#p56ad9cc237)" style="fill: #1f77b4; stroke: #000000; stroke-linejoin: miter"/>
   </g>
   <g id="patch_161">
    <path d="M 447.186792 277.478125 
L 449.611832 277.478125 
L 449.611832 277.478125 
L 447.186792 277.478125 
z
" clip-path="url(#p56ad9cc237)" style="fill: #1f77b4; stroke: #000000; stroke-linejoin: miter"/>
   </g>
   <g id="patch_162">
    <path d="M 449.611832 277.478125 
L 452.036873 277.478125 
L 452.036873 277.478125 
L 449.611832 277.478125 
z
" clip-path="url(#p56ad9cc237)" style="fill: #1f77b4; stroke: #000000; stroke-linejoin: miter"/>
   </g>
   <g id="patch_163">
    <path d="M 452.036873 277.478125 
L 454.461914 277.478125 
L 454.461914 277.478125 
L 452.036873 277.478125 
z
" clip-path="url(#p56ad9cc237)" style="fill: #1f77b4; stroke: #000000; stroke-linejoin: miter"/>
   </g>
   <g id="patch_164">
    <path d="M 454.461914 277.478125 
L 456.886955 277.478125 
L 456.886955 277.478125 
L 454.461914 277.478125 
z
" clip-path="url(#p56ad9cc237)" style="fill: #1f77b4; stroke: #000000; stroke-linejoin: miter"/>
   </g>
   <g id="patch_165">
    <path d="M 456.886955 277.478125 
L 459.311996 277.478125 
L 459.311996 277.478125 
L 456.886955 277.478125 
z
" clip-path="url(#p56ad9cc237)" style="fill: #1f77b4; stroke: #000000; stroke-linejoin: miter"/>
   </g>
   <g id="patch_166">
    <path d="M 459.311996 277.478125 
L 461.737037 277.478125 
L 461.737037 277.478125 
L 459.311996 277.478125 
z
" clip-path="url(#p56ad9cc237)" style="fill: #1f77b4; stroke: #000000; stroke-linejoin: miter"/>
   </g>
   <g id="patch_167">
    <path d="M 461.737037 277.478125 
L 464.162077 277.478125 
L 464.162077 277.478125 
L 461.737037 277.478125 
z
" clip-path="url(#p56ad9cc237)" style="fill: #1f77b4; stroke: #000000; stroke-linejoin: miter"/>
   </g>
   <g id="patch_168">
    <path d="M 464.162077 277.478125 
L 466.587118 277.478125 
L 466.587118 277.478125 
L 464.162077 277.478125 
z
" clip-path="url(#p56ad9cc237)" style="fill: #1f77b4; stroke: #000000; stroke-linejoin: miter"/>
   </g>
   <g id="patch_169">
    <path d="M 466.587118 277.478125 
L 469.012159 277.478125 
L 469.012159 216.725744 
L 466.587118 216.725744 
z
" clip-path="url(#p56ad9cc237)" style="fill: #1f77b4; stroke: #000000; stroke-linejoin: miter"/>
   </g>
   <g id="matplotlib.axis_1">
    <g id="xtick_1">
     <g id="line2d_1">
      <defs>
       <path id="m769a6fc325" d="M 0 0 
L 0 3.5 
" style="stroke: #000000; stroke-width: 0.8"/>
      </defs>
      <g>
       <use xlink:href="#m769a6fc325" x="53.117657" y="277.478125" style="stroke: #000000; stroke-width: 0.8"/>
      </g>
     </g>
     <g id="text_1">
      <!-- 25 -->
      <g transform="translate(46.755157 292.076563) scale(0.1 -0.1)">
       <defs>
        <path id="DejaVuSans-32" d="M 1228 531 
L 3431 531 
L 3431 0 
L 469 0 
L 469 531 
Q 828 903 1448 1529 
Q 2069 2156 2228 2338 
Q 2531 2678 2651 2914 
Q 2772 3150 2772 3378 
Q 2772 3750 2511 3984 
Q 2250 4219 1831 4219 
Q 1534 4219 1204 4116 
Q 875 4013 500 3803 
L 500 4441 
Q 881 4594 1212 4672 
Q 1544 4750 1819 4750 
Q 2544 4750 2975 4387 
Q 3406 4025 3406 3419 
Q 3406 3131 3298 2873 
Q 3191 2616 2906 2266 
Q 2828 2175 2409 1742 
Q 1991 1309 1228 531 
z
" transform="scale(0.015625)"/>
        <path id="DejaVuSans-35" d="M 691 4666 
L 3169 4666 
L 3169 4134 
L 1269 4134 
L 1269 2991 
Q 1406 3038 1543 3061 
Q 1681 3084 1819 3084 
Q 2600 3084 3056 2656 
Q 3513 2228 3513 1497 
Q 3513 744 3044 326 
Q 2575 -91 1722 -91 
Q 1428 -91 1123 -41 
Q 819 9 494 109 
L 494 744 
Q 775 591 1075 516 
Q 1375 441 1709 441 
Q 2250 441 2565 725 
Q 2881 1009 2881 1497 
Q 2881 1984 2565 2268 
Q 2250 2553 1709 2553 
Q 1456 2553 1204 2497 
Q 953 2441 691 2322 
L 691 4666 
z
" transform="scale(0.015625)"/>
       </defs>
       <use xlink:href="#DejaVuSans-32"/>
       <use xlink:href="#DejaVuSans-35" transform="translate(63.623047 0)"/>
      </g>
     </g>
    </g>
    <g id="xtick_2">
     <g id="line2d_2">
      <g>
       <use xlink:href="#m769a6fc325" x="113.743678" y="277.478125" style="stroke: #000000; stroke-width: 0.8"/>
      </g>
     </g>
     <g id="text_2">
      <!-- 50 -->
      <g transform="translate(107.381178 292.076563) scale(0.1 -0.1)">
       <defs>
        <path id="DejaVuSans-30" d="M 2034 4250 
Q 1547 4250 1301 3770 
Q 1056 3291 1056 2328 
Q 1056 1369 1301 889 
Q 1547 409 2034 409 
Q 2525 409 2770 889 
Q 3016 1369 3016 2328 
Q 3016 3291 2770 3770 
Q 2525 4250 2034 4250 
z
M 2034 4750 
Q 2819 4750 3233 4129 
Q 3647 3509 3647 2328 
Q 3647 1150 3233 529 
Q 2819 -91 2034 -91 
Q 1250 -91 836 529 
Q 422 1150 422 2328 
Q 422 3509 836 4129 
Q 1250 4750 2034 4750 
z
" transform="scale(0.015625)"/>
       </defs>
       <use xlink:href="#DejaVuSans-35"/>
       <use xlink:href="#DejaVuSans-30" transform="translate(63.623047 0)"/>
      </g>
     </g>
    </g>
    <g id="xtick_3">
     <g id="line2d_3">
      <g>
       <use xlink:href="#m769a6fc325" x="174.369699" y="277.478125" style="stroke: #000000; stroke-width: 0.8"/>
      </g>
     </g>
     <g id="text_3">
      <!-- 75 -->
      <g transform="translate(168.007199 292.076563) scale(0.1 -0.1)">
       <defs>
        <path id="DejaVuSans-37" d="M 525 4666 
L 3525 4666 
L 3525 4397 
L 1831 0 
L 1172 0 
L 2766 4134 
L 525 4134 
L 525 4666 
z
" transform="scale(0.015625)"/>
       </defs>
       <use xlink:href="#DejaVuSans-37"/>
       <use xlink:href="#DejaVuSans-35" transform="translate(63.623047 0)"/>
      </g>
     </g>
    </g>
    <g id="xtick_4">
     <g id="line2d_4">
      <g>
       <use xlink:href="#m769a6fc325" x="234.995719" y="277.478125" style="stroke: #000000; stroke-width: 0.8"/>
      </g>
     </g>
     <g id="text_4">
      <!-- 100 -->
      <g transform="translate(225.451969 292.076563) scale(0.1 -0.1)">
       <defs>
        <path id="DejaVuSans-31" d="M 794 531 
L 1825 531 
L 1825 4091 
L 703 3866 
L 703 4441 
L 1819 4666 
L 2450 4666 
L 2450 531 
L 3481 531 
L 3481 0 
L 794 0 
L 794 531 
z
" transform="scale(0.015625)"/>
       </defs>
       <use xlink:href="#DejaVuSans-31"/>
       <use xlink:href="#DejaVuSans-30" transform="translate(63.623047 0)"/>
       <use xlink:href="#DejaVuSans-30" transform="translate(127.246094 0)"/>
      </g>
     </g>
    </g>
    <g id="xtick_5">
     <g id="line2d_5">
      <g>
       <use xlink:href="#m769a6fc325" x="295.62174" y="277.478125" style="stroke: #000000; stroke-width: 0.8"/>
      </g>
     </g>
     <g id="text_5">
      <!-- 125 -->
      <g transform="translate(286.07799 292.076563) scale(0.1 -0.1)">
       <use xlink:href="#DejaVuSans-31"/>
       <use xlink:href="#DejaVuSans-32" transform="translate(63.623047 0)"/>
       <use xlink:href="#DejaVuSans-35" transform="translate(127.246094 0)"/>
      </g>
     </g>
    </g>
    <g id="xtick_6">
     <g id="line2d_6">
      <g>
       <use xlink:href="#m769a6fc325" x="356.247761" y="277.478125" style="stroke: #000000; stroke-width: 0.8"/>
      </g>
     </g>
     <g id="text_6">
      <!-- 150 -->
      <g transform="translate(346.704011 292.076563) scale(0.1 -0.1)">
       <use xlink:href="#DejaVuSans-31"/>
       <use xlink:href="#DejaVuSans-35" transform="translate(63.623047 0)"/>
       <use xlink:href="#DejaVuSans-30" transform="translate(127.246094 0)"/>
      </g>
     </g>
    </g>
    <g id="xtick_7">
     <g id="line2d_7">
      <g>
       <use xlink:href="#m769a6fc325" x="416.873781" y="277.478125" style="stroke: #000000; stroke-width: 0.8"/>
      </g>
     </g>
     <g id="text_7">
      <!-- 175 -->
      <g transform="translate(407.330031 292.076563) scale(0.1 -0.1)">
       <use xlink:href="#DejaVuSans-31"/>
       <use xlink:href="#DejaVuSans-37" transform="translate(63.623047 0)"/>
       <use xlink:href="#DejaVuSans-35" transform="translate(127.246094 0)"/>
      </g>
     </g>
    </g>
    <g id="xtick_8">
     <g id="line2d_8">
      <g>
       <use xlink:href="#m769a6fc325" x="477.499802" y="277.478125" style="stroke: #000000; stroke-width: 0.8"/>
      </g>
     </g>
     <g id="text_8">
      <!-- 200 -->
      <g transform="translate(467.956052 292.076563) scale(0.1 -0.1)">
       <use xlink:href="#DejaVuSans-32"/>
       <use xlink:href="#DejaVuSans-30" transform="translate(63.623047 0)"/>
       <use xlink:href="#DejaVuSans-30" transform="translate(127.246094 0)"/>
      </g>
     </g>
    </g>
    <g id="text_9">
     <!-- Unweighted codimension (per trial) -->
     <g transform="translate(178.042344 305.754687) scale(0.1 -0.1)">
      <defs>
       <path id="DejaVuSans-55" d="M 556 4666 
L 1191 4666 
L 1191 1831 
Q 1191 1081 1462 751 
Q 1734 422 2344 422 
Q 2950 422 3222 751 
Q 3494 1081 3494 1831 
L 3494 4666 
L 4128 4666 
L 4128 1753 
Q 4128 841 3676 375 
Q 3225 -91 2344 -91 
Q 1459 -91 1007 375 
Q 556 841 556 1753 
L 556 4666 
z
" transform="scale(0.015625)"/>
       <path id="DejaVuSans-6e" d="M 3513 2113 
L 3513 0 
L 2938 0 
L 2938 2094 
Q 2938 2591 2744 2837 
Q 2550 3084 2163 3084 
Q 1697 3084 1428 2787 
Q 1159 2491 1159 1978 
L 1159 0 
L 581 0 
L 581 3500 
L 1159 3500 
L 1159 2956 
Q 1366 3272 1645 3428 
Q 1925 3584 2291 3584 
Q 2894 3584 3203 3211 
Q 3513 2838 3513 2113 
z
" transform="scale(0.015625)"/>
       <path id="DejaVuSans-77" d="M 269 3500 
L 844 3500 
L 1563 769 
L 2278 3500 
L 2956 3500 
L 3675 769 
L 4391 3500 
L 4966 3500 
L 4050 0 
L 3372 0 
L 2619 2869 
L 1863 0 
L 1184 0 
L 269 3500 
z
" transform="scale(0.015625)"/>
       <path id="DejaVuSans-65" d="M 3597 1894 
L 3597 1613 
L 953 1613 
Q 991 1019 1311 708 
Q 1631 397 2203 397 
Q 2534 397 2845 478 
Q 3156 559 3463 722 
L 3463 178 
Q 3153 47 2828 -22 
Q 2503 -91 2169 -91 
Q 1331 -91 842 396 
Q 353 884 353 1716 
Q 353 2575 817 3079 
Q 1281 3584 2069 3584 
Q 2775 3584 3186 3129 
Q 3597 2675 3597 1894 
z
M 3022 2063 
Q 3016 2534 2758 2815 
Q 2500 3097 2075 3097 
Q 1594 3097 1305 2825 
Q 1016 2553 972 2059 
L 3022 2063 
z
" transform="scale(0.015625)"/>
       <path id="DejaVuSans-69" d="M 603 3500 
L 1178 3500 
L 1178 0 
L 603 0 
L 603 3500 
z
M 603 4863 
L 1178 4863 
L 1178 4134 
L 603 4134 
L 603 4863 
z
" transform="scale(0.015625)"/>
       <path id="DejaVuSans-67" d="M 2906 1791 
Q 2906 2416 2648 2759 
Q 2391 3103 1925 3103 
Q 1463 3103 1205 2759 
Q 947 2416 947 1791 
Q 947 1169 1205 825 
Q 1463 481 1925 481 
Q 2391 481 2648 825 
Q 2906 1169 2906 1791 
z
M 3481 434 
Q 3481 -459 3084 -895 
Q 2688 -1331 1869 -1331 
Q 1566 -1331 1297 -1286 
Q 1028 -1241 775 -1147 
L 775 -588 
Q 1028 -725 1275 -790 
Q 1522 -856 1778 -856 
Q 2344 -856 2625 -561 
Q 2906 -266 2906 331 
L 2906 616 
Q 2728 306 2450 153 
Q 2172 0 1784 0 
Q 1141 0 747 490 
Q 353 981 353 1791 
Q 353 2603 747 3093 
Q 1141 3584 1784 3584 
Q 2172 3584 2450 3431 
Q 2728 3278 2906 2969 
L 2906 3500 
L 3481 3500 
L 3481 434 
z
" transform="scale(0.015625)"/>
       <path id="DejaVuSans-68" d="M 3513 2113 
L 3513 0 
L 2938 0 
L 2938 2094 
Q 2938 2591 2744 2837 
Q 2550 3084 2163 3084 
Q 1697 3084 1428 2787 
Q 1159 2491 1159 1978 
L 1159 0 
L 581 0 
L 581 4863 
L 1159 4863 
L 1159 2956 
Q 1366 3272 1645 3428 
Q 1925 3584 2291 3584 
Q 2894 3584 3203 3211 
Q 3513 2838 3513 2113 
z
" transform="scale(0.015625)"/>
       <path id="DejaVuSans-74" d="M 1172 4494 
L 1172 3500 
L 2356 3500 
L 2356 3053 
L 1172 3053 
L 1172 1153 
Q 1172 725 1289 603 
Q 1406 481 1766 481 
L 2356 481 
L 2356 0 
L 1766 0 
Q 1100 0 847 248 
Q 594 497 594 1153 
L 594 3053 
L 172 3053 
L 172 3500 
L 594 3500 
L 594 4494 
L 1172 4494 
z
" transform="scale(0.015625)"/>
       <path id="DejaVuSans-64" d="M 2906 2969 
L 2906 4863 
L 3481 4863 
L 3481 0 
L 2906 0 
L 2906 525 
Q 2725 213 2448 61 
Q 2172 -91 1784 -91 
Q 1150 -91 751 415 
Q 353 922 353 1747 
Q 353 2572 751 3078 
Q 1150 3584 1784 3584 
Q 2172 3584 2448 3432 
Q 2725 3281 2906 2969 
z
M 947 1747 
Q 947 1113 1208 752 
Q 1469 391 1925 391 
Q 2381 391 2643 752 
Q 2906 1113 2906 1747 
Q 2906 2381 2643 2742 
Q 2381 3103 1925 3103 
Q 1469 3103 1208 2742 
Q 947 2381 947 1747 
z
" transform="scale(0.015625)"/>
       <path id="DejaVuSans-20" transform="scale(0.015625)"/>
       <path id="DejaVuSans-63" d="M 3122 3366 
L 3122 2828 
Q 2878 2963 2633 3030 
Q 2388 3097 2138 3097 
Q 1578 3097 1268 2742 
Q 959 2388 959 1747 
Q 959 1106 1268 751 
Q 1578 397 2138 397 
Q 2388 397 2633 464 
Q 2878 531 3122 666 
L 3122 134 
Q 2881 22 2623 -34 
Q 2366 -91 2075 -91 
Q 1284 -91 818 406 
Q 353 903 353 1747 
Q 353 2603 823 3093 
Q 1294 3584 2113 3584 
Q 2378 3584 2631 3529 
Q 2884 3475 3122 3366 
z
" transform="scale(0.015625)"/>
       <path id="DejaVuSans-6f" d="M 1959 3097 
Q 1497 3097 1228 2736 
Q 959 2375 959 1747 
Q 959 1119 1226 758 
Q 1494 397 1959 397 
Q 2419 397 2687 759 
Q 2956 1122 2956 1747 
Q 2956 2369 2687 2733 
Q 2419 3097 1959 3097 
z
M 1959 3584 
Q 2709 3584 3137 3096 
Q 3566 2609 3566 1747 
Q 3566 888 3137 398 
Q 2709 -91 1959 -91 
Q 1206 -91 779 398 
Q 353 888 353 1747 
Q 353 2609 779 3096 
Q 1206 3584 1959 3584 
z
" transform="scale(0.015625)"/>
       <path id="DejaVuSans-6d" d="M 3328 2828 
Q 3544 3216 3844 3400 
Q 4144 3584 4550 3584 
Q 5097 3584 5394 3201 
Q 5691 2819 5691 2113 
L 5691 0 
L 5113 0 
L 5113 2094 
Q 5113 2597 4934 2840 
Q 4756 3084 4391 3084 
Q 3944 3084 3684 2787 
Q 3425 2491 3425 1978 
L 3425 0 
L 2847 0 
L 2847 2094 
Q 2847 2600 2669 2842 
Q 2491 3084 2119 3084 
Q 1678 3084 1418 2786 
Q 1159 2488 1159 1978 
L 1159 0 
L 581 0 
L 581 3500 
L 1159 3500 
L 1159 2956 
Q 1356 3278 1631 3431 
Q 1906 3584 2284 3584 
Q 2666 3584 2933 3390 
Q 3200 3197 3328 2828 
z
" transform="scale(0.015625)"/>
       <path id="DejaVuSans-73" d="M 2834 3397 
L 2834 2853 
Q 2591 2978 2328 3040 
Q 2066 3103 1784 3103 
Q 1356 3103 1142 2972 
Q 928 2841 928 2578 
Q 928 2378 1081 2264 
Q 1234 2150 1697 2047 
L 1894 2003 
Q 2506 1872 2764 1633 
Q 3022 1394 3022 966 
Q 3022 478 2636 193 
Q 2250 -91 1575 -91 
Q 1294 -91 989 -36 
Q 684 19 347 128 
L 347 722 
Q 666 556 975 473 
Q 1284 391 1588 391 
Q 1994 391 2212 530 
Q 2431 669 2431 922 
Q 2431 1156 2273 1281 
Q 2116 1406 1581 1522 
L 1381 1569 
Q 847 1681 609 1914 
Q 372 2147 372 2553 
Q 372 3047 722 3315 
Q 1072 3584 1716 3584 
Q 2034 3584 2315 3537 
Q 2597 3491 2834 3397 
z
" transform="scale(0.015625)"/>
       <path id="DejaVuSans-28" d="M 1984 4856 
Q 1566 4138 1362 3434 
Q 1159 2731 1159 2009 
Q 1159 1288 1364 580 
Q 1569 -128 1984 -844 
L 1484 -844 
Q 1016 -109 783 600 
Q 550 1309 550 2009 
Q 550 2706 781 3412 
Q 1013 4119 1484 4856 
L 1984 4856 
z
" transform="scale(0.015625)"/>
       <path id="DejaVuSans-70" d="M 1159 525 
L 1159 -1331 
L 581 -1331 
L 581 3500 
L 1159 3500 
L 1159 2969 
Q 1341 3281 1617 3432 
Q 1894 3584 2278 3584 
Q 2916 3584 3314 3078 
Q 3713 2572 3713 1747 
Q 3713 922 3314 415 
Q 2916 -91 2278 -91 
Q 1894 -91 1617 61 
Q 1341 213 1159 525 
z
M 3116 1747 
Q 3116 2381 2855 2742 
Q 2594 3103 2138 3103 
Q 1681 3103 1420 2742 
Q 1159 2381 1159 1747 
Q 1159 1113 1420 752 
Q 1681 391 2138 391 
Q 2594 391 2855 752 
Q 3116 1113 3116 1747 
z
" transform="scale(0.015625)"/>
       <path id="DejaVuSans-72" d="M 2631 2963 
Q 2534 3019 2420 3045 
Q 2306 3072 2169 3072 
Q 1681 3072 1420 2755 
Q 1159 2438 1159 1844 
L 1159 0 
L 581 0 
L 581 3500 
L 1159 3500 
L 1159 2956 
Q 1341 3275 1631 3429 
Q 1922 3584 2338 3584 
Q 2397 3584 2469 3576 
Q 2541 3569 2628 3553 
L 2631 2963 
z
" transform="scale(0.015625)"/>
       <path id="DejaVuSans-61" d="M 2194 1759 
Q 1497 1759 1228 1600 
Q 959 1441 959 1056 
Q 959 750 1161 570 
Q 1363 391 1709 391 
Q 2188 391 2477 730 
Q 2766 1069 2766 1631 
L 2766 1759 
L 2194 1759 
z
M 3341 1997 
L 3341 0 
L 2766 0 
L 2766 531 
Q 2569 213 2275 61 
Q 1981 -91 1556 -91 
Q 1019 -91 701 211 
Q 384 513 384 1019 
Q 384 1609 779 1909 
Q 1175 2209 1959 2209 
L 2766 2209 
L 2766 2266 
Q 2766 2663 2505 2880 
Q 2244 3097 1772 3097 
Q 1472 3097 1187 3025 
Q 903 2953 641 2809 
L 641 3341 
Q 956 3463 1253 3523 
Q 1550 3584 1831 3584 
Q 2591 3584 2966 3190 
Q 3341 2797 3341 1997 
z
" transform="scale(0.015625)"/>
       <path id="DejaVuSans-6c" d="M 603 4863 
L 1178 4863 
L 1178 0 
L 603 0 
L 603 4863 
z
" transform="scale(0.015625)"/>
       <path id="DejaVuSans-29" d="M 513 4856 
L 1013 4856 
Q 1481 4119 1714 3412 
Q 1947 2706 1947 2009 
Q 1947 1309 1714 600 
Q 1481 -109 1013 -844 
L 513 -844 
Q 928 -128 1133 580 
Q 1338 1288 1338 2009 
Q 1338 2731 1133 3434 
Q 928 4138 513 4856 
z
" transform="scale(0.015625)"/>
      </defs>
      <use xlink:href="#DejaVuSans-55"/>
      <use xlink:href="#DejaVuSans-6e" transform="translate(73.193359 0)"/>
      <use xlink:href="#DejaVuSans-77" transform="translate(136.572266 0)"/>
      <use xlink:href="#DejaVuSans-65" transform="translate(218.359375 0)"/>
      <use xlink:href="#DejaVuSans-69" transform="translate(279.882812 0)"/>
      <use xlink:href="#DejaVuSans-67" transform="translate(307.666016 0)"/>
      <use xlink:href="#DejaVuSans-68" transform="translate(371.142578 0)"/>
      <use xlink:href="#DejaVuSans-74" transform="translate(434.521484 0)"/>
      <use xlink:href="#DejaVuSans-65" transform="translate(473.730469 0)"/>
      <use xlink:href="#DejaVuSans-64" transform="translate(535.253906 0)"/>
      <use xlink:href="#DejaVuSans-20" transform="translate(598.730469 0)"/>
      <use xlink:href="#DejaVuSans-63" transform="translate(630.517578 0)"/>
      <use xlink:href="#DejaVuSans-6f" transform="translate(685.498047 0)"/>
      <use xlink:href="#DejaVuSans-64" transform="translate(746.679688 0)"/>
      <use xlink:href="#DejaVuSans-69" transform="translate(810.15625 0)"/>
      <use xlink:href="#DejaVuSans-6d" transform="translate(837.939453 0)"/>
      <use xlink:href="#DejaVuSans-65" transform="translate(935.351562 0)"/>
      <use xlink:href="#DejaVuSans-6e" transform="translate(996.875 0)"/>
      <use xlink:href="#DejaVuSans-73" transform="translate(1060.253906 0)"/>
      <use xlink:href="#DejaVuSans-69" transform="translate(1112.353516 0)"/>
      <use xlink:href="#DejaVuSans-6f" transform="translate(1140.136719 0)"/>
      <use xlink:href="#DejaVuSans-6e" transform="translate(1201.318359 0)"/>
      <use xlink:href="#DejaVuSans-20" transform="translate(1264.697266 0)"/>
      <use xlink:href="#DejaVuSans-28" transform="translate(1296.484375 0)"/>
      <use xlink:href="#DejaVuSans-70" transform="translate(1335.498047 0)"/>
      <use xlink:href="#DejaVuSans-65" transform="translate(1398.974609 0)"/>
      <use xlink:href="#DejaVuSans-72" transform="translate(1460.498047 0)"/>
      <use xlink:href="#DejaVuSans-20" transform="translate(1501.611328 0)"/>
      <use xlink:href="#DejaVuSans-74" transform="translate(1533.398438 0)"/>
      <use xlink:href="#DejaVuSans-72" transform="translate(1572.607422 0)"/>
      <use xlink:href="#DejaVuSans-69" transform="translate(1613.720703 0)"/>
      <use xlink:href="#DejaVuSans-61" transform="translate(1641.503906 0)"/>
      <use xlink:href="#DejaVuSans-6c" transform="translate(1702.783203 0)"/>
      <use xlink:href="#DejaVuSans-29" transform="translate(1730.566406 0)"/>
     </g>
    </g>
   </g>
   <g id="matplotlib.axis_2">
    <g id="ytick_1">
     <g id="line2d_9">
      <defs>
       <path id="mb22268d731" d="M 0 0 
L -3.5 0 
" style="stroke: #000000; stroke-width: 0.8"/>
      </defs>
      <g>
       <use xlink:href="#mb22268d731" x="43.78125" y="277.478125" style="stroke: #000000; stroke-width: 0.8"/>
      </g>
     </g>
     <g id="text_10">
      <!-- 0.0 -->
      <g transform="translate(20.878125 281.277344) scale(0.1 -0.1)">
       <defs>
        <path id="DejaVuSans-2e" d="M 684 794 
L 1344 794 
L 1344 0 
L 684 0 
L 684 794 
z
" transform="scale(0.015625)"/>
       </defs>
       <use xlink:href="#DejaVuSans-30"/>
       <use xlink:href="#DejaVuSans-2e" transform="translate(63.623047 0)"/>
       <use xlink:href="#DejaVuSans-30" transform="translate(95.410156 0)"/>
      </g>
     </g>
    </g>
    <g id="ytick_2">
     <g id="line2d_10">
      <g>
       <use xlink:href="#mb22268d731" x="43.78125" y="247.101935" style="stroke: #000000; stroke-width: 0.8"/>
      </g>
     </g>
     <g id="text_11">
      <!-- 0.5 -->
      <g transform="translate(20.878125 250.901153) scale(0.1 -0.1)">
       <use xlink:href="#DejaVuSans-30"/>
       <use xlink:href="#DejaVuSans-2e" transform="translate(63.623047 0)"/>
       <use xlink:href="#DejaVuSans-35" transform="translate(95.410156 0)"/>
      </g>
     </g>
    </g>
    <g id="ytick_3">
     <g id="line2d_11">
      <g>
       <use xlink:href="#mb22268d731" x="43.78125" y="216.725744" style="stroke: #000000; stroke-width: 0.8"/>
      </g>
     </g>
     <g id="text_12">
      <!-- 1.0 -->
      <g transform="translate(20.878125 220.524963) scale(0.1 -0.1)">
       <use xlink:href="#DejaVuSans-31"/>
       <use xlink:href="#DejaVuSans-2e" transform="translate(63.623047 0)"/>
       <use xlink:href="#DejaVuSans-30" transform="translate(95.410156 0)"/>
      </g>
     </g>
    </g>
    <g id="ytick_4">
     <g id="line2d_12">
      <g>
       <use xlink:href="#mb22268d731" x="43.78125" y="186.349554" style="stroke: #000000; stroke-width: 0.8"/>
      </g>
     </g>
     <g id="text_13">
      <!-- 1.5 -->
      <g transform="translate(20.878125 190.148772) scale(0.1 -0.1)">
       <use xlink:href="#DejaVuSans-31"/>
       <use xlink:href="#DejaVuSans-2e" transform="translate(63.623047 0)"/>
       <use xlink:href="#DejaVuSans-35" transform="translate(95.410156 0)"/>
      </g>
     </g>
    </g>
    <g id="ytick_5">
     <g id="line2d_13">
      <g>
       <use xlink:href="#mb22268d731" x="43.78125" y="155.973363" style="stroke: #000000; stroke-width: 0.8"/>
      </g>
     </g>
     <g id="text_14">
      <!-- 2.0 -->
      <g transform="translate(20.878125 159.772582) scale(0.1 -0.1)">
       <use xlink:href="#DejaVuSans-32"/>
       <use xlink:href="#DejaVuSans-2e" transform="translate(63.623047 0)"/>
       <use xlink:href="#DejaVuSans-30" transform="translate(95.410156 0)"/>
      </g>
     </g>
    </g>
    <g id="ytick_6">
     <g id="line2d_14">
      <g>
       <use xlink:href="#mb22268d731" x="43.78125" y="125.597173" style="stroke: #000000; stroke-width: 0.8"/>
      </g>
     </g>
     <g id="text_15">
      <!-- 2.5 -->
      <g transform="translate(20.878125 129.396391) scale(0.1 -0.1)">
       <use xlink:href="#DejaVuSans-32"/>
       <use xlink:href="#DejaVuSans-2e" transform="translate(63.623047 0)"/>
       <use xlink:href="#DejaVuSans-35" transform="translate(95.410156 0)"/>
      </g>
     </g>
    </g>
    <g id="ytick_7">
     <g id="line2d_15">
      <g>
       <use xlink:href="#mb22268d731" x="43.78125" y="95.220982" style="stroke: #000000; stroke-width: 0.8"/>
      </g>
     </g>
     <g id="text_16">
      <!-- 3.0 -->
      <g transform="translate(20.878125 99.020201) scale(0.1 -0.1)">
       <defs>
        <path id="DejaVuSans-33" d="M 2597 2516 
Q 3050 2419 3304 2112 
Q 3559 1806 3559 1356 
Q 3559 666 3084 287 
Q 2609 -91 1734 -91 
Q 1441 -91 1130 -33 
Q 819 25 488 141 
L 488 750 
Q 750 597 1062 519 
Q 1375 441 1716 441 
Q 2309 441 2620 675 
Q 2931 909 2931 1356 
Q 2931 1769 2642 2001 
Q 2353 2234 1838 2234 
L 1294 2234 
L 1294 2753 
L 1863 2753 
Q 2328 2753 2575 2939 
Q 2822 3125 2822 3475 
Q 2822 3834 2567 4026 
Q 2313 4219 1838 4219 
Q 1578 4219 1281 4162 
Q 984 4106 628 3988 
L 628 4550 
Q 988 4650 1302 4700 
Q 1616 4750 1894 4750 
Q 2613 4750 3031 4423 
Q 3450 4097 3450 3541 
Q 3450 3153 3228 2886 
Q 3006 2619 2597 2516 
z
" transform="scale(0.015625)"/>
       </defs>
       <use xlink:href="#DejaVuSans-33"/>
       <use xlink:href="#DejaVuSans-2e" transform="translate(63.623047 0)"/>
       <use xlink:href="#DejaVuSans-30" transform="translate(95.410156 0)"/>
      </g>
     </g>
    </g>
    <g id="ytick_8">
     <g id="line2d_16">
      <g>
       <use xlink:href="#mb22268d731" x="43.78125" y="64.844792" style="stroke: #000000; stroke-width: 0.8"/>
      </g>
     </g>
     <g id="text_17">
      <!-- 3.5 -->
      <g transform="translate(20.878125 68.64401) scale(0.1 -0.1)">
       <use xlink:href="#DejaVuSans-33"/>
       <use xlink:href="#DejaVuSans-2e" transform="translate(63.623047 0)"/>
       <use xlink:href="#DejaVuSans-35" transform="translate(95.410156 0)"/>
      </g>
     </g>
    </g>
    <g id="ytick_9">
     <g id="line2d_17">
      <g>
       <use xlink:href="#mb22268d731" x="43.78125" y="34.468601" style="stroke: #000000; stroke-width: 0.8"/>
      </g>
     </g>
     <g id="text_18">
      <!-- 4.0 -->
      <g transform="translate(20.878125 38.26782) scale(0.1 -0.1)">
       <defs>
        <path id="DejaVuSans-34" d="M 2419 4116 
L 825 1625 
L 2419 1625 
L 2419 4116 
z
M 2253 4666 
L 3047 4666 
L 3047 1625 
L 3713 1625 
L 3713 1100 
L 3047 1100 
L 3047 0 
L 2419 0 
L 2419 1100 
L 313 1100 
L 313 1709 
L 2253 4666 
z
" transform="scale(0.015625)"/>
       </defs>
       <use xlink:href="#DejaVuSans-34"/>
       <use xlink:href="#DejaVuSans-2e" transform="translate(63.623047 0)"/>
       <use xlink:href="#DejaVuSans-30" transform="translate(95.410156 0)"/>
      </g>
     </g>
    </g>
    <g id="text_19">
     <!-- Count -->
     <g transform="translate(14.798438 164.746562) rotate(-90) scale(0.1 -0.1)">
      <defs>
       <path id="DejaVuSans-43" d="M 4122 4306 
L 4122 3641 
Q 3803 3938 3442 4084 
Q 3081 4231 2675 4231 
Q 1875 4231 1450 3742 
Q 1025 3253 1025 2328 
Q 1025 1406 1450 917 
Q 1875 428 2675 428 
Q 3081 428 3442 575 
Q 3803 722 4122 1019 
L 4122 359 
Q 3791 134 3420 21 
Q 3050 -91 2638 -91 
Q 1578 -91 968 557 
Q 359 1206 359 2328 
Q 359 3453 968 4101 
Q 1578 4750 2638 4750 
Q 3056 4750 3426 4639 
Q 3797 4528 4122 4306 
z
" transform="scale(0.015625)"/>
       <path id="DejaVuSans-75" d="M 544 1381 
L 544 3500 
L 1119 3500 
L 1119 1403 
Q 1119 906 1312 657 
Q 1506 409 1894 409 
Q 2359 409 2629 706 
Q 2900 1003 2900 1516 
L 2900 3500 
L 3475 3500 
L 3475 0 
L 2900 0 
L 2900 538 
Q 2691 219 2414 64 
Q 2138 -91 1772 -91 
Q 1169 -91 856 284 
Q 544 659 544 1381 
z
M 1991 3584 
L 1991 3584 
z
" transform="scale(0.015625)"/>
      </defs>
      <use xlink:href="#DejaVuSans-43"/>
      <use xlink:href="#DejaVuSans-6f" transform="translate(69.824219 0)"/>
      <use xlink:href="#DejaVuSans-75" transform="translate(131.005859 0)"/>
      <use xlink:href="#DejaVuSans-6e" transform="translate(194.384766 0)"/>
      <use xlink:href="#DejaVuSans-74" transform="translate(257.763672 0)"/>
     </g>
    </g>
   </g>
   <g id="patch_170">
    <path d="M 43.78125 277.478125 
L 43.78125 22.318125 
" style="fill: none; stroke: #000000; stroke-width: 0.8; stroke-linejoin: miter; stroke-linecap: square"/>
   </g>
   <g id="patch_171">
    <path d="M 489.26125 277.478125 
L 489.26125 22.318125 
" style="fill: none; stroke: #000000; stroke-width: 0.8; stroke-linejoin: miter; stroke-linecap: square"/>
   </g>
   <g id="patch_172">
    <path d="M 43.78125 277.478125 
L 489.26125 277.478125 
" style="fill: none; stroke: #000000; stroke-width: 0.8; stroke-linejoin: miter; stroke-linecap: square"/>
   </g>
   <g id="patch_173">
    <path d="M 43.78125 22.318125 
L 489.26125 22.318125 
" style="fill: none; stroke: #000000; stroke-width: 0.8; stroke-linejoin: miter; stroke-linecap: square"/>
   </g>
   <g id="text_20">
    <!-- Unweighted codimension on torus (a=3, c=10, n=100, =0.3, T=100) -->
    <g transform="translate(54.805625 16.318125) scale(0.12 -0.12)">
     <defs>
      <path id="DejaVuSans-3d" d="M 678 2906 
L 4684 2906 
L 4684 2381 
L 678 2381 
L 678 2906 
z
M 678 1631 
L 4684 1631 
L 4684 1100 
L 678 1100 
L 678 1631 
z
" transform="scale(0.015625)"/>
      <path id="DejaVuSans-2c" d="M 750 794 
L 1409 794 
L 1409 256 
L 897 -744 
L 494 -744 
L 750 256 
L 750 794 
z
" transform="scale(0.015625)"/>
      <path id="DejaVuSans-3c3" d="M 1959 3044 
Q 1484 3044 1228 2700 
Q 959 2341 959 1747 
Q 959 1119 1226 758 
Q 1494 397 1959 397 
Q 2419 397 2687 759 
Q 2956 1122 2956 1747 
Q 2956 2319 2688 2700 
Q 2441 3044 1959 3044 
z
M 1959 3500 
L 3869 3500 
L 3869 2925 
L 3225 2925 
Q 3566 2438 3566 1747 
Q 3566 888 3138 400 
Q 2709 -91 1959 -91 
Q 1206 -91 781 400 
Q 353 888 353 1747 
Q 353 2613 781 3097 
Q 1134 3500 1959 3500 
z
" transform="scale(0.015625)"/>
      <path id="DejaVuSans-54" d="M -19 4666 
L 3928 4666 
L 3928 4134 
L 2272 4134 
L 2272 0 
L 1638 0 
L 1638 4134 
L -19 4134 
L -19 4666 
z
" transform="scale(0.015625)"/>
     </defs>
     <use xlink:href="#DejaVuSans-55"/>
     <use xlink:href="#DejaVuSans-6e" transform="translate(73.193359 0)"/>
     <use xlink:href="#DejaVuSans-77" transform="translate(136.572266 0)"/>
     <use xlink:href="#DejaVuSans-65" transform="translate(218.359375 0)"/>
     <use xlink:href="#DejaVuSans-69" transform="translate(279.882812 0)"/>
     <use xlink:href="#DejaVuSans-67" transform="translate(307.666016 0)"/>
     <use xlink:href="#DejaVuSans-68" transform="translate(371.142578 0)"/>
     <use xlink:href="#DejaVuSans-74" transform="translate(434.521484 0)"/>
     <use xlink:href="#DejaVuSans-65" transform="translate(473.730469 0)"/>
     <use xlink:href="#DejaVuSans-64" transform="translate(535.253906 0)"/>
     <use xlink:href="#DejaVuSans-20" transform="translate(598.730469 0)"/>
     <use xlink:href="#DejaVuSans-63" transform="translate(630.517578 0)"/>
     <use xlink:href="#DejaVuSans-6f" transform="translate(685.498047 0)"/>
     <use xlink:href="#DejaVuSans-64" transform="translate(746.679688 0)"/>
     <use xlink:href="#DejaVuSans-69" transform="translate(810.15625 0)"/>
     <use xlink:href="#DejaVuSans-6d" transform="translate(837.939453 0)"/>
     <use xlink:href="#DejaVuSans-65" transform="translate(935.351562 0)"/>
     <use xlink:href="#DejaVuSans-6e" transform="translate(996.875 0)"/>
     <use xlink:href="#DejaVuSans-73" transform="translate(1060.253906 0)"/>
     <use xlink:href="#DejaVuSans-69" transform="translate(1112.353516 0)"/>
     <use xlink:href="#DejaVuSans-6f" transform="translate(1140.136719 0)"/>
     <use xlink:href="#DejaVuSans-6e" transform="translate(1201.318359 0)"/>
     <use xlink:href="#DejaVuSans-20" transform="translate(1264.697266 0)"/>
     <use xlink:href="#DejaVuSans-6f" transform="translate(1296.484375 0)"/>
     <use xlink:href="#DejaVuSans-6e" transform="translate(1357.666016 0)"/>
     <use xlink:href="#DejaVuSans-20" transform="translate(1421.044922 0)"/>
     <use xlink:href="#DejaVuSans-74" transform="translate(1452.832031 0)"/>
     <use xlink:href="#DejaVuSans-6f" transform="translate(1492.041016 0)"/>
     <use xlink:href="#DejaVuSans-72" transform="translate(1553.222656 0)"/>
     <use xlink:href="#DejaVuSans-75" transform="translate(1594.335938 0)"/>
     <use xlink:href="#DejaVuSans-73" transform="translate(1657.714844 0)"/>
     <use xlink:href="#DejaVuSans-20" transform="translate(1709.814453 0)"/>
     <use xlink:href="#DejaVuSans-28" transform="translate(1741.601562 0)"/>
     <use xlink:href="#DejaVuSans-61" transform="translate(1780.615234 0)"/>
     <use xlink:href="#DejaVuSans-3d" transform="translate(1841.894531 0)"/>
     <use xlink:href="#DejaVuSans-33" transform="translate(1925.683594 0)"/>
     <use xlink:href="#DejaVuSans-2c" transform="translate(1989.306641 0)"/>
     <use xlink:href="#DejaVuSans-20" transform="translate(2021.09375 0)"/>
     <use xlink:href="#DejaVuSans-63" transform="translate(2052.880859 0)"/>
     <use xlink:href="#DejaVuSans-3d" transform="translate(2107.861328 0)"/>
     <use xlink:href="#DejaVuSans-31" transform="translate(2191.650391 0)"/>
     <use xlink:href="#DejaVuSans-30" transform="translate(2255.273438 0)"/>
     <use xlink:href="#DejaVuSans-2c" transform="translate(2318.896484 0)"/>
     <use xlink:href="#DejaVuSans-20" transform="translate(2350.683594 0)"/>
     <use xlink:href="#DejaVuSans-6e" transform="translate(2382.470703 0)"/>
     <use xlink:href="#DejaVuSans-3d" transform="translate(2445.849609 0)"/>
     <use xlink:href="#DejaVuSans-31" transform="translate(2529.638672 0)"/>
     <use xlink:href="#DejaVuSans-30" transform="translate(2593.261719 0)"/>
     <use xlink:href="#DejaVuSans-30" transform="translate(2656.884766 0)"/>
     <use xlink:href="#DejaVuSans-2c" transform="translate(2720.507812 0)"/>
     <use xlink:href="#DejaVuSans-20" transform="translate(2752.294922 0)"/>
     <use xlink:href="#DejaVuSans-3c3" transform="translate(2784.082031 0)"/>
     <use xlink:href="#DejaVuSans-3d" transform="translate(2847.460938 0)"/>
     <use xlink:href="#DejaVuSans-30" transform="translate(2931.25 0)"/>
     <use xlink:href="#DejaVuSans-2e" transform="translate(2994.873047 0)"/>
     <use xlink:href="#DejaVuSans-33" transform="translate(3026.660156 0)"/>
     <use xlink:href="#DejaVuSans-2c" transform="translate(3090.283203 0)"/>
     <use xlink:href="#DejaVuSans-20" transform="translate(3122.070312 0)"/>
     <use xlink:href="#DejaVuSans-54" transform="translate(3153.857422 0)"/>
     <use xlink:href="#DejaVuSans-3d" transform="translate(3214.941406 0)"/>
     <use xlink:href="#DejaVuSans-31" transform="translate(3298.730469 0)"/>
     <use xlink:href="#DejaVuSans-30" transform="translate(3362.353516 0)"/>
     <use xlink:href="#DejaVuSans-30" transform="translate(3425.976562 0)"/>
     <use xlink:href="#DejaVuSans-29" transform="translate(3489.599609 0)"/>
    </g>
   </g>
  </g>
 </g>
 <defs>
  <clipPath id="p56ad9cc237">
   <rect x="43.78125" y="22.318125" width="445.48" height="255.16"/>
  </clipPath>
 </defs>
</svg>
