<?xml version="1.0" encoding="utf-8" standalone="no"?>
<!DOCTYPE svg PUBLIC "-//W3C//DTD SVG 1.1//EN"
  "http://www.w3.org/Graphics/SVG/1.1/DTD/svg11.dtd">
<svg xmlns:xlink="http://www.w3.org/1999/xlink" width="496.370625pt" height="315.034375pt" viewBox="0 0 496.370625 315.034375" xmlns="http://www.w3.org/2000/svg" version="1.1">
 <metadata>
  <rdf:RDF xmlns:dc="http://purl.org/dc/elements/1.1/" xmlns:cc="http://creativecommons.org/ns#" xmlns:rdf="http://www.w3.org/1999/02/22-rdf-syntax-ns#">
   <cc:Work>
    <dc:type rdf:resource="http://purl.org/dc/dcmitype/StillImage"/>
    <dc:date>2025-11-05T01:18:33.898906</dc:date>
    <dc:format>image/svg+xml</dc:format>
    <dc:creator>
     <cc:Agent>
      <dc:title>Matplotlib v3.10.6, https://matplotlib.org/</dc:title>
     </cc:Agent>
    </dc:creator>
   </cc:Work>
  </rdf:RDF>
 </metadata>
 <defs>
  <style type="text/css">*{stroke-linejoin: round; stroke-linecap: butt}</style>
 </defs>
 <g id="figure_1">
  <g id="patch_1">
   <path d="M 0 315.034375 
L 496.370625 315.034375 
L 496.370625 0 
L 0 0 
z
" style="fill: #ffffff"/>
  </g>
  <g id="axes_1">
   <g id="patch_2">
    <path d="M 34.240625 277.478125 
L 489.170625 277.478125 
L 489.170625 22.318125 
L 34.240625 22.318125 
z
" style="fill: #ffffff"/>
   </g>
   <g id="patch_3">
    <path d="M 54.919261 277.478125 
L 59.618951 277.478125 
L 59.618951 250.477067 
L 54.919261 250.477067 
z
" clip-path="url(#p9a4ae42445)" style="fill: #1f77b4; stroke: #000000; stroke-linejoin: miter"/>
   </g>
   <g id="patch_4">
    <path d="M 59.618951 277.478125 
L 64.318642 277.478125 
L 64.318642 250.477067 
L 59.618951 250.477067 
z
" clip-path="url(#p9a4ae42445)" style="fill: #1f77b4; stroke: #000000; stroke-linejoin: miter"/>
   </g>
   <g id="patch_5">
    <path d="M 64.318642 277.478125 
L 69.018332 277.478125 
L 69.018332 277.478125 
L 64.318642 277.478125 
z
" clip-path="url(#p9a4ae42445)" style="fill: #1f77b4; stroke: #000000; stroke-linejoin: miter"/>
   </g>
   <g id="patch_6">
    <path d="M 69.018332 277.478125 
L 73.718022 277.478125 
L 73.718022 223.476009 
L 69.018332 223.476009 
z
" clip-path="url(#p9a4ae42445)" style="fill: #1f77b4; stroke: #000000; stroke-linejoin: miter"/>
   </g>
   <g id="patch_7">
    <path d="M 73.718022 277.478125 
L 78.417712 277.478125 
L 78.417712 277.478125 
L 73.718022 277.478125 
z
" clip-path="url(#p9a4ae42445)" style="fill: #1f77b4; stroke: #000000; stroke-linejoin: miter"/>
   </g>
   <g id="patch_8">
    <path d="M 78.417712 277.478125 
L 83.117402 277.478125 
L 83.117402 250.477067 
L 78.417712 250.477067 
z
" clip-path="url(#p9a4ae42445)" style="fill: #1f77b4; stroke: #000000; stroke-linejoin: miter"/>
   </g>
   <g id="patch_9">
    <path d="M 83.117402 277.478125 
L 87.817092 277.478125 
L 87.817092 250.477067 
L 83.117402 250.477067 
z
" clip-path="url(#p9a4ae42445)" style="fill: #1f77b4; stroke: #000000; stroke-linejoin: miter"/>
   </g>
   <g id="patch_10">
    <path d="M 87.817092 277.478125 
L 92.516782 277.478125 
L 92.516782 277.478125 
L 87.817092 277.478125 
z
" clip-path="url(#p9a4ae42445)" style="fill: #1f77b4; stroke: #000000; stroke-linejoin: miter"/>
   </g>
   <g id="patch_11">
    <path d="M 92.516782 277.478125 
L 97.216472 277.478125 
L 97.216472 223.476009 
L 92.516782 223.476009 
z
" clip-path="url(#p9a4ae42445)" style="fill: #1f77b4; stroke: #000000; stroke-linejoin: miter"/>
   </g>
   <g id="patch_12">
    <path d="M 97.216472 277.478125 
L 101.916162 277.478125 
L 101.916162 250.477067 
L 97.216472 250.477067 
z
" clip-path="url(#p9a4ae42445)" style="fill: #1f77b4; stroke: #000000; stroke-linejoin: miter"/>
   </g>
   <g id="patch_13">
    <path d="M 101.916162 277.478125 
L 106.615852 277.478125 
L 106.615852 277.478125 
L 101.916162 277.478125 
z
" clip-path="url(#p9a4ae42445)" style="fill: #1f77b4; stroke: #000000; stroke-linejoin: miter"/>
   </g>
   <g id="patch_14">
    <path d="M 106.615852 277.478125 
L 111.315542 277.478125 
L 111.315542 250.477067 
L 106.615852 250.477067 
z
" clip-path="url(#p9a4ae42445)" style="fill: #1f77b4; stroke: #000000; stroke-linejoin: miter"/>
   </g>
   <g id="patch_15">
    <path d="M 111.315542 277.478125 
L 116.015232 277.478125 
L 116.015232 250.477067 
L 111.315542 250.477067 
z
" clip-path="url(#p9a4ae42445)" style="fill: #1f77b4; stroke: #000000; stroke-linejoin: miter"/>
   </g>
   <g id="patch_16">
    <path d="M 116.015232 277.478125 
L 120.714923 277.478125 
L 120.714923 277.478125 
L 116.015232 277.478125 
z
" clip-path="url(#p9a4ae42445)" style="fill: #1f77b4; stroke: #000000; stroke-linejoin: miter"/>
   </g>
   <g id="patch_17">
    <path d="M 120.714923 277.478125 
L 125.414613 277.478125 
L 125.414613 196.47495 
L 120.714923 196.47495 
z
" clip-path="url(#p9a4ae42445)" style="fill: #1f77b4; stroke: #000000; stroke-linejoin: miter"/>
   </g>
   <g id="patch_18">
    <path d="M 125.414613 277.478125 
L 130.114303 277.478125 
L 130.114303 223.476009 
L 125.414613 223.476009 
z
" clip-path="url(#p9a4ae42445)" style="fill: #1f77b4; stroke: #000000; stroke-linejoin: miter"/>
   </g>
   <g id="patch_19">
    <path d="M 130.114303 277.478125 
L 134.813993 277.478125 
L 134.813993 277.478125 
L 130.114303 277.478125 
z
" clip-path="url(#p9a4ae42445)" style="fill: #1f77b4; stroke: #000000; stroke-linejoin: miter"/>
   </g>
   <g id="patch_20">
    <path d="M 134.813993 277.478125 
L 139.513683 277.478125 
L 139.513683 196.47495 
L 134.813993 196.47495 
z
" clip-path="url(#p9a4ae42445)" style="fill: #1f77b4; stroke: #000000; stroke-linejoin: miter"/>
   </g>
   <g id="patch_21">
    <path d="M 139.513683 277.478125 
L 144.213373 277.478125 
L 144.213373 277.478125 
L 139.513683 277.478125 
z
" clip-path="url(#p9a4ae42445)" style="fill: #1f77b4; stroke: #000000; stroke-linejoin: miter"/>
   </g>
   <g id="patch_22">
    <path d="M 144.213373 277.478125 
L 148.913063 277.478125 
L 148.913063 223.476009 
L 144.213373 223.476009 
z
" clip-path="url(#p9a4ae42445)" style="fill: #1f77b4; stroke: #000000; stroke-linejoin: miter"/>
   </g>
   <g id="patch_23">
    <path d="M 148.913063 277.478125 
L 153.612753 277.478125 
L 153.612753 250.477067 
L 148.913063 250.477067 
z
" clip-path="url(#p9a4ae42445)" style="fill: #1f77b4; stroke: #000000; stroke-linejoin: miter"/>
   </g>
   <g id="patch_24">
    <path d="M 153.612753 277.478125 
L 158.312443 277.478125 
L 158.312443 223.476009 
L 153.612753 223.476009 
z
" clip-path="url(#p9a4ae42445)" style="fill: #1f77b4; stroke: #000000; stroke-linejoin: miter"/>
   </g>
   <g id="patch_25">
    <path d="M 158.312443 277.478125 
L 163.012133 277.478125 
L 163.012133 277.478125 
L 158.312443 277.478125 
z
" clip-path="url(#p9a4ae42445)" style="fill: #1f77b4; stroke: #000000; stroke-linejoin: miter"/>
   </g>
   <g id="patch_26">
    <path d="M 163.012133 277.478125 
L 167.711823 277.478125 
L 167.711823 223.476009 
L 163.012133 223.476009 
z
" clip-path="url(#p9a4ae42445)" style="fill: #1f77b4; stroke: #000000; stroke-linejoin: miter"/>
   </g>
   <g id="patch_27">
    <path d="M 167.711823 277.478125 
L 172.411513 277.478125 
L 172.411513 250.477067 
L 167.711823 250.477067 
z
" clip-path="url(#p9a4ae42445)" style="fill: #1f77b4; stroke: #000000; stroke-linejoin: miter"/>
   </g>
   <g id="patch_28">
    <path d="M 172.411513 277.478125 
L 177.111204 277.478125 
L 177.111204 196.47495 
L 172.411513 196.47495 
z
" clip-path="url(#p9a4ae42445)" style="fill: #1f77b4; stroke: #000000; stroke-linejoin: miter"/>
   </g>
   <g id="patch_29">
    <path d="M 177.111204 277.478125 
L 181.810894 277.478125 
L 181.810894 196.47495 
L 177.111204 196.47495 
z
" clip-path="url(#p9a4ae42445)" style="fill: #1f77b4; stroke: #000000; stroke-linejoin: miter"/>
   </g>
   <g id="patch_30">
    <path d="M 181.810894 277.478125 
L 186.510584 277.478125 
L 186.510584 250.477067 
L 181.810894 250.477067 
z
" clip-path="url(#p9a4ae42445)" style="fill: #1f77b4; stroke: #000000; stroke-linejoin: miter"/>
   </g>
   <g id="patch_31">
    <path d="M 186.510584 277.478125 
L 191.210274 277.478125 
L 191.210274 142.472834 
L 186.510584 142.472834 
z
" clip-path="url(#p9a4ae42445)" style="fill: #1f77b4; stroke: #000000; stroke-linejoin: miter"/>
   </g>
   <g id="patch_32">
    <path d="M 191.210274 277.478125 
L 195.909964 277.478125 
L 195.909964 169.473892 
L 191.210274 169.473892 
z
" clip-path="url(#p9a4ae42445)" style="fill: #1f77b4; stroke: #000000; stroke-linejoin: miter"/>
   </g>
   <g id="patch_33">
    <path d="M 195.909964 277.478125 
L 200.609654 277.478125 
L 200.609654 277.478125 
L 195.909964 277.478125 
z
" clip-path="url(#p9a4ae42445)" style="fill: #1f77b4; stroke: #000000; stroke-linejoin: miter"/>
   </g>
   <g id="patch_34">
    <path d="M 200.609654 277.478125 
L 205.309344 277.478125 
L 205.309344 223.476009 
L 200.609654 223.476009 
z
" clip-path="url(#p9a4ae42445)" style="fill: #1f77b4; stroke: #000000; stroke-linejoin: miter"/>
   </g>
   <g id="patch_35">
    <path d="M 205.309344 277.478125 
L 210.009034 277.478125 
L 210.009034 169.473892 
L 205.309344 169.473892 
z
" clip-path="url(#p9a4ae42445)" style="fill: #1f77b4; stroke: #000000; stroke-linejoin: miter"/>
   </g>
   <g id="patch_36">
    <path d="M 210.009034 277.478125 
L 214.708724 277.478125 
L 214.708724 277.478125 
L 210.009034 277.478125 
z
" clip-path="url(#p9a4ae42445)" style="fill: #1f77b4; stroke: #000000; stroke-linejoin: miter"/>
   </g>
   <g id="patch_37">
    <path d="M 214.708724 277.478125 
L 219.408414 277.478125 
L 219.408414 250.477067 
L 214.708724 250.477067 
z
" clip-path="url(#p9a4ae42445)" style="fill: #1f77b4; stroke: #000000; stroke-linejoin: miter"/>
   </g>
   <g id="patch_38">
    <path d="M 219.408414 277.478125 
L 224.108104 277.478125 
L 224.108104 142.472834 
L 219.408414 142.472834 
z
" clip-path="url(#p9a4ae42445)" style="fill: #1f77b4; stroke: #000000; stroke-linejoin: miter"/>
   </g>
   <g id="patch_39">
    <path d="M 224.108104 277.478125 
L 228.807794 277.478125 
L 228.807794 196.47495 
L 224.108104 196.47495 
z
" clip-path="url(#p9a4ae42445)" style="fill: #1f77b4; stroke: #000000; stroke-linejoin: miter"/>
   </g>
   <g id="patch_40">
    <path d="M 228.807794 277.478125 
L 233.507485 277.478125 
L 233.507485 34.468601 
L 228.807794 34.468601 
z
" clip-path="url(#p9a4ae42445)" style="fill: #1f77b4; stroke: #000000; stroke-linejoin: miter"/>
   </g>
   <g id="patch_41">
    <path d="M 233.507485 277.478125 
L 238.207175 277.478125 
L 238.207175 223.476009 
L 233.507485 223.476009 
z
" clip-path="url(#p9a4ae42445)" style="fill: #1f77b4; stroke: #000000; stroke-linejoin: miter"/>
   </g>
   <g id="patch_42">
    <path d="M 238.207175 277.478125 
L 242.906865 277.478125 
L 242.906865 250.477067 
L 238.207175 250.477067 
z
" clip-path="url(#p9a4ae42445)" style="fill: #1f77b4; stroke: #000000; stroke-linejoin: miter"/>
   </g>
   <g id="patch_43">
    <path d="M 242.906865 277.478125 
L 247.606555 277.478125 
L 247.606555 250.477067 
L 242.906865 250.477067 
z
" clip-path="url(#p9a4ae42445)" style="fill: #1f77b4; stroke: #000000; stroke-linejoin: miter"/>
   </g>
   <g id="patch_44">
    <path d="M 247.606555 277.478125 
L 252.306245 277.478125 
L 252.306245 250.477067 
L 247.606555 250.477067 
z
" clip-path="url(#p9a4ae42445)" style="fill: #1f77b4; stroke: #000000; stroke-linejoin: miter"/>
   </g>
   <g id="patch_45">
    <path d="M 252.306245 277.478125 
L 257.005935 277.478125 
L 257.005935 250.477067 
L 252.306245 250.477067 
z
" clip-path="url(#p9a4ae42445)" style="fill: #1f77b4; stroke: #000000; stroke-linejoin: miter"/>
   </g>
   <g id="patch_46">
    <path d="M 257.005935 277.478125 
L 261.705625 277.478125 
L 261.705625 223.476009 
L 257.005935 223.476009 
z
" clip-path="url(#p9a4ae42445)" style="fill: #1f77b4; stroke: #000000; stroke-linejoin: miter"/>
   </g>
   <g id="patch_47">
    <path d="M 261.705625 277.478125 
L 266.405315 277.478125 
L 266.405315 223.476009 
L 261.705625 223.476009 
z
" clip-path="url(#p9a4ae42445)" style="fill: #1f77b4; stroke: #000000; stroke-linejoin: miter"/>
   </g>
   <g id="patch_48">
    <path d="M 266.405315 277.478125 
L 271.105005 277.478125 
L 271.105005 223.476009 
L 266.405315 223.476009 
z
" clip-path="url(#p9a4ae42445)" style="fill: #1f77b4; stroke: #000000; stroke-linejoin: miter"/>
   </g>
   <g id="patch_49">
    <path d="M 271.105005 277.478125 
L 275.804695 277.478125 
L 275.804695 250.477067 
L 271.105005 250.477067 
z
" clip-path="url(#p9a4ae42445)" style="fill: #1f77b4; stroke: #000000; stroke-linejoin: miter"/>
   </g>
   <g id="patch_50">
    <path d="M 275.804695 277.478125 
L 280.504385 277.478125 
L 280.504385 277.478125 
L 275.804695 277.478125 
z
" clip-path="url(#p9a4ae42445)" style="fill: #1f77b4; stroke: #000000; stroke-linejoin: miter"/>
   </g>
   <g id="patch_51">
    <path d="M 280.504385 277.478125 
L 285.204075 277.478125 
L 285.204075 277.478125 
L 280.504385 277.478125 
z
" clip-path="url(#p9a4ae42445)" style="fill: #1f77b4; stroke: #000000; stroke-linejoin: miter"/>
   </g>
   <g id="patch_52">
    <path d="M 285.204075 277.478125 
L 289.903765 277.478125 
L 289.903765 223.476009 
L 285.204075 223.476009 
z
" clip-path="url(#p9a4ae42445)" style="fill: #1f77b4; stroke: #000000; stroke-linejoin: miter"/>
   </g>
   <g id="patch_53">
    <path d="M 289.903765 277.478125 
L 294.603456 277.478125 
L 294.603456 250.477067 
L 289.903765 250.477067 
z
" clip-path="url(#p9a4ae42445)" style="fill: #1f77b4; stroke: #000000; stroke-linejoin: miter"/>
   </g>
   <g id="patch_54">
    <path d="M 294.603456 277.478125 
L 299.303146 277.478125 
L 299.303146 223.476009 
L 294.603456 223.476009 
z
" clip-path="url(#p9a4ae42445)" style="fill: #1f77b4; stroke: #000000; stroke-linejoin: miter"/>
   </g>
   <g id="patch_55">
    <path d="M 299.303146 277.478125 
L 304.002836 277.478125 
L 304.002836 250.477067 
L 299.303146 250.477067 
z
" clip-path="url(#p9a4ae42445)" style="fill: #1f77b4; stroke: #000000; stroke-linejoin: miter"/>
   </g>
   <g id="patch_56">
    <path d="M 304.002836 277.478125 
L 308.702526 277.478125 
L 308.702526 223.476009 
L 304.002836 223.476009 
z
" clip-path="url(#p9a4ae42445)" style="fill: #1f77b4; stroke: #000000; stroke-linejoin: miter"/>
   </g>
   <g id="patch_57">
    <path d="M 308.702526 277.478125 
L 313.402216 277.478125 
L 313.402216 277.478125 
L 308.702526 277.478125 
z
" clip-path="url(#p9a4ae42445)" style="fill: #1f77b4; stroke: #000000; stroke-linejoin: miter"/>
   </g>
   <g id="patch_58">
    <path d="M 313.402216 277.478125 
L 318.101906 277.478125 
L 318.101906 250.477067 
L 313.402216 250.477067 
z
" clip-path="url(#p9a4ae42445)" style="fill: #1f77b4; stroke: #000000; stroke-linejoin: miter"/>
   </g>
   <g id="patch_59">
    <path d="M 318.101906 277.478125 
L 322.801596 277.478125 
L 322.801596 250.477067 
L 318.101906 250.477067 
z
" clip-path="url(#p9a4ae42445)" style="fill: #1f77b4; stroke: #000000; stroke-linejoin: miter"/>
   </g>
   <g id="patch_60">
    <path d="M 322.801596 277.478125 
L 327.501286 277.478125 
L 327.501286 250.477067 
L 322.801596 250.477067 
z
" clip-path="url(#p9a4ae42445)" style="fill: #1f77b4; stroke: #000000; stroke-linejoin: miter"/>
   </g>
   <g id="patch_61">
    <path d="M 327.501286 277.478125 
L 332.200976 277.478125 
L 332.200976 277.478125 
L 327.501286 277.478125 
z
" clip-path="url(#p9a4ae42445)" style="fill: #1f77b4; stroke: #000000; stroke-linejoin: miter"/>
   </g>
   <g id="patch_62">
    <path d="M 332.200976 277.478125 
L 336.900666 277.478125 
L 336.900666 277.478125 
L 332.200976 277.478125 
z
" clip-path="url(#p9a4ae42445)" style="fill: #1f77b4; stroke: #000000; stroke-linejoin: miter"/>
   </g>
   <g id="patch_63">
    <path d="M 336.900666 277.478125 
L 341.600356 277.478125 
L 341.600356 277.478125 
L 336.900666 277.478125 
z
" clip-path="url(#p9a4ae42445)" style="fill: #1f77b4; stroke: #000000; stroke-linejoin: miter"/>
   </g>
   <g id="patch_64">
    <path d="M 341.600356 277.478125 
L 346.300046 277.478125 
L 346.300046 250.477067 
L 341.600356 250.477067 
z
" clip-path="url(#p9a4ae42445)" style="fill: #1f77b4; stroke: #000000; stroke-linejoin: miter"/>
   </g>
   <g id="patch_65">
    <path d="M 346.300046 277.478125 
L 350.999737 277.478125 
L 350.999737 223.476009 
L 346.300046 223.476009 
z
" clip-path="url(#p9a4ae42445)" style="fill: #1f77b4; stroke: #000000; stroke-linejoin: miter"/>
   </g>
   <g id="patch_66">
    <path d="M 350.999737 277.478125 
L 355.699427 277.478125 
L 355.699427 277.478125 
L 350.999737 277.478125 
z
" clip-path="url(#p9a4ae42445)" style="fill: #1f77b4; stroke: #000000; stroke-linejoin: miter"/>
   </g>
   <g id="patch_67">
    <path d="M 355.699427 277.478125 
L 360.399117 277.478125 
L 360.399117 250.477067 
L 355.699427 250.477067 
z
" clip-path="url(#p9a4ae42445)" style="fill: #1f77b4; stroke: #000000; stroke-linejoin: miter"/>
   </g>
   <g id="patch_68">
    <path d="M 360.399117 277.478125 
L 365.098807 277.478125 
L 365.098807 277.478125 
L 360.399117 277.478125 
z
" clip-path="url(#p9a4ae42445)" style="fill: #1f77b4; stroke: #000000; stroke-linejoin: miter"/>
   </g>
   <g id="patch_69">
    <path d="M 365.098807 277.478125 
L 369.798497 277.478125 
L 369.798497 277.478125 
L 365.098807 277.478125 
z
" clip-path="url(#p9a4ae42445)" style="fill: #1f77b4; stroke: #000000; stroke-linejoin: miter"/>
   </g>
   <g id="patch_70">
    <path d="M 369.798497 277.478125 
L 374.498187 277.478125 
L 374.498187 277.478125 
L 369.798497 277.478125 
z
" clip-path="url(#p9a4ae42445)" style="fill: #1f77b4; stroke: #000000; stroke-linejoin: miter"/>
   </g>
   <g id="patch_71">
    <path d="M 374.498187 277.478125 
L 379.197877 277.478125 
L 379.197877 277.478125 
L 374.498187 277.478125 
z
" clip-path="url(#p9a4ae42445)" style="fill: #1f77b4; stroke: #000000; stroke-linejoin: miter"/>
   </g>
   <g id="patch_72">
    <path d="M 379.197877 277.478125 
L 383.897567 277.478125 
L 383.897567 250.477067 
L 379.197877 250.477067 
z
" clip-path="url(#p9a4ae42445)" style="fill: #1f77b4; stroke: #000000; stroke-linejoin: miter"/>
   </g>
   <g id="patch_73">
    <path d="M 383.897567 277.478125 
L 388.597257 277.478125 
L 388.597257 277.478125 
L 383.897567 277.478125 
z
" clip-path="url(#p9a4ae42445)" style="fill: #1f77b4; stroke: #000000; stroke-linejoin: miter"/>
   </g>
   <g id="patch_74">
    <path d="M 388.597257 277.478125 
L 393.296947 277.478125 
L 393.296947 277.478125 
L 388.597257 277.478125 
z
" clip-path="url(#p9a4ae42445)" style="fill: #1f77b4; stroke: #000000; stroke-linejoin: miter"/>
   </g>
   <g id="patch_75">
    <path d="M 393.296947 277.478125 
L 397.996637 277.478125 
L 397.996637 277.478125 
L 393.296947 277.478125 
z
" clip-path="url(#p9a4ae42445)" style="fill: #1f77b4; stroke: #000000; stroke-linejoin: miter"/>
   </g>
   <g id="patch_76">
    <path d="M 397.996637 277.478125 
L 402.696327 277.478125 
L 402.696327 277.478125 
L 397.996637 277.478125 
z
" clip-path="url(#p9a4ae42445)" style="fill: #1f77b4; stroke: #000000; stroke-linejoin: miter"/>
   </g>
   <g id="patch_77">
    <path d="M 402.696327 277.478125 
L 407.396018 277.478125 
L 407.396018 277.478125 
L 402.696327 277.478125 
z
" clip-path="url(#p9a4ae42445)" style="fill: #1f77b4; stroke: #000000; stroke-linejoin: miter"/>
   </g>
   <g id="patch_78">
    <path d="M 407.396018 277.478125 
L 412.095708 277.478125 
L 412.095708 250.477067 
L 407.396018 250.477067 
z
" clip-path="url(#p9a4ae42445)" style="fill: #1f77b4; stroke: #000000; stroke-linejoin: miter"/>
   </g>
   <g id="patch_79">
    <path d="M 412.095708 277.478125 
L 416.795398 277.478125 
L 416.795398 277.478125 
L 412.095708 277.478125 
z
" clip-path="url(#p9a4ae42445)" style="fill: #1f77b4; stroke: #000000; stroke-linejoin: miter"/>
   </g>
   <g id="patch_80">
    <path d="M 416.795398 277.478125 
L 421.495088 277.478125 
L 421.495088 277.478125 
L 416.795398 277.478125 
z
" clip-path="url(#p9a4ae42445)" style="fill: #1f77b4; stroke: #000000; stroke-linejoin: miter"/>
   </g>
   <g id="patch_81">
    <path d="M 421.495088 277.478125 
L 426.194778 277.478125 
L 426.194778 277.478125 
L 421.495088 277.478125 
z
" clip-path="url(#p9a4ae42445)" style="fill: #1f77b4; stroke: #000000; stroke-linejoin: miter"/>
   </g>
   <g id="patch_82">
    <path d="M 426.194778 277.478125 
L 430.894468 277.478125 
L 430.894468 277.478125 
L 426.194778 277.478125 
z
" clip-path="url(#p9a4ae42445)" style="fill: #1f77b4; stroke: #000000; stroke-linejoin: miter"/>
   </g>
   <g id="patch_83">
    <path d="M 430.894468 277.478125 
L 435.594158 277.478125 
L 435.594158 250.477067 
L 430.894468 250.477067 
z
" clip-path="url(#p9a4ae42445)" style="fill: #1f77b4; stroke: #000000; stroke-linejoin: miter"/>
   </g>
   <g id="patch_84">
    <path d="M 435.594158 277.478125 
L 440.293848 277.478125 
L 440.293848 277.478125 
L 435.594158 277.478125 
z
" clip-path="url(#p9a4ae42445)" style="fill: #1f77b4; stroke: #000000; stroke-linejoin: miter"/>
   </g>
   <g id="patch_85">
    <path d="M 440.293848 277.478125 
L 444.993538 277.478125 
L 444.993538 277.478125 
L 440.293848 277.478125 
z
" clip-path="url(#p9a4ae42445)" style="fill: #1f77b4; stroke: #000000; stroke-linejoin: miter"/>
   </g>
   <g id="patch_86">
    <path d="M 444.993538 277.478125 
L 449.693228 277.478125 
L 449.693228 277.478125 
L 444.993538 277.478125 
z
" clip-path="url(#p9a4ae42445)" style="fill: #1f77b4; stroke: #000000; stroke-linejoin: miter"/>
   </g>
   <g id="patch_87">
    <path d="M 449.693228 277.478125 
L 454.392918 277.478125 
L 454.392918 250.477067 
L 449.693228 250.477067 
z
" clip-path="url(#p9a4ae42445)" style="fill: #1f77b4; stroke: #000000; stroke-linejoin: miter"/>
   </g>
   <g id="patch_88">
    <path d="M 454.392918 277.478125 
L 459.092608 277.478125 
L 459.092608 277.478125 
L 454.392918 277.478125 
z
" clip-path="url(#p9a4ae42445)" style="fill: #1f77b4; stroke: #000000; stroke-linejoin: miter"/>
   </g>
   <g id="patch_89">
    <path d="M 459.092608 277.478125 
L 463.792299 277.478125 
L 463.792299 277.478125 
L 459.092608 277.478125 
z
" clip-path="url(#p9a4ae42445)" style="fill: #1f77b4; stroke: #000000; stroke-linejoin: miter"/>
   </g>
   <g id="patch_90">
    <path d="M 463.792299 277.478125 
L 468.491989 277.478125 
L 468.491989 250.477067 
L 463.792299 250.477067 
z
" clip-path="url(#p9a4ae42445)" style="fill: #1f77b4; stroke: #000000; stroke-linejoin: miter"/>
   </g>
   <g id="matplotlib.axis_1">
    <g id="xtick_1">
     <g id="line2d_1">
      <defs>
       <path id="m3bdc0b6406" d="M 0 0 
L 0 3.5 
" style="stroke: #000000; stroke-width: 0.8"/>
      </defs>
      <g>
       <use xlink:href="#m3bdc0b6406" x="43.170036" y="277.478125" style="stroke: #000000; stroke-width: 0.8"/>
      </g>
     </g>
     <g id="text_1">
      <!-- 20 -->
      <g transform="translate(36.807536 292.076563) scale(0.1 -0.1)">
       <defs>
        <path id="DejaVuSans-32" d="M 1228 531 
L 3431 531 
L 3431 0 
L 469 0 
L 469 531 
Q 828 903 1448 1529 
Q 2069 2156 2228 2338 
Q 2531 2678 2651 2914 
Q 2772 3150 2772 3378 
Q 2772 3750 2511 3984 
Q 2250 4219 1831 4219 
Q 1534 4219 1204 4116 
Q 875 4013 500 3803 
L 500 4441 
Q 881 4594 1212 4672 
Q 1544 4750 1819 4750 
Q 2544 4750 2975 4387 
Q 3406 4025 3406 3419 
Q 3406 3131 3298 2873 
Q 3191 2616 2906 2266 
Q 2828 2175 2409 1742 
Q 1991 1309 1228 531 
z
" transform="scale(0.015625)"/>
        <path id="DejaVuSans-30" d="M 2034 4250 
Q 1547 4250 1301 3770 
Q 1056 3291 1056 2328 
Q 1056 1369 1301 889 
Q 1547 409 2034 409 
Q 2525 409 2770 889 
Q 3016 1369 3016 2328 
Q 3016 3291 2770 3770 
Q 2525 4250 2034 4250 
z
M 2034 4750 
Q 2819 4750 3233 4129 
Q 3647 3509 3647 2328 
Q 3647 1150 3233 529 
Q 2819 -91 2034 -91 
Q 1250 -91 836 529 
Q 422 1150 422 2328 
Q 422 3509 836 4129 
Q 1250 4750 2034 4750 
z
" transform="scale(0.015625)"/>
       </defs>
       <use xlink:href="#DejaVuSans-32"/>
       <use xlink:href="#DejaVuSans-30" transform="translate(63.623047 0)"/>
      </g>
     </g>
    </g>
    <g id="xtick_2">
     <g id="line2d_2">
      <g>
       <use xlink:href="#m3bdc0b6406" x="137.163838" y="277.478125" style="stroke: #000000; stroke-width: 0.8"/>
      </g>
     </g>
     <g id="text_2">
      <!-- 40 -->
      <g transform="translate(130.801338 292.076563) scale(0.1 -0.1)">
       <defs>
        <path id="DejaVuSans-34" d="M 2419 4116 
L 825 1625 
L 2419 1625 
L 2419 4116 
z
M 2253 4666 
L 3047 4666 
L 3047 1625 
L 3713 1625 
L 3713 1100 
L 3047 1100 
L 3047 0 
L 2419 0 
L 2419 1100 
L 313 1100 
L 313 1709 
L 2253 4666 
z
" transform="scale(0.015625)"/>
       </defs>
       <use xlink:href="#DejaVuSans-34"/>
       <use xlink:href="#DejaVuSans-30" transform="translate(63.623047 0)"/>
      </g>
     </g>
    </g>
    <g id="xtick_3">
     <g id="line2d_3">
      <g>
       <use xlink:href="#m3bdc0b6406" x="231.157639" y="277.478125" style="stroke: #000000; stroke-width: 0.8"/>
      </g>
     </g>
     <g id="text_3">
      <!-- 60 -->
      <g transform="translate(224.795139 292.076563) scale(0.1 -0.1)">
       <defs>
        <path id="DejaVuSans-36" d="M 2113 2584 
Q 1688 2584 1439 2293 
Q 1191 2003 1191 1497 
Q 1191 994 1439 701 
Q 1688 409 2113 409 
Q 2538 409 2786 701 
Q 3034 994 3034 1497 
Q 3034 2003 2786 2293 
Q 2538 2584 2113 2584 
z
M 3366 4563 
L 3366 3988 
Q 3128 4100 2886 4159 
Q 2644 4219 2406 4219 
Q 1781 4219 1451 3797 
Q 1122 3375 1075 2522 
Q 1259 2794 1537 2939 
Q 1816 3084 2150 3084 
Q 2853 3084 3261 2657 
Q 3669 2231 3669 1497 
Q 3669 778 3244 343 
Q 2819 -91 2113 -91 
Q 1303 -91 875 529 
Q 447 1150 447 2328 
Q 447 3434 972 4092 
Q 1497 4750 2381 4750 
Q 2619 4750 2861 4703 
Q 3103 4656 3366 4563 
z
" transform="scale(0.015625)"/>
       </defs>
       <use xlink:href="#DejaVuSans-36"/>
       <use xlink:href="#DejaVuSans-30" transform="translate(63.623047 0)"/>
      </g>
     </g>
    </g>
    <g id="xtick_4">
     <g id="line2d_4">
      <g>
       <use xlink:href="#m3bdc0b6406" x="325.151441" y="277.478125" style="stroke: #000000; stroke-width: 0.8"/>
      </g>
     </g>
     <g id="text_4">
      <!-- 80 -->
      <g transform="translate(318.788941 292.076563) scale(0.1 -0.1)">
       <defs>
        <path id="DejaVuSans-38" d="M 2034 2216 
Q 1584 2216 1326 1975 
Q 1069 1734 1069 1313 
Q 1069 891 1326 650 
Q 1584 409 2034 409 
Q 2484 409 2743 651 
Q 3003 894 3003 1313 
Q 3003 1734 2745 1975 
Q 2488 2216 2034 2216 
z
M 1403 2484 
Q 997 2584 770 2862 
Q 544 3141 544 3541 
Q 544 4100 942 4425 
Q 1341 4750 2034 4750 
Q 2731 4750 3128 4425 
Q 3525 4100 3525 3541 
Q 3525 3141 3298 2862 
Q 3072 2584 2669 2484 
Q 3125 2378 3379 2068 
Q 3634 1759 3634 1313 
Q 3634 634 3220 271 
Q 2806 -91 2034 -91 
Q 1263 -91 848 271 
Q 434 634 434 1313 
Q 434 1759 690 2068 
Q 947 2378 1403 2484 
z
M 1172 3481 
Q 1172 3119 1398 2916 
Q 1625 2713 2034 2713 
Q 2441 2713 2670 2916 
Q 2900 3119 2900 3481 
Q 2900 3844 2670 4047 
Q 2441 4250 2034 4250 
Q 1625 4250 1398 4047 
Q 1172 3844 1172 3481 
z
" transform="scale(0.015625)"/>
       </defs>
       <use xlink:href="#DejaVuSans-38"/>
       <use xlink:href="#DejaVuSans-30" transform="translate(63.623047 0)"/>
      </g>
     </g>
    </g>
    <g id="xtick_5">
     <g id="line2d_5">
      <g>
       <use xlink:href="#m3bdc0b6406" x="419.145243" y="277.478125" style="stroke: #000000; stroke-width: 0.8"/>
      </g>
     </g>
     <g id="text_5">
      <!-- 100 -->
      <g transform="translate(409.601493 292.076563) scale(0.1 -0.1)">
       <defs>
        <path id="DejaVuSans-31" d="M 794 531 
L 1825 531 
L 1825 4091 
L 703 3866 
L 703 4441 
L 1819 4666 
L 2450 4666 
L 2450 531 
L 3481 531 
L 3481 0 
L 794 0 
L 794 531 
z
" transform="scale(0.015625)"/>
       </defs>
       <use xlink:href="#DejaVuSans-31"/>
       <use xlink:href="#DejaVuSans-30" transform="translate(63.623047 0)"/>
       <use xlink:href="#DejaVuSans-30" transform="translate(127.246094 0)"/>
      </g>
     </g>
    </g>
    <g id="text_6">
     <!-- Unweighted codimension (per trial) -->
     <g transform="translate(173.226719 305.754687) scale(0.1 -0.1)">
      <defs>
       <path id="DejaVuSans-55" d="M 556 4666 
L 1191 4666 
L 1191 1831 
Q 1191 1081 1462 751 
Q 1734 422 2344 422 
Q 2950 422 3222 751 
Q 3494 1081 3494 1831 
L 3494 4666 
L 4128 4666 
L 4128 1753 
Q 4128 841 3676 375 
Q 3225 -91 2344 -91 
Q 1459 -91 1007 375 
Q 556 841 556 1753 
L 556 4666 
z
" transform="scale(0.015625)"/>
       <path id="DejaVuSans-6e" d="M 3513 2113 
L 3513 0 
L 2938 0 
L 2938 2094 
Q 2938 2591 2744 2837 
Q 2550 3084 2163 3084 
Q 1697 3084 1428 2787 
Q 1159 2491 1159 1978 
L 1159 0 
L 581 0 
L 581 3500 
L 1159 3500 
L 1159 2956 
Q 1366 3272 1645 3428 
Q 1925 3584 2291 3584 
Q 2894 3584 3203 3211 
Q 3513 2838 3513 2113 
z
" transform="scale(0.015625)"/>
       <path id="DejaVuSans-77" d="M 269 3500 
L 844 3500 
L 1563 769 
L 2278 3500 
L 2956 3500 
L 3675 769 
L 4391 3500 
L 4966 3500 
L 4050 0 
L 3372 0 
L 2619 2869 
L 1863 0 
L 1184 0 
L 269 3500 
z
" transform="scale(0.015625)"/>
       <path id="DejaVuSans-65" d="M 3597 1894 
L 3597 1613 
L 953 1613 
Q 991 1019 1311 708 
Q 1631 397 2203 397 
Q 2534 397 2845 478 
Q 3156 559 3463 722 
L 3463 178 
Q 3153 47 2828 -22 
Q 2503 -91 2169 -91 
Q 1331 -91 842 396 
Q 353 884 353 1716 
Q 353 2575 817 3079 
Q 1281 3584 2069 3584 
Q 2775 3584 3186 3129 
Q 3597 2675 3597 1894 
z
M 3022 2063 
Q 3016 2534 2758 2815 
Q 2500 3097 2075 3097 
Q 1594 3097 1305 2825 
Q 1016 2553 972 2059 
L 3022 2063 
z
" transform="scale(0.015625)"/>
       <path id="DejaVuSans-69" d="M 603 3500 
L 1178 3500 
L 1178 0 
L 603 0 
L 603 3500 
z
M 603 4863 
L 1178 4863 
L 1178 4134 
L 603 4134 
L 603 4863 
z
" transform="scale(0.015625)"/>
       <path id="DejaVuSans-67" d="M 2906 1791 
Q 2906 2416 2648 2759 
Q 2391 3103 1925 3103 
Q 1463 3103 1205 2759 
Q 947 2416 947 1791 
Q 947 1169 1205 825 
Q 1463 481 1925 481 
Q 2391 481 2648 825 
Q 2906 1169 2906 1791 
z
M 3481 434 
Q 3481 -459 3084 -895 
Q 2688 -1331 1869 -1331 
Q 1566 -1331 1297 -1286 
Q 1028 -1241 775 -1147 
L 775 -588 
Q 1028 -725 1275 -790 
Q 1522 -856 1778 -856 
Q 2344 -856 2625 -561 
Q 2906 -266 2906 331 
L 2906 616 
Q 2728 306 2450 153 
Q 2172 0 1784 0 
Q 1141 0 747 490 
Q 353 981 353 1791 
Q 353 2603 747 3093 
Q 1141 3584 1784 3584 
Q 2172 3584 2450 3431 
Q 2728 3278 2906 2969 
L 2906 3500 
L 3481 3500 
L 3481 434 
z
" transform="scale(0.015625)"/>
       <path id="DejaVuSans-68" d="M 3513 2113 
L 3513 0 
L 2938 0 
L 2938 2094 
Q 2938 2591 2744 2837 
Q 2550 3084 2163 3084 
Q 1697 3084 1428 2787 
Q 1159 2491 1159 1978 
L 1159 0 
L 581 0 
L 581 4863 
L 1159 4863 
L 1159 2956 
Q 1366 3272 1645 3428 
Q 1925 3584 2291 3584 
Q 2894 3584 3203 3211 
Q 3513 2838 3513 2113 
z
" transform="scale(0.015625)"/>
       <path id="DejaVuSans-74" d="M 1172 4494 
L 1172 3500 
L 2356 3500 
L 2356 3053 
L 1172 3053 
L 1172 1153 
Q 1172 725 1289 603 
Q 1406 481 1766 481 
L 2356 481 
L 2356 0 
L 1766 0 
Q 1100 0 847 248 
Q 594 497 594 1153 
L 594 3053 
L 172 3053 
L 172 3500 
L 594 3500 
L 594 4494 
L 1172 4494 
z
" transform="scale(0.015625)"/>
       <path id="DejaVuSans-64" d="M 2906 2969 
L 2906 4863 
L 3481 4863 
L 3481 0 
L 2906 0 
L 2906 525 
Q 2725 213 2448 61 
Q 2172 -91 1784 -91 
Q 1150 -91 751 415 
Q 353 922 353 1747 
Q 353 2572 751 3078 
Q 1150 3584 1784 3584 
Q 2172 3584 2448 3432 
Q 2725 3281 2906 2969 
z
M 947 1747 
Q 947 1113 1208 752 
Q 1469 391 1925 391 
Q 2381 391 2643 752 
Q 2906 1113 2906 1747 
Q 2906 2381 2643 2742 
Q 2381 3103 1925 3103 
Q 1469 3103 1208 2742 
Q 947 2381 947 1747 
z
" transform="scale(0.015625)"/>
       <path id="DejaVuSans-20" transform="scale(0.015625)"/>
       <path id="DejaVuSans-63" d="M 3122 3366 
L 3122 2828 
Q 2878 2963 2633 3030 
Q 2388 3097 2138 3097 
Q 1578 3097 1268 2742 
Q 959 2388 959 1747 
Q 959 1106 1268 751 
Q 1578 397 2138 397 
Q 2388 397 2633 464 
Q 2878 531 3122 666 
L 3122 134 
Q 2881 22 2623 -34 
Q 2366 -91 2075 -91 
Q 1284 -91 818 406 
Q 353 903 353 1747 
Q 353 2603 823 3093 
Q 1294 3584 2113 3584 
Q 2378 3584 2631 3529 
Q 2884 3475 3122 3366 
z
" transform="scale(0.015625)"/>
       <path id="DejaVuSans-6f" d="M 1959 3097 
Q 1497 3097 1228 2736 
Q 959 2375 959 1747 
Q 959 1119 1226 758 
Q 1494 397 1959 397 
Q 2419 397 2687 759 
Q 2956 1122 2956 1747 
Q 2956 2369 2687 2733 
Q 2419 3097 1959 3097 
z
M 1959 3584 
Q 2709 3584 3137 3096 
Q 3566 2609 3566 1747 
Q 3566 888 3137 398 
Q 2709 -91 1959 -91 
Q 1206 -91 779 398 
Q 353 888 353 1747 
Q 353 2609 779 3096 
Q 1206 3584 1959 3584 
z
" transform="scale(0.015625)"/>
       <path id="DejaVuSans-6d" d="M 3328 2828 
Q 3544 3216 3844 3400 
Q 4144 3584 4550 3584 
Q 5097 3584 5394 3201 
Q 5691 2819 5691 2113 
L 5691 0 
L 5113 0 
L 5113 2094 
Q 5113 2597 4934 2840 
Q 4756 3084 4391 3084 
Q 3944 3084 3684 2787 
Q 3425 2491 3425 1978 
L 3425 0 
L 2847 0 
L 2847 2094 
Q 2847 2600 2669 2842 
Q 2491 3084 2119 3084 
Q 1678 3084 1418 2786 
Q 1159 2488 1159 1978 
L 1159 0 
L 581 0 
L 581 3500 
L 1159 3500 
L 1159 2956 
Q 1356 3278 1631 3431 
Q 1906 3584 2284 3584 
Q 2666 3584 2933 3390 
Q 3200 3197 3328 2828 
z
" transform="scale(0.015625)"/>
       <path id="DejaVuSans-73" d="M 2834 3397 
L 2834 2853 
Q 2591 2978 2328 3040 
Q 2066 3103 1784 3103 
Q 1356 3103 1142 2972 
Q 928 2841 928 2578 
Q 928 2378 1081 2264 
Q 1234 2150 1697 2047 
L 1894 2003 
Q 2506 1872 2764 1633 
Q 3022 1394 3022 966 
Q 3022 478 2636 193 
Q 2250 -91 1575 -91 
Q 1294 -91 989 -36 
Q 684 19 347 128 
L 347 722 
Q 666 556 975 473 
Q 1284 391 1588 391 
Q 1994 391 2212 530 
Q 2431 669 2431 922 
Q 2431 1156 2273 1281 
Q 2116 1406 1581 1522 
L 1381 1569 
Q 847 1681 609 1914 
Q 372 2147 372 2553 
Q 372 3047 722 3315 
Q 1072 3584 1716 3584 
Q 2034 3584 2315 3537 
Q 2597 3491 2834 3397 
z
" transform="scale(0.015625)"/>
       <path id="DejaVuSans-28" d="M 1984 4856 
Q 1566 4138 1362 3434 
Q 1159 2731 1159 2009 
Q 1159 1288 1364 580 
Q 1569 -128 1984 -844 
L 1484 -844 
Q 1016 -109 783 600 
Q 550 1309 550 2009 
Q 550 2706 781 3412 
Q 1013 4119 1484 4856 
L 1984 4856 
z
" transform="scale(0.015625)"/>
       <path id="DejaVuSans-70" d="M 1159 525 
L 1159 -1331 
L 581 -1331 
L 581 3500 
L 1159 3500 
L 1159 2969 
Q 1341 3281 1617 3432 
Q 1894 3584 2278 3584 
Q 2916 3584 3314 3078 
Q 3713 2572 3713 1747 
Q 3713 922 3314 415 
Q 2916 -91 2278 -91 
Q 1894 -91 1617 61 
Q 1341 213 1159 525 
z
M 3116 1747 
Q 3116 2381 2855 2742 
Q 2594 3103 2138 3103 
Q 1681 3103 1420 2742 
Q 1159 2381 1159 1747 
Q 1159 1113 1420 752 
Q 1681 391 2138 391 
Q 2594 391 2855 752 
Q 3116 1113 3116 1747 
z
" transform="scale(0.015625)"/>
       <path id="DejaVuSans-72" d="M 2631 2963 
Q 2534 3019 2420 3045 
Q 2306 3072 2169 3072 
Q 1681 3072 1420 2755 
Q 1159 2438 1159 1844 
L 1159 0 
L 581 0 
L 581 3500 
L 1159 3500 
L 1159 2956 
Q 1341 3275 1631 3429 
Q 1922 3584 2338 3584 
Q 2397 3584 2469 3576 
Q 2541 3569 2628 3553 
L 2631 2963 
z
" transform="scale(0.015625)"/>
       <path id="DejaVuSans-61" d="M 2194 1759 
Q 1497 1759 1228 1600 
Q 959 1441 959 1056 
Q 959 750 1161 570 
Q 1363 391 1709 391 
Q 2188 391 2477 730 
Q 2766 1069 2766 1631 
L 2766 1759 
L 2194 1759 
z
M 3341 1997 
L 3341 0 
L 2766 0 
L 2766 531 
Q 2569 213 2275 61 
Q 1981 -91 1556 -91 
Q 1019 -91 701 211 
Q 384 513 384 1019 
Q 384 1609 779 1909 
Q 1175 2209 1959 2209 
L 2766 2209 
L 2766 2266 
Q 2766 2663 2505 2880 
Q 2244 3097 1772 3097 
Q 1472 3097 1187 3025 
Q 903 2953 641 2809 
L 641 3341 
Q 956 3463 1253 3523 
Q 1550 3584 1831 3584 
Q 2591 3584 2966 3190 
Q 3341 2797 3341 1997 
z
" transform="scale(0.015625)"/>
       <path id="DejaVuSans-6c" d="M 603 4863 
L 1178 4863 
L 1178 0 
L 603 0 
L 603 4863 
z
" transform="scale(0.015625)"/>
       <path id="DejaVuSans-29" d="M 513 4856 
L 1013 4856 
Q 1481 4119 1714 3412 
Q 1947 2706 1947 2009 
Q 1947 1309 1714 600 
Q 1481 -109 1013 -844 
L 513 -844 
Q 928 -128 1133 580 
Q 1338 1288 1338 2009 
Q 1338 2731 1133 3434 
Q 928 4138 513 4856 
z
" transform="scale(0.015625)"/>
      </defs>
      <use xlink:href="#DejaVuSans-55"/>
      <use xlink:href="#DejaVuSans-6e" transform="translate(73.193359 0)"/>
      <use xlink:href="#DejaVuSans-77" transform="translate(136.572266 0)"/>
      <use xlink:href="#DejaVuSans-65" transform="translate(218.359375 0)"/>
      <use xlink:href="#DejaVuSans-69" transform="translate(279.882812 0)"/>
      <use xlink:href="#DejaVuSans-67" transform="translate(307.666016 0)"/>
      <use xlink:href="#DejaVuSans-68" transform="translate(371.142578 0)"/>
      <use xlink:href="#DejaVuSans-74" transform="translate(434.521484 0)"/>
      <use xlink:href="#DejaVuSans-65" transform="translate(473.730469 0)"/>
      <use xlink:href="#DejaVuSans-64" transform="translate(535.253906 0)"/>
      <use xlink:href="#DejaVuSans-20" transform="translate(598.730469 0)"/>
      <use xlink:href="#DejaVuSans-63" transform="translate(630.517578 0)"/>
      <use xlink:href="#DejaVuSans-6f" transform="translate(685.498047 0)"/>
      <use xlink:href="#DejaVuSans-64" transform="translate(746.679688 0)"/>
      <use xlink:href="#DejaVuSans-69" transform="translate(810.15625 0)"/>
      <use xlink:href="#DejaVuSans-6d" transform="translate(837.939453 0)"/>
      <use xlink:href="#DejaVuSans-65" transform="translate(935.351562 0)"/>
      <use xlink:href="#DejaVuSans-6e" transform="translate(996.875 0)"/>
      <use xlink:href="#DejaVuSans-73" transform="translate(1060.253906 0)"/>
      <use xlink:href="#DejaVuSans-69" transform="translate(1112.353516 0)"/>
      <use xlink:href="#DejaVuSans-6f" transform="translate(1140.136719 0)"/>
      <use xlink:href="#DejaVuSans-6e" transform="translate(1201.318359 0)"/>
      <use xlink:href="#DejaVuSans-20" transform="translate(1264.697266 0)"/>
      <use xlink:href="#DejaVuSans-28" transform="translate(1296.484375 0)"/>
      <use xlink:href="#DejaVuSans-70" transform="translate(1335.498047 0)"/>
      <use xlink:href="#DejaVuSans-65" transform="translate(1398.974609 0)"/>
      <use xlink:href="#DejaVuSans-72" transform="translate(1460.498047 0)"/>
      <use xlink:href="#DejaVuSans-20" transform="translate(1501.611328 0)"/>
      <use xlink:href="#DejaVuSans-74" transform="translate(1533.398438 0)"/>
      <use xlink:href="#DejaVuSans-72" transform="translate(1572.607422 0)"/>
      <use xlink:href="#DejaVuSans-69" transform="translate(1613.720703 0)"/>
      <use xlink:href="#DejaVuSans-61" transform="translate(1641.503906 0)"/>
      <use xlink:href="#DejaVuSans-6c" transform="translate(1702.783203 0)"/>
      <use xlink:href="#DejaVuSans-29" transform="translate(1730.566406 0)"/>
     </g>
    </g>
   </g>
   <g id="matplotlib.axis_2">
    <g id="ytick_1">
     <g id="line2d_6">
      <defs>
       <path id="m63433a296b" d="M 0 0 
L -3.5 0 
" style="stroke: #000000; stroke-width: 0.8"/>
      </defs>
      <g>
       <use xlink:href="#m63433a296b" x="34.240625" y="277.478125" style="stroke: #000000; stroke-width: 0.8"/>
      </g>
     </g>
     <g id="text_7">
      <!-- 0 -->
      <g transform="translate(20.878125 281.277344) scale(0.1 -0.1)">
       <use xlink:href="#DejaVuSans-30"/>
      </g>
     </g>
    </g>
    <g id="ytick_2">
     <g id="line2d_7">
      <g>
       <use xlink:href="#m63433a296b" x="34.240625" y="223.476009" style="stroke: #000000; stroke-width: 0.8"/>
      </g>
     </g>
     <g id="text_8">
      <!-- 2 -->
      <g transform="translate(20.878125 227.275227) scale(0.1 -0.1)">
       <use xlink:href="#DejaVuSans-32"/>
      </g>
     </g>
    </g>
    <g id="ytick_3">
     <g id="line2d_8">
      <g>
       <use xlink:href="#m63433a296b" x="34.240625" y="169.473892" style="stroke: #000000; stroke-width: 0.8"/>
      </g>
     </g>
     <g id="text_9">
      <!-- 4 -->
      <g transform="translate(20.878125 173.273111) scale(0.1 -0.1)">
       <use xlink:href="#DejaVuSans-34"/>
      </g>
     </g>
    </g>
    <g id="ytick_4">
     <g id="line2d_9">
      <g>
       <use xlink:href="#m63433a296b" x="34.240625" y="115.471776" style="stroke: #000000; stroke-width: 0.8"/>
      </g>
     </g>
     <g id="text_10">
      <!-- 6 -->
      <g transform="translate(20.878125 119.270995) scale(0.1 -0.1)">
       <use xlink:href="#DejaVuSans-36"/>
      </g>
     </g>
    </g>
    <g id="ytick_5">
     <g id="line2d_10">
      <g>
       <use xlink:href="#m63433a296b" x="34.240625" y="61.469659" style="stroke: #000000; stroke-width: 0.8"/>
      </g>
     </g>
     <g id="text_11">
      <!-- 8 -->
      <g transform="translate(20.878125 65.268878) scale(0.1 -0.1)">
       <use xlink:href="#DejaVuSans-38"/>
      </g>
     </g>
    </g>
    <g id="text_12">
     <!-- Count -->
     <g transform="translate(14.798438 164.746562) rotate(-90) scale(0.1 -0.1)">
      <defs>
       <path id="DejaVuSans-43" d="M 4122 4306 
L 4122 3641 
Q 3803 3938 3442 4084 
Q 3081 4231 2675 4231 
Q 1875 4231 1450 3742 
Q 1025 3253 1025 2328 
Q 1025 1406 1450 917 
Q 1875 428 2675 428 
Q 3081 428 3442 575 
Q 3803 722 4122 1019 
L 4122 359 
Q 3791 134 3420 21 
Q 3050 -91 2638 -91 
Q 1578 -91 968 557 
Q 359 1206 359 2328 
Q 359 3453 968 4101 
Q 1578 4750 2638 4750 
Q 3056 4750 3426 4639 
Q 3797 4528 4122 4306 
z
" transform="scale(0.015625)"/>
       <path id="DejaVuSans-75" d="M 544 1381 
L 544 3500 
L 1119 3500 
L 1119 1403 
Q 1119 906 1312 657 
Q 1506 409 1894 409 
Q 2359 409 2629 706 
Q 2900 1003 2900 1516 
L 2900 3500 
L 3475 3500 
L 3475 0 
L 2900 0 
L 2900 538 
Q 2691 219 2414 64 
Q 2138 -91 1772 -91 
Q 1169 -91 856 284 
Q 544 659 544 1381 
z
M 1991 3584 
L 1991 3584 
z
" transform="scale(0.015625)"/>
      </defs>
      <use xlink:href="#DejaVuSans-43"/>
      <use xlink:href="#DejaVuSans-6f" transform="translate(69.824219 0)"/>
      <use xlink:href="#DejaVuSans-75" transform="translate(131.005859 0)"/>
      <use xlink:href="#DejaVuSans-6e" transform="translate(194.384766 0)"/>
      <use xlink:href="#DejaVuSans-74" transform="translate(257.763672 0)"/>
     </g>
    </g>
   </g>
   <g id="patch_91">
    <path d="M 34.240625 277.478125 
L 34.240625 22.318125 
" style="fill: none; stroke: #000000; stroke-width: 0.8; stroke-linejoin: miter; stroke-linecap: square"/>
   </g>
   <g id="patch_92">
    <path d="M 489.170625 277.478125 
L 489.170625 22.318125 
" style="fill: none; stroke: #000000; stroke-width: 0.8; stroke-linejoin: miter; stroke-linecap: square"/>
   </g>
   <g id="patch_93">
    <path d="M 34.240625 277.478125 
L 489.170625 277.478125 
" style="fill: none; stroke: #000000; stroke-width: 0.8; stroke-linejoin: miter; stroke-linecap: square"/>
   </g>
   <g id="patch_94">
    <path d="M 34.240625 22.318125 
L 489.170625 22.318125 
" style="fill: none; stroke: #000000; stroke-width: 0.8; stroke-linejoin: miter; stroke-linecap: square"/>
   </g>
   <g id="text_13">
    <!-- Unweighted codimension on torus (a=6, c=9, n=100, σ=0.2, T=100) -->
    <g transform="translate(53.8075 16.318125) scale(0.12 -0.12)">
     <defs>
      <path id="DejaVuSans-3d" d="M 678 2906 
L 4684 2906 
L 4684 2381 
L 678 2381 
L 678 2906 
z
M 678 1631 
L 4684 1631 
L 4684 1100 
L 678 1100 
L 678 1631 
z
" transform="scale(0.015625)"/>
      <path id="DejaVuSans-2c" d="M 750 794 
L 1409 794 
L 1409 256 
L 897 -744 
L 494 -744 
L 750 256 
L 750 794 
z
" transform="scale(0.015625)"/>
      <path id="DejaVuSans-39" d="M 703 97 
L 703 672 
Q 941 559 1184 500 
Q 1428 441 1663 441 
Q 2288 441 2617 861 
Q 2947 1281 2994 2138 
Q 2813 1869 2534 1725 
Q 2256 1581 1919 1581 
Q 1219 1581 811 2004 
Q 403 2428 403 3163 
Q 403 3881 828 4315 
Q 1253 4750 1959 4750 
Q 2769 4750 3195 4129 
Q 3622 3509 3622 2328 
Q 3622 1225 3098 567 
Q 2575 -91 1691 -91 
Q 1453 -91 1209 -44 
Q 966 3 703 97 
z
M 1959 2075 
Q 2384 2075 2632 2365 
Q 2881 2656 2881 3163 
Q 2881 3666 2632 3958 
Q 2384 4250 1959 4250 
Q 1534 4250 1286 3958 
Q 1038 3666 1038 3163 
Q 1038 2656 1286 2365 
Q 1534 2075 1959 2075 
z
" transform="scale(0.015625)"/>
      <path id="DejaVuSans-3c3" d="M 1959 3044 
Q 1484 3044 1228 2700 
Q 959 2341 959 1747 
Q 959 1119 1226 758 
Q 1494 397 1959 397 
Q 2419 397 2687 759 
Q 2956 1122 2956 1747 
Q 2956 2319 2688 2700 
Q 2441 3044 1959 3044 
z
M 1959 3500 
L 3869 3500 
L 3869 2925 
L 3225 2925 
Q 3566 2438 3566 1747 
Q 3566 888 3138 400 
Q 2709 -91 1959 -91 
Q 1206 -91 781 400 
Q 353 888 353 1747 
Q 353 2613 781 3097 
Q 1134 3500 1959 3500 
z
" transform="scale(0.015625)"/>
      <path id="DejaVuSans-2e" d="M 684 794 
L 1344 794 
L 1344 0 
L 684 0 
L 684 794 
z
" transform="scale(0.015625)"/>
      <path id="DejaVuSans-54" d="M -19 4666 
L 3928 4666 
L 3928 4134 
L 2272 4134 
L 2272 0 
L 1638 0 
L 1638 4134 
L -19 4134 
L -19 4666 
z
" transform="scale(0.015625)"/>
     </defs>
     <use xlink:href="#DejaVuSans-55"/>
     <use xlink:href="#DejaVuSans-6e" transform="translate(73.193359 0)"/>
     <use xlink:href="#DejaVuSans-77" transform="translate(136.572266 0)"/>
     <use xlink:href="#DejaVuSans-65" transform="translate(218.359375 0)"/>
     <use xlink:href="#DejaVuSans-69" transform="translate(279.882812 0)"/>
     <use xlink:href="#DejaVuSans-67" transform="translate(307.666016 0)"/>
     <use xlink:href="#DejaVuSans-68" transform="translate(371.142578 0)"/>
     <use xlink:href="#DejaVuSans-74" transform="translate(434.521484 0)"/>
     <use xlink:href="#DejaVuSans-65" transform="translate(473.730469 0)"/>
     <use xlink:href="#DejaVuSans-64" transform="translate(535.253906 0)"/>
     <use xlink:href="#DejaVuSans-20" transform="translate(598.730469 0)"/>
     <use xlink:href="#DejaVuSans-63" transform="translate(630.517578 0)"/>
     <use xlink:href="#DejaVuSans-6f" transform="translate(685.498047 0)"/>
     <use xlink:href="#DejaVuSans-64" transform="translate(746.679688 0)"/>
     <use xlink:href="#DejaVuSans-69" transform="translate(810.15625 0)"/>
     <use xlink:href="#DejaVuSans-6d" transform="translate(837.939453 0)"/>
     <use xlink:href="#DejaVuSans-65" transform="translate(935.351562 0)"/>
     <use xlink:href="#DejaVuSans-6e" transform="translate(996.875 0)"/>
     <use xlink:href="#DejaVuSans-73" transform="translate(1060.253906 0)"/>
     <use xlink:href="#DejaVuSans-69" transform="translate(1112.353516 0)"/>
     <use xlink:href="#DejaVuSans-6f" transform="translate(1140.136719 0)"/>
     <use xlink:href="#DejaVuSans-6e" transform="translate(1201.318359 0)"/>
     <use xlink:href="#DejaVuSans-20" transform="translate(1264.697266 0)"/>
     <use xlink:href="#DejaVuSans-6f" transform="translate(1296.484375 0)"/>
     <use xlink:href="#DejaVuSans-6e" transform="translate(1357.666016 0)"/>
     <use xlink:href="#DejaVuSans-20" transform="translate(1421.044922 0)"/>
     <use xlink:href="#DejaVuSans-74" transform="translate(1452.832031 0)"/>
     <use xlink:href="#DejaVuSans-6f" transform="translate(1492.041016 0)"/>
     <use xlink:href="#DejaVuSans-72" transform="translate(1553.222656 0)"/>
     <use xlink:href="#DejaVuSans-75" transform="translate(1594.335938 0)"/>
     <use xlink:href="#DejaVuSans-73" transform="translate(1657.714844 0)"/>
     <use xlink:href="#DejaVuSans-20" transform="translate(1709.814453 0)"/>
     <use xlink:href="#DejaVuSans-28" transform="translate(1741.601562 0)"/>
     <use xlink:href="#DejaVuSans-61" transform="translate(1780.615234 0)"/>
     <use xlink:href="#DejaVuSans-3d" transform="translate(1841.894531 0)"/>
     <use xlink:href="#DejaVuSans-36" transform="translate(1925.683594 0)"/>
     <use xlink:href="#DejaVuSans-2c" transform="translate(1989.306641 0)"/>
     <use xlink:href="#DejaVuSans-20" transform="translate(2021.09375 0)"/>
     <use xlink:href="#DejaVuSans-63" transform="translate(2052.880859 0)"/>
     <use xlink:href="#DejaVuSans-3d" transform="translate(2107.861328 0)"/>
     <use xlink:href="#DejaVuSans-39" transform="translate(2191.650391 0)"/>
     <use xlink:href="#DejaVuSans-2c" transform="translate(2255.273438 0)"/>
     <use xlink:href="#DejaVuSans-20" transform="translate(2287.060547 0)"/>
     <use xlink:href="#DejaVuSans-6e" transform="translate(2318.847656 0)"/>
     <use xlink:href="#DejaVuSans-3d" transform="translate(2382.226562 0)"/>
     <use xlink:href="#DejaVuSans-31" transform="translate(2466.015625 0)"/>
     <use xlink:href="#DejaVuSans-30" transform="translate(2529.638672 0)"/>
     <use xlink:href="#DejaVuSans-30" transform="translate(2593.261719 0)"/>
     <use xlink:href="#DejaVuSans-2c" transform="translate(2656.884766 0)"/>
     <use xlink:href="#DejaVuSans-20" transform="translate(2688.671875 0)"/>
     <use xlink:href="#DejaVuSans-3c3" transform="translate(2720.458984 0)"/>
     <use xlink:href="#DejaVuSans-3d" transform="translate(2783.837891 0)"/>
     <use xlink:href="#DejaVuSans-30" transform="translate(2867.626953 0)"/>
     <use xlink:href="#DejaVuSans-2e" transform="translate(2931.25 0)"/>
     <use xlink:href="#DejaVuSans-32" transform="translate(2963.037109 0)"/>
     <use xlink:href="#DejaVuSans-2c" transform="translate(3026.660156 0)"/>
     <use xlink:href="#DejaVuSans-20" transform="translate(3058.447266 0)"/>
     <use xlink:href="#DejaVuSans-54" transform="translate(3090.234375 0)"/>
     <use xlink:href="#DejaVuSans-3d" transform="translate(3151.318359 0)"/>
     <use xlink:href="#DejaVuSans-31" transform="translate(3235.107422 0)"/>
     <use xlink:href="#DejaVuSans-30" transform="translate(3298.730469 0)"/>
     <use xlink:href="#DejaVuSans-30" transform="translate(3362.353516 0)"/>
     <use xlink:href="#DejaVuSans-29" transform="translate(3425.976562 0)"/>
    </g>
   </g>
  </g>
 </g>
 <defs>
  <clipPath id="p9a4ae42445">
   <rect x="34.240625" y="22.318125" width="454.93" height="255.16"/>
  </clipPath>
 </defs>
</svg>
